M48
; DRILL file {KiCad (5.1.5)-3} date 22/05/2020 12:40:12
; FORMAT={-:-/ absolute / inch / decimal}
; #@! TF.CreationDate,2020-05-22T12:40:12+02:00
; #@! TF.GenerationSoftware,Kicad,Pcbnew,(5.1.5)-3
; #@! TF.FileFunction,Plated,1,2,PTH
FMAT,2
INCH
T1C0.0157
T2C0.0300
T3C0.0394
T4C0.0433
T5C0.0437
T6C0.0512
%
G90
G05
T1
X1.6206Y-5.0239
X2.3735Y-4.2294
X2.4088Y-5.0239
X3.1678Y-5.0083
X3.195Y-2.4977
X3.456Y-5.0239
X3.4989Y-3.3676
X3.5389Y-3.4403
X3.7246Y-2.5705
X3.8147Y-4.104
X3.8664Y-2.4462
X3.885Y-2.3697
X4.261Y-5.091
X4.9939Y-5.1827
X4.9962Y-3.1171
X5.0193Y-3.1506
X5.2674Y-2.7669
X5.3475Y-2.7901
X5.3856Y-2.829
X5.4217Y-2.8653
X5.8578Y-3.1808
X5.963Y-5.0083
X5.9945Y-4.1159
X6.0169Y-3.3404
X6.5654Y-4.8944
X6.5807Y-3.4806
X6.661Y-4.291
X6.6827Y-4.9602
X6.7695Y-3.4403
X6.7704Y-4.1343
X6.7975Y-4.204
X6.8086Y-4.9631
X7.3607Y-4.2734
X8.0504Y-3.76
X8.1371Y-5.2236
X8.9136Y-5.1827
X9.0403Y-3.5057
X9.8009Y-4.4148
T2
X6.43Y-1.75
X6.43Y-1.85
X6.43Y-1.95
X6.43Y-2.05
X6.43Y-2.15
X6.43Y-2.25
X6.83Y-1.75
X6.83Y-1.85
X6.83Y-1.95
X6.83Y-2.05
X6.83Y-2.15
X6.83Y-2.25
T3
X2.57Y-1.65
X2.57Y-1.75
X2.57Y-1.85
X2.57Y-1.95
X2.57Y-2.05
X2.57Y-2.15
X3.27Y-1.35
X3.27Y-1.45
X3.27Y-1.55
X3.27Y-1.65
X3.27Y-1.75
X3.27Y-1.85
X3.27Y-1.95
X3.27Y-2.05
X3.27Y-2.15
X3.27Y-2.25
X3.27Y-2.35
X3.27Y-2.45
X2.08Y-2.6
X2.18Y-2.6
X2.28Y-2.6
X2.025Y-1.69
X2.125Y-1.69
X2.225Y-1.69
X2.325Y-1.69
X4.34Y-1.65
X4.34Y-1.75
X4.34Y-1.85
X4.34Y-1.95
X4.34Y-2.05
X4.34Y-2.15
X5.04Y-1.35
X5.04Y-1.45
X5.04Y-1.55
X5.04Y-1.65
X5.04Y-1.75
X5.04Y-1.85
X5.04Y-1.95
X5.04Y-2.05
X5.04Y-2.15
X5.04Y-2.25
X5.04Y-2.35
X5.04Y-2.45
X5.57Y-1.46
X5.67Y-1.46
X5.77Y-1.46
X5.87Y-1.46
X3.45Y-1.65
X3.45Y-1.75
X3.45Y-1.85
X3.45Y-1.95
X3.45Y-2.05
X3.45Y-2.15
X4.15Y-1.35
X4.15Y-1.45
X4.15Y-1.55
X4.15Y-1.65
X4.15Y-1.75
X4.15Y-1.85
X4.15Y-1.95
X4.15Y-2.05
X4.15Y-2.15
X4.15Y-2.25
X4.15Y-2.35
X4.15Y-2.45
T4
X2.06Y-1.925
X2.06Y-2.1022
X2.3159Y-1.925
X2.3159Y-2.1022
T5
X1.18Y-1.46
X1.18Y-1.56
X1.18Y-1.66
X1.18Y-1.76
X1.18Y-1.86
X1.18Y-1.96
X1.18Y-2.06
X1.18Y-2.16
X1.18Y-2.26
X1.18Y-2.36
X1.18Y-2.46
X1.18Y-2.56
X1.78Y-1.46
X1.78Y-1.56
X1.78Y-1.66
X1.78Y-1.76
X1.78Y-1.86
X1.78Y-1.96
X1.78Y-2.06
X1.78Y-2.16
X1.78Y-2.26
X1.78Y-2.36
X1.78Y-2.46
X1.78Y-2.56
T6
X7.2063Y-2.54
X7.4031Y-2.54
X7.6Y-2.54
X5.5Y-2.93
X5.5Y-3.1269
X5.9921Y-2.93
X5.9921Y-3.1269
X8.1063Y-2.54
X8.3031Y-2.54
X8.5Y-2.54
X8.06Y-2.93
X8.06Y-3.1269
X8.5521Y-2.93
X8.5521Y-3.1269
X9.9063Y-2.54
X10.1031Y-2.54
X10.3Y-2.54
X3.1Y-2.93
X3.1Y-3.1269
X3.5921Y-2.93
X3.5921Y-3.1269
X1.5Y-2.93
X1.5Y-3.1269
X1.9921Y-2.93
X1.9921Y-3.1269
X8.96Y-2.93
X8.96Y-3.1269
X9.4521Y-2.93
X9.4521Y-3.1269
X9.0063Y-2.54
X9.2031Y-2.54
X9.4Y-2.54
X4.7Y-2.93
X4.7Y-3.1269
X5.1921Y-2.93
X5.1921Y-3.1269
X3.9Y-2.93
X3.9Y-3.1269
X4.3921Y-2.93
X4.3921Y-3.1269
X9.84Y-2.93
X9.84Y-3.1269
X10.3321Y-2.93
X10.3321Y-3.1269
X7.16Y-2.93
X7.16Y-3.1269
X7.6521Y-2.93
X7.6521Y-3.1269
X2.3Y-2.93
X2.3Y-3.1269
X2.7921Y-2.93
X2.7921Y-3.1269
T0
M30
