G04 #@! TF.GenerationSoftware,KiCad,Pcbnew,(5.1.5)-3*
G04 #@! TF.CreationDate,2020-05-22T12:40:10+02:00*
G04 #@! TF.ProjectId,m1d1_36,6d316431-5f33-4362-9e6b-696361645f70,rev?*
G04 #@! TF.SameCoordinates,Original*
G04 #@! TF.FileFunction,Soldermask,Bot*
G04 #@! TF.FilePolarity,Negative*
%FSLAX46Y46*%
G04 Gerber Fmt 4.6, Leading zero omitted, Abs format (unit mm)*
G04 Created by KiCad (PCBNEW (5.1.5)-3) date 2020-05-22 12:40:10*
%MOMM*%
%LPD*%
G04 APERTURE LIST*
%ADD10C,0.100000*%
G04 APERTURE END LIST*
D10*
G36*
X38794739Y-78450707D02*
G01*
X38890329Y-78460122D01*
X39074306Y-78515931D01*
X39074309Y-78515932D01*
X39164225Y-78563994D01*
X39243860Y-78606559D01*
X39290035Y-78644454D01*
X39392476Y-78728524D01*
X39476546Y-78830965D01*
X39514441Y-78877140D01*
X39557006Y-78956775D01*
X39605068Y-79046691D01*
X39605069Y-79046694D01*
X39660878Y-79230671D01*
X39679722Y-79422000D01*
X39660878Y-79613329D01*
X39605069Y-79797306D01*
X39605068Y-79797309D01*
X39557006Y-79887225D01*
X39514441Y-79966860D01*
X39476546Y-80013035D01*
X39392476Y-80115476D01*
X39290035Y-80199546D01*
X39243860Y-80237441D01*
X39164225Y-80280006D01*
X39074309Y-80328068D01*
X39074306Y-80328069D01*
X38890329Y-80383878D01*
X38794739Y-80393293D01*
X38746945Y-80398000D01*
X37453055Y-80398000D01*
X37405261Y-80393293D01*
X37309671Y-80383878D01*
X37125694Y-80328069D01*
X37125691Y-80328068D01*
X37035775Y-80280006D01*
X36956140Y-80237441D01*
X36909965Y-80199546D01*
X36807524Y-80115476D01*
X36723454Y-80013035D01*
X36685559Y-79966860D01*
X36642994Y-79887225D01*
X36594932Y-79797309D01*
X36594931Y-79797306D01*
X36539122Y-79613329D01*
X36520278Y-79422000D01*
X36539122Y-79230671D01*
X36594931Y-79046694D01*
X36594932Y-79046691D01*
X36642994Y-78956775D01*
X36685559Y-78877140D01*
X36723454Y-78830965D01*
X36807524Y-78728524D01*
X36909965Y-78644454D01*
X36956140Y-78606559D01*
X37035775Y-78563994D01*
X37125691Y-78515932D01*
X37125694Y-78515931D01*
X37309671Y-78460122D01*
X37405261Y-78450707D01*
X37453055Y-78446000D01*
X38746945Y-78446000D01*
X38794739Y-78450707D01*
G37*
G36*
X205418739Y-78450707D02*
G01*
X205514329Y-78460122D01*
X205698306Y-78515931D01*
X205698309Y-78515932D01*
X205788225Y-78563994D01*
X205867860Y-78606559D01*
X205914035Y-78644454D01*
X206016476Y-78728524D01*
X206100546Y-78830965D01*
X206138441Y-78877140D01*
X206181006Y-78956775D01*
X206229068Y-79046691D01*
X206229069Y-79046694D01*
X206284878Y-79230671D01*
X206303722Y-79422000D01*
X206284878Y-79613329D01*
X206229069Y-79797306D01*
X206229068Y-79797309D01*
X206181006Y-79887225D01*
X206138441Y-79966860D01*
X206100546Y-80013035D01*
X206016476Y-80115476D01*
X205914035Y-80199546D01*
X205867860Y-80237441D01*
X205788225Y-80280006D01*
X205698309Y-80328068D01*
X205698306Y-80328069D01*
X205514329Y-80383878D01*
X205418739Y-80393293D01*
X205370945Y-80398000D01*
X204077055Y-80398000D01*
X204029261Y-80393293D01*
X203933671Y-80383878D01*
X203749694Y-80328069D01*
X203749691Y-80328068D01*
X203659775Y-80280006D01*
X203580140Y-80237441D01*
X203533965Y-80199546D01*
X203431524Y-80115476D01*
X203347454Y-80013035D01*
X203309559Y-79966860D01*
X203266994Y-79887225D01*
X203218932Y-79797309D01*
X203218931Y-79797306D01*
X203163122Y-79613329D01*
X203144278Y-79422000D01*
X203163122Y-79230671D01*
X203218931Y-79046694D01*
X203218932Y-79046691D01*
X203266994Y-78956775D01*
X203309559Y-78877140D01*
X203347454Y-78830965D01*
X203431524Y-78728524D01*
X203533965Y-78644454D01*
X203580140Y-78606559D01*
X203659775Y-78563994D01*
X203749691Y-78515932D01*
X203749694Y-78515931D01*
X203933671Y-78460122D01*
X204029261Y-78450707D01*
X204077055Y-78446000D01*
X205370945Y-78446000D01*
X205418739Y-78450707D01*
G37*
G36*
X182558739Y-78450707D02*
G01*
X182654329Y-78460122D01*
X182838306Y-78515931D01*
X182838309Y-78515932D01*
X182928225Y-78563994D01*
X183007860Y-78606559D01*
X183054035Y-78644454D01*
X183156476Y-78728524D01*
X183240546Y-78830965D01*
X183278441Y-78877140D01*
X183321006Y-78956775D01*
X183369068Y-79046691D01*
X183369069Y-79046694D01*
X183424878Y-79230671D01*
X183443722Y-79422000D01*
X183424878Y-79613329D01*
X183369069Y-79797306D01*
X183369068Y-79797309D01*
X183321006Y-79887225D01*
X183278441Y-79966860D01*
X183240546Y-80013035D01*
X183156476Y-80115476D01*
X183054035Y-80199546D01*
X183007860Y-80237441D01*
X182928225Y-80280006D01*
X182838309Y-80328068D01*
X182838306Y-80328069D01*
X182654329Y-80383878D01*
X182558739Y-80393293D01*
X182510945Y-80398000D01*
X181217055Y-80398000D01*
X181169261Y-80393293D01*
X181073671Y-80383878D01*
X180889694Y-80328069D01*
X180889691Y-80328068D01*
X180799775Y-80280006D01*
X180720140Y-80237441D01*
X180673965Y-80199546D01*
X180571524Y-80115476D01*
X180487454Y-80013035D01*
X180449559Y-79966860D01*
X180406994Y-79887225D01*
X180358932Y-79797309D01*
X180358931Y-79797306D01*
X180303122Y-79613329D01*
X180284278Y-79422000D01*
X180303122Y-79230671D01*
X180358931Y-79046694D01*
X180358932Y-79046691D01*
X180406994Y-78956775D01*
X180449559Y-78877140D01*
X180487454Y-78830965D01*
X180571524Y-78728524D01*
X180673965Y-78644454D01*
X180720140Y-78606559D01*
X180799775Y-78563994D01*
X180889691Y-78515932D01*
X180889694Y-78515931D01*
X181073671Y-78460122D01*
X181169261Y-78450707D01*
X181217055Y-78446000D01*
X182510945Y-78446000D01*
X182558739Y-78450707D01*
G37*
G36*
X195058739Y-78450707D02*
G01*
X195154329Y-78460122D01*
X195338306Y-78515931D01*
X195338309Y-78515932D01*
X195428225Y-78563994D01*
X195507860Y-78606559D01*
X195554035Y-78644454D01*
X195656476Y-78728524D01*
X195740546Y-78830965D01*
X195778441Y-78877140D01*
X195821006Y-78956775D01*
X195869068Y-79046691D01*
X195869069Y-79046694D01*
X195924878Y-79230671D01*
X195943722Y-79422000D01*
X195924878Y-79613329D01*
X195869069Y-79797306D01*
X195869068Y-79797309D01*
X195821006Y-79887225D01*
X195778441Y-79966860D01*
X195740546Y-80013035D01*
X195656476Y-80115476D01*
X195554035Y-80199546D01*
X195507860Y-80237441D01*
X195428225Y-80280006D01*
X195338309Y-80328068D01*
X195338306Y-80328069D01*
X195154329Y-80383878D01*
X195058739Y-80393293D01*
X195010945Y-80398000D01*
X193717055Y-80398000D01*
X193669261Y-80393293D01*
X193573671Y-80383878D01*
X193389694Y-80328069D01*
X193389691Y-80328068D01*
X193299775Y-80280006D01*
X193220140Y-80237441D01*
X193173965Y-80199546D01*
X193071524Y-80115476D01*
X192987454Y-80013035D01*
X192949559Y-79966860D01*
X192906994Y-79887225D01*
X192858932Y-79797309D01*
X192858931Y-79797306D01*
X192803122Y-79613329D01*
X192784278Y-79422000D01*
X192803122Y-79230671D01*
X192858931Y-79046694D01*
X192858932Y-79046691D01*
X192906994Y-78956775D01*
X192949559Y-78877140D01*
X192987454Y-78830965D01*
X193071524Y-78728524D01*
X193173965Y-78644454D01*
X193220140Y-78606559D01*
X193299775Y-78563994D01*
X193389691Y-78515932D01*
X193389694Y-78515931D01*
X193573671Y-78460122D01*
X193669261Y-78450707D01*
X193717055Y-78446000D01*
X195010945Y-78446000D01*
X195058739Y-78450707D01*
G37*
G36*
X99754739Y-78450707D02*
G01*
X99850329Y-78460122D01*
X100034306Y-78515931D01*
X100034309Y-78515932D01*
X100124225Y-78563994D01*
X100203860Y-78606559D01*
X100250035Y-78644454D01*
X100352476Y-78728524D01*
X100436546Y-78830965D01*
X100474441Y-78877140D01*
X100517006Y-78956775D01*
X100565068Y-79046691D01*
X100565069Y-79046694D01*
X100620878Y-79230671D01*
X100639722Y-79422000D01*
X100620878Y-79613329D01*
X100565069Y-79797306D01*
X100565068Y-79797309D01*
X100517006Y-79887225D01*
X100474441Y-79966860D01*
X100436546Y-80013035D01*
X100352476Y-80115476D01*
X100250035Y-80199546D01*
X100203860Y-80237441D01*
X100124225Y-80280006D01*
X100034309Y-80328068D01*
X100034306Y-80328069D01*
X99850329Y-80383878D01*
X99754739Y-80393293D01*
X99706945Y-80398000D01*
X98413055Y-80398000D01*
X98365261Y-80393293D01*
X98269671Y-80383878D01*
X98085694Y-80328069D01*
X98085691Y-80328068D01*
X97995775Y-80280006D01*
X97916140Y-80237441D01*
X97869965Y-80199546D01*
X97767524Y-80115476D01*
X97683454Y-80013035D01*
X97645559Y-79966860D01*
X97602994Y-79887225D01*
X97554932Y-79797309D01*
X97554931Y-79797306D01*
X97499122Y-79613329D01*
X97480278Y-79422000D01*
X97499122Y-79230671D01*
X97554931Y-79046694D01*
X97554932Y-79046691D01*
X97602994Y-78956775D01*
X97645559Y-78877140D01*
X97683454Y-78830965D01*
X97767524Y-78728524D01*
X97869965Y-78644454D01*
X97916140Y-78606559D01*
X97995775Y-78563994D01*
X98085691Y-78515932D01*
X98085694Y-78515931D01*
X98269671Y-78460122D01*
X98365261Y-78450707D01*
X98413055Y-78446000D01*
X99706945Y-78446000D01*
X99754739Y-78450707D01*
G37*
G36*
X112254739Y-78450707D02*
G01*
X112350329Y-78460122D01*
X112534306Y-78515931D01*
X112534309Y-78515932D01*
X112624225Y-78563994D01*
X112703860Y-78606559D01*
X112750035Y-78644454D01*
X112852476Y-78728524D01*
X112936546Y-78830965D01*
X112974441Y-78877140D01*
X113017006Y-78956775D01*
X113065068Y-79046691D01*
X113065069Y-79046694D01*
X113120878Y-79230671D01*
X113139722Y-79422000D01*
X113120878Y-79613329D01*
X113065069Y-79797306D01*
X113065068Y-79797309D01*
X113017006Y-79887225D01*
X112974441Y-79966860D01*
X112936546Y-80013035D01*
X112852476Y-80115476D01*
X112750035Y-80199546D01*
X112703860Y-80237441D01*
X112624225Y-80280006D01*
X112534309Y-80328068D01*
X112534306Y-80328069D01*
X112350329Y-80383878D01*
X112254739Y-80393293D01*
X112206945Y-80398000D01*
X110913055Y-80398000D01*
X110865261Y-80393293D01*
X110769671Y-80383878D01*
X110585694Y-80328069D01*
X110585691Y-80328068D01*
X110495775Y-80280006D01*
X110416140Y-80237441D01*
X110369965Y-80199546D01*
X110267524Y-80115476D01*
X110183454Y-80013035D01*
X110145559Y-79966860D01*
X110102994Y-79887225D01*
X110054932Y-79797309D01*
X110054931Y-79797306D01*
X109999122Y-79613329D01*
X109980278Y-79422000D01*
X109999122Y-79230671D01*
X110054931Y-79046694D01*
X110054932Y-79046691D01*
X110102994Y-78956775D01*
X110145559Y-78877140D01*
X110183454Y-78830965D01*
X110267524Y-78728524D01*
X110369965Y-78644454D01*
X110416140Y-78606559D01*
X110495775Y-78563994D01*
X110585691Y-78515932D01*
X110585694Y-78515931D01*
X110769671Y-78460122D01*
X110865261Y-78450707D01*
X110913055Y-78446000D01*
X112206945Y-78446000D01*
X112254739Y-78450707D01*
G37*
G36*
X228278739Y-78450707D02*
G01*
X228374329Y-78460122D01*
X228558306Y-78515931D01*
X228558309Y-78515932D01*
X228648225Y-78563994D01*
X228727860Y-78606559D01*
X228774035Y-78644454D01*
X228876476Y-78728524D01*
X228960546Y-78830965D01*
X228998441Y-78877140D01*
X229041006Y-78956775D01*
X229089068Y-79046691D01*
X229089069Y-79046694D01*
X229144878Y-79230671D01*
X229163722Y-79422000D01*
X229144878Y-79613329D01*
X229089069Y-79797306D01*
X229089068Y-79797309D01*
X229041006Y-79887225D01*
X228998441Y-79966860D01*
X228960546Y-80013035D01*
X228876476Y-80115476D01*
X228774035Y-80199546D01*
X228727860Y-80237441D01*
X228648225Y-80280006D01*
X228558309Y-80328068D01*
X228558306Y-80328069D01*
X228374329Y-80383878D01*
X228278739Y-80393293D01*
X228230945Y-80398000D01*
X226937055Y-80398000D01*
X226889261Y-80393293D01*
X226793671Y-80383878D01*
X226609694Y-80328069D01*
X226609691Y-80328068D01*
X226519775Y-80280006D01*
X226440140Y-80237441D01*
X226393965Y-80199546D01*
X226291524Y-80115476D01*
X226207454Y-80013035D01*
X226169559Y-79966860D01*
X226126994Y-79887225D01*
X226078932Y-79797309D01*
X226078931Y-79797306D01*
X226023122Y-79613329D01*
X226004278Y-79422000D01*
X226023122Y-79230671D01*
X226078931Y-79046694D01*
X226078932Y-79046691D01*
X226126994Y-78956775D01*
X226169559Y-78877140D01*
X226207454Y-78830965D01*
X226291524Y-78728524D01*
X226393965Y-78644454D01*
X226440140Y-78606559D01*
X226519775Y-78563994D01*
X226609691Y-78515932D01*
X226609694Y-78515931D01*
X226793671Y-78460122D01*
X226889261Y-78450707D01*
X226937055Y-78446000D01*
X228230945Y-78446000D01*
X228278739Y-78450707D01*
G37*
G36*
X240778739Y-78450707D02*
G01*
X240874329Y-78460122D01*
X241058306Y-78515931D01*
X241058309Y-78515932D01*
X241148225Y-78563994D01*
X241227860Y-78606559D01*
X241274035Y-78644454D01*
X241376476Y-78728524D01*
X241460546Y-78830965D01*
X241498441Y-78877140D01*
X241541006Y-78956775D01*
X241589068Y-79046691D01*
X241589069Y-79046694D01*
X241644878Y-79230671D01*
X241663722Y-79422000D01*
X241644878Y-79613329D01*
X241589069Y-79797306D01*
X241589068Y-79797309D01*
X241541006Y-79887225D01*
X241498441Y-79966860D01*
X241460546Y-80013035D01*
X241376476Y-80115476D01*
X241274035Y-80199546D01*
X241227860Y-80237441D01*
X241148225Y-80280006D01*
X241058309Y-80328068D01*
X241058306Y-80328069D01*
X240874329Y-80383878D01*
X240778739Y-80393293D01*
X240730945Y-80398000D01*
X239437055Y-80398000D01*
X239389261Y-80393293D01*
X239293671Y-80383878D01*
X239109694Y-80328069D01*
X239109691Y-80328068D01*
X239019775Y-80280006D01*
X238940140Y-80237441D01*
X238893965Y-80199546D01*
X238791524Y-80115476D01*
X238707454Y-80013035D01*
X238669559Y-79966860D01*
X238626994Y-79887225D01*
X238578932Y-79797309D01*
X238578931Y-79797306D01*
X238523122Y-79613329D01*
X238504278Y-79422000D01*
X238523122Y-79230671D01*
X238578931Y-79046694D01*
X238578932Y-79046691D01*
X238626994Y-78956775D01*
X238669559Y-78877140D01*
X238707454Y-78830965D01*
X238791524Y-78728524D01*
X238893965Y-78644454D01*
X238940140Y-78606559D01*
X239019775Y-78563994D01*
X239109691Y-78515932D01*
X239109694Y-78515931D01*
X239293671Y-78460122D01*
X239389261Y-78450707D01*
X239437055Y-78446000D01*
X240730945Y-78446000D01*
X240778739Y-78450707D01*
G37*
G36*
X79434739Y-78450707D02*
G01*
X79530329Y-78460122D01*
X79714306Y-78515931D01*
X79714309Y-78515932D01*
X79804225Y-78563994D01*
X79883860Y-78606559D01*
X79930035Y-78644454D01*
X80032476Y-78728524D01*
X80116546Y-78830965D01*
X80154441Y-78877140D01*
X80197006Y-78956775D01*
X80245068Y-79046691D01*
X80245069Y-79046694D01*
X80300878Y-79230671D01*
X80319722Y-79422000D01*
X80300878Y-79613329D01*
X80245069Y-79797306D01*
X80245068Y-79797309D01*
X80197006Y-79887225D01*
X80154441Y-79966860D01*
X80116546Y-80013035D01*
X80032476Y-80115476D01*
X79930035Y-80199546D01*
X79883860Y-80237441D01*
X79804225Y-80280006D01*
X79714309Y-80328068D01*
X79714306Y-80328069D01*
X79530329Y-80383878D01*
X79434739Y-80393293D01*
X79386945Y-80398000D01*
X78093055Y-80398000D01*
X78045261Y-80393293D01*
X77949671Y-80383878D01*
X77765694Y-80328069D01*
X77765691Y-80328068D01*
X77675775Y-80280006D01*
X77596140Y-80237441D01*
X77549965Y-80199546D01*
X77447524Y-80115476D01*
X77363454Y-80013035D01*
X77325559Y-79966860D01*
X77282994Y-79887225D01*
X77234932Y-79797309D01*
X77234931Y-79797306D01*
X77179122Y-79613329D01*
X77160278Y-79422000D01*
X77179122Y-79230671D01*
X77234931Y-79046694D01*
X77234932Y-79046691D01*
X77282994Y-78956775D01*
X77325559Y-78877140D01*
X77363454Y-78830965D01*
X77447524Y-78728524D01*
X77549965Y-78644454D01*
X77596140Y-78606559D01*
X77675775Y-78563994D01*
X77765691Y-78515932D01*
X77765694Y-78515931D01*
X77949671Y-78460122D01*
X78045261Y-78450707D01*
X78093055Y-78446000D01*
X79386945Y-78446000D01*
X79434739Y-78450707D01*
G37*
G36*
X91934739Y-78450707D02*
G01*
X92030329Y-78460122D01*
X92214306Y-78515931D01*
X92214309Y-78515932D01*
X92304225Y-78563994D01*
X92383860Y-78606559D01*
X92430035Y-78644454D01*
X92532476Y-78728524D01*
X92616546Y-78830965D01*
X92654441Y-78877140D01*
X92697006Y-78956775D01*
X92745068Y-79046691D01*
X92745069Y-79046694D01*
X92800878Y-79230671D01*
X92819722Y-79422000D01*
X92800878Y-79613329D01*
X92745069Y-79797306D01*
X92745068Y-79797309D01*
X92697006Y-79887225D01*
X92654441Y-79966860D01*
X92616546Y-80013035D01*
X92532476Y-80115476D01*
X92430035Y-80199546D01*
X92383860Y-80237441D01*
X92304225Y-80280006D01*
X92214309Y-80328068D01*
X92214306Y-80328069D01*
X92030329Y-80383878D01*
X91934739Y-80393293D01*
X91886945Y-80398000D01*
X90593055Y-80398000D01*
X90545261Y-80393293D01*
X90449671Y-80383878D01*
X90265694Y-80328069D01*
X90265691Y-80328068D01*
X90175775Y-80280006D01*
X90096140Y-80237441D01*
X90049965Y-80199546D01*
X89947524Y-80115476D01*
X89863454Y-80013035D01*
X89825559Y-79966860D01*
X89782994Y-79887225D01*
X89734932Y-79797309D01*
X89734931Y-79797306D01*
X89679122Y-79613329D01*
X89660278Y-79422000D01*
X89679122Y-79230671D01*
X89734931Y-79046694D01*
X89734932Y-79046691D01*
X89782994Y-78956775D01*
X89825559Y-78877140D01*
X89863454Y-78830965D01*
X89947524Y-78728524D01*
X90049965Y-78644454D01*
X90096140Y-78606559D01*
X90175775Y-78563994D01*
X90265691Y-78515932D01*
X90265694Y-78515931D01*
X90449671Y-78460122D01*
X90545261Y-78450707D01*
X90593055Y-78446000D01*
X91886945Y-78446000D01*
X91934739Y-78450707D01*
G37*
G36*
X51294739Y-78450707D02*
G01*
X51390329Y-78460122D01*
X51574306Y-78515931D01*
X51574309Y-78515932D01*
X51664225Y-78563994D01*
X51743860Y-78606559D01*
X51790035Y-78644454D01*
X51892476Y-78728524D01*
X51976546Y-78830965D01*
X52014441Y-78877140D01*
X52057006Y-78956775D01*
X52105068Y-79046691D01*
X52105069Y-79046694D01*
X52160878Y-79230671D01*
X52179722Y-79422000D01*
X52160878Y-79613329D01*
X52105069Y-79797306D01*
X52105068Y-79797309D01*
X52057006Y-79887225D01*
X52014441Y-79966860D01*
X51976546Y-80013035D01*
X51892476Y-80115476D01*
X51790035Y-80199546D01*
X51743860Y-80237441D01*
X51664225Y-80280006D01*
X51574309Y-80328068D01*
X51574306Y-80328069D01*
X51390329Y-80383878D01*
X51294739Y-80393293D01*
X51246945Y-80398000D01*
X49953055Y-80398000D01*
X49905261Y-80393293D01*
X49809671Y-80383878D01*
X49625694Y-80328069D01*
X49625691Y-80328068D01*
X49535775Y-80280006D01*
X49456140Y-80237441D01*
X49409965Y-80199546D01*
X49307524Y-80115476D01*
X49223454Y-80013035D01*
X49185559Y-79966860D01*
X49142994Y-79887225D01*
X49094932Y-79797309D01*
X49094931Y-79797306D01*
X49039122Y-79613329D01*
X49020278Y-79422000D01*
X49039122Y-79230671D01*
X49094931Y-79046694D01*
X49094932Y-79046691D01*
X49142994Y-78956775D01*
X49185559Y-78877140D01*
X49223454Y-78830965D01*
X49307524Y-78728524D01*
X49409965Y-78644454D01*
X49456140Y-78606559D01*
X49535775Y-78563994D01*
X49625691Y-78515932D01*
X49625694Y-78515931D01*
X49809671Y-78460122D01*
X49905261Y-78450707D01*
X49953055Y-78446000D01*
X51246945Y-78446000D01*
X51294739Y-78450707D01*
G37*
G36*
X140394739Y-78450707D02*
G01*
X140490329Y-78460122D01*
X140674306Y-78515931D01*
X140674309Y-78515932D01*
X140764225Y-78563994D01*
X140843860Y-78606559D01*
X140890035Y-78644454D01*
X140992476Y-78728524D01*
X141076546Y-78830965D01*
X141114441Y-78877140D01*
X141157006Y-78956775D01*
X141205068Y-79046691D01*
X141205069Y-79046694D01*
X141260878Y-79230671D01*
X141279722Y-79422000D01*
X141260878Y-79613329D01*
X141205069Y-79797306D01*
X141205068Y-79797309D01*
X141157006Y-79887225D01*
X141114441Y-79966860D01*
X141076546Y-80013035D01*
X140992476Y-80115476D01*
X140890035Y-80199546D01*
X140843860Y-80237441D01*
X140764225Y-80280006D01*
X140674309Y-80328068D01*
X140674306Y-80328069D01*
X140490329Y-80383878D01*
X140394739Y-80393293D01*
X140346945Y-80398000D01*
X139053055Y-80398000D01*
X139005261Y-80393293D01*
X138909671Y-80383878D01*
X138725694Y-80328069D01*
X138725691Y-80328068D01*
X138635775Y-80280006D01*
X138556140Y-80237441D01*
X138509965Y-80199546D01*
X138407524Y-80115476D01*
X138323454Y-80013035D01*
X138285559Y-79966860D01*
X138242994Y-79887225D01*
X138194932Y-79797309D01*
X138194931Y-79797306D01*
X138139122Y-79613329D01*
X138120278Y-79422000D01*
X138139122Y-79230671D01*
X138194931Y-79046694D01*
X138194932Y-79046691D01*
X138242994Y-78956775D01*
X138285559Y-78877140D01*
X138323454Y-78830965D01*
X138407524Y-78728524D01*
X138509965Y-78644454D01*
X138556140Y-78606559D01*
X138635775Y-78563994D01*
X138725691Y-78515932D01*
X138725694Y-78515931D01*
X138909671Y-78460122D01*
X139005261Y-78450707D01*
X139053055Y-78446000D01*
X140346945Y-78446000D01*
X140394739Y-78450707D01*
G37*
G36*
X217918739Y-78450707D02*
G01*
X218014329Y-78460122D01*
X218198306Y-78515931D01*
X218198309Y-78515932D01*
X218288225Y-78563994D01*
X218367860Y-78606559D01*
X218414035Y-78644454D01*
X218516476Y-78728524D01*
X218600546Y-78830965D01*
X218638441Y-78877140D01*
X218681006Y-78956775D01*
X218729068Y-79046691D01*
X218729069Y-79046694D01*
X218784878Y-79230671D01*
X218803722Y-79422000D01*
X218784878Y-79613329D01*
X218729069Y-79797306D01*
X218729068Y-79797309D01*
X218681006Y-79887225D01*
X218638441Y-79966860D01*
X218600546Y-80013035D01*
X218516476Y-80115476D01*
X218414035Y-80199546D01*
X218367860Y-80237441D01*
X218288225Y-80280006D01*
X218198309Y-80328068D01*
X218198306Y-80328069D01*
X218014329Y-80383878D01*
X217918739Y-80393293D01*
X217870945Y-80398000D01*
X216577055Y-80398000D01*
X216529261Y-80393293D01*
X216433671Y-80383878D01*
X216249694Y-80328069D01*
X216249691Y-80328068D01*
X216159775Y-80280006D01*
X216080140Y-80237441D01*
X216033965Y-80199546D01*
X215931524Y-80115476D01*
X215847454Y-80013035D01*
X215809559Y-79966860D01*
X215766994Y-79887225D01*
X215718932Y-79797309D01*
X215718931Y-79797306D01*
X215663122Y-79613329D01*
X215644278Y-79422000D01*
X215663122Y-79230671D01*
X215718931Y-79046694D01*
X215718932Y-79046691D01*
X215766994Y-78956775D01*
X215809559Y-78877140D01*
X215847454Y-78830965D01*
X215931524Y-78728524D01*
X216033965Y-78644454D01*
X216080140Y-78606559D01*
X216159775Y-78563994D01*
X216249691Y-78515932D01*
X216249694Y-78515931D01*
X216433671Y-78460122D01*
X216529261Y-78450707D01*
X216577055Y-78446000D01*
X217870945Y-78446000D01*
X217918739Y-78450707D01*
G37*
G36*
X132574739Y-78450707D02*
G01*
X132670329Y-78460122D01*
X132854306Y-78515931D01*
X132854309Y-78515932D01*
X132944225Y-78563994D01*
X133023860Y-78606559D01*
X133070035Y-78644454D01*
X133172476Y-78728524D01*
X133256546Y-78830965D01*
X133294441Y-78877140D01*
X133337006Y-78956775D01*
X133385068Y-79046691D01*
X133385069Y-79046694D01*
X133440878Y-79230671D01*
X133459722Y-79422000D01*
X133440878Y-79613329D01*
X133385069Y-79797306D01*
X133385068Y-79797309D01*
X133337006Y-79887225D01*
X133294441Y-79966860D01*
X133256546Y-80013035D01*
X133172476Y-80115476D01*
X133070035Y-80199546D01*
X133023860Y-80237441D01*
X132944225Y-80280006D01*
X132854309Y-80328068D01*
X132854306Y-80328069D01*
X132670329Y-80383878D01*
X132574739Y-80393293D01*
X132526945Y-80398000D01*
X131233055Y-80398000D01*
X131185261Y-80393293D01*
X131089671Y-80383878D01*
X130905694Y-80328069D01*
X130905691Y-80328068D01*
X130815775Y-80280006D01*
X130736140Y-80237441D01*
X130689965Y-80199546D01*
X130587524Y-80115476D01*
X130503454Y-80013035D01*
X130465559Y-79966860D01*
X130422994Y-79887225D01*
X130374932Y-79797309D01*
X130374931Y-79797306D01*
X130319122Y-79613329D01*
X130300278Y-79422000D01*
X130319122Y-79230671D01*
X130374931Y-79046694D01*
X130374932Y-79046691D01*
X130422994Y-78956775D01*
X130465559Y-78877140D01*
X130503454Y-78830965D01*
X130587524Y-78728524D01*
X130689965Y-78644454D01*
X130736140Y-78606559D01*
X130815775Y-78563994D01*
X130905691Y-78515932D01*
X130905694Y-78515931D01*
X131089671Y-78460122D01*
X131185261Y-78450707D01*
X131233055Y-78446000D01*
X132526945Y-78446000D01*
X132574739Y-78450707D01*
G37*
G36*
X120074739Y-78450707D02*
G01*
X120170329Y-78460122D01*
X120354306Y-78515931D01*
X120354309Y-78515932D01*
X120444225Y-78563994D01*
X120523860Y-78606559D01*
X120570035Y-78644454D01*
X120672476Y-78728524D01*
X120756546Y-78830965D01*
X120794441Y-78877140D01*
X120837006Y-78956775D01*
X120885068Y-79046691D01*
X120885069Y-79046694D01*
X120940878Y-79230671D01*
X120959722Y-79422000D01*
X120940878Y-79613329D01*
X120885069Y-79797306D01*
X120885068Y-79797309D01*
X120837006Y-79887225D01*
X120794441Y-79966860D01*
X120756546Y-80013035D01*
X120672476Y-80115476D01*
X120570035Y-80199546D01*
X120523860Y-80237441D01*
X120444225Y-80280006D01*
X120354309Y-80328068D01*
X120354306Y-80328069D01*
X120170329Y-80383878D01*
X120074739Y-80393293D01*
X120026945Y-80398000D01*
X118733055Y-80398000D01*
X118685261Y-80393293D01*
X118589671Y-80383878D01*
X118405694Y-80328069D01*
X118405691Y-80328068D01*
X118315775Y-80280006D01*
X118236140Y-80237441D01*
X118189965Y-80199546D01*
X118087524Y-80115476D01*
X118003454Y-80013035D01*
X117965559Y-79966860D01*
X117922994Y-79887225D01*
X117874932Y-79797309D01*
X117874931Y-79797306D01*
X117819122Y-79613329D01*
X117800278Y-79422000D01*
X117819122Y-79230671D01*
X117874931Y-79046694D01*
X117874932Y-79046691D01*
X117922994Y-78956775D01*
X117965559Y-78877140D01*
X118003454Y-78830965D01*
X118087524Y-78728524D01*
X118189965Y-78644454D01*
X118236140Y-78606559D01*
X118315775Y-78563994D01*
X118405691Y-78515932D01*
X118405694Y-78515931D01*
X118589671Y-78460122D01*
X118685261Y-78450707D01*
X118733055Y-78446000D01*
X120026945Y-78446000D01*
X120074739Y-78450707D01*
G37*
G36*
X263130739Y-78450707D02*
G01*
X263226329Y-78460122D01*
X263410306Y-78515931D01*
X263410309Y-78515932D01*
X263500225Y-78563994D01*
X263579860Y-78606559D01*
X263626035Y-78644454D01*
X263728476Y-78728524D01*
X263812546Y-78830965D01*
X263850441Y-78877140D01*
X263893006Y-78956775D01*
X263941068Y-79046691D01*
X263941069Y-79046694D01*
X263996878Y-79230671D01*
X264015722Y-79422000D01*
X263996878Y-79613329D01*
X263941069Y-79797306D01*
X263941068Y-79797309D01*
X263893006Y-79887225D01*
X263850441Y-79966860D01*
X263812546Y-80013035D01*
X263728476Y-80115476D01*
X263626035Y-80199546D01*
X263579860Y-80237441D01*
X263500225Y-80280006D01*
X263410309Y-80328068D01*
X263410306Y-80328069D01*
X263226329Y-80383878D01*
X263130739Y-80393293D01*
X263082945Y-80398000D01*
X261789055Y-80398000D01*
X261741261Y-80393293D01*
X261645671Y-80383878D01*
X261461694Y-80328069D01*
X261461691Y-80328068D01*
X261371775Y-80280006D01*
X261292140Y-80237441D01*
X261245965Y-80199546D01*
X261143524Y-80115476D01*
X261059454Y-80013035D01*
X261021559Y-79966860D01*
X260978994Y-79887225D01*
X260930932Y-79797309D01*
X260930931Y-79797306D01*
X260875122Y-79613329D01*
X260856278Y-79422000D01*
X260875122Y-79230671D01*
X260930931Y-79046694D01*
X260930932Y-79046691D01*
X260978994Y-78956775D01*
X261021559Y-78877140D01*
X261059454Y-78830965D01*
X261143524Y-78728524D01*
X261245965Y-78644454D01*
X261292140Y-78606559D01*
X261371775Y-78563994D01*
X261461691Y-78515932D01*
X261461694Y-78515931D01*
X261645671Y-78460122D01*
X261741261Y-78450707D01*
X261789055Y-78446000D01*
X263082945Y-78446000D01*
X263130739Y-78450707D01*
G37*
G36*
X250630739Y-78450707D02*
G01*
X250726329Y-78460122D01*
X250910306Y-78515931D01*
X250910309Y-78515932D01*
X251000225Y-78563994D01*
X251079860Y-78606559D01*
X251126035Y-78644454D01*
X251228476Y-78728524D01*
X251312546Y-78830965D01*
X251350441Y-78877140D01*
X251393006Y-78956775D01*
X251441068Y-79046691D01*
X251441069Y-79046694D01*
X251496878Y-79230671D01*
X251515722Y-79422000D01*
X251496878Y-79613329D01*
X251441069Y-79797306D01*
X251441068Y-79797309D01*
X251393006Y-79887225D01*
X251350441Y-79966860D01*
X251312546Y-80013035D01*
X251228476Y-80115476D01*
X251126035Y-80199546D01*
X251079860Y-80237441D01*
X251000225Y-80280006D01*
X250910309Y-80328068D01*
X250910306Y-80328069D01*
X250726329Y-80383878D01*
X250630739Y-80393293D01*
X250582945Y-80398000D01*
X249289055Y-80398000D01*
X249241261Y-80393293D01*
X249145671Y-80383878D01*
X248961694Y-80328069D01*
X248961691Y-80328068D01*
X248871775Y-80280006D01*
X248792140Y-80237441D01*
X248745965Y-80199546D01*
X248643524Y-80115476D01*
X248559454Y-80013035D01*
X248521559Y-79966860D01*
X248478994Y-79887225D01*
X248430932Y-79797309D01*
X248430931Y-79797306D01*
X248375122Y-79613329D01*
X248356278Y-79422000D01*
X248375122Y-79230671D01*
X248430931Y-79046694D01*
X248430932Y-79046691D01*
X248478994Y-78956775D01*
X248521559Y-78877140D01*
X248559454Y-78830965D01*
X248643524Y-78728524D01*
X248745965Y-78644454D01*
X248792140Y-78606559D01*
X248871775Y-78563994D01*
X248961691Y-78515932D01*
X248961694Y-78515931D01*
X249145671Y-78460122D01*
X249241261Y-78450707D01*
X249289055Y-78446000D01*
X250582945Y-78446000D01*
X250630739Y-78450707D01*
G37*
G36*
X71614739Y-78450707D02*
G01*
X71710329Y-78460122D01*
X71894306Y-78515931D01*
X71894309Y-78515932D01*
X71984225Y-78563994D01*
X72063860Y-78606559D01*
X72110035Y-78644454D01*
X72212476Y-78728524D01*
X72296546Y-78830965D01*
X72334441Y-78877140D01*
X72377006Y-78956775D01*
X72425068Y-79046691D01*
X72425069Y-79046694D01*
X72480878Y-79230671D01*
X72499722Y-79422000D01*
X72480878Y-79613329D01*
X72425069Y-79797306D01*
X72425068Y-79797309D01*
X72377006Y-79887225D01*
X72334441Y-79966860D01*
X72296546Y-80013035D01*
X72212476Y-80115476D01*
X72110035Y-80199546D01*
X72063860Y-80237441D01*
X71984225Y-80280006D01*
X71894309Y-80328068D01*
X71894306Y-80328069D01*
X71710329Y-80383878D01*
X71614739Y-80393293D01*
X71566945Y-80398000D01*
X70273055Y-80398000D01*
X70225261Y-80393293D01*
X70129671Y-80383878D01*
X69945694Y-80328069D01*
X69945691Y-80328068D01*
X69855775Y-80280006D01*
X69776140Y-80237441D01*
X69729965Y-80199546D01*
X69627524Y-80115476D01*
X69543454Y-80013035D01*
X69505559Y-79966860D01*
X69462994Y-79887225D01*
X69414932Y-79797309D01*
X69414931Y-79797306D01*
X69359122Y-79613329D01*
X69340278Y-79422000D01*
X69359122Y-79230671D01*
X69414931Y-79046694D01*
X69414932Y-79046691D01*
X69462994Y-78956775D01*
X69505559Y-78877140D01*
X69543454Y-78830965D01*
X69627524Y-78728524D01*
X69729965Y-78644454D01*
X69776140Y-78606559D01*
X69855775Y-78563994D01*
X69945691Y-78515932D01*
X69945694Y-78515931D01*
X70129671Y-78460122D01*
X70225261Y-78450707D01*
X70273055Y-78446000D01*
X71566945Y-78446000D01*
X71614739Y-78450707D01*
G37*
G36*
X59114739Y-78450707D02*
G01*
X59210329Y-78460122D01*
X59394306Y-78515931D01*
X59394309Y-78515932D01*
X59484225Y-78563994D01*
X59563860Y-78606559D01*
X59610035Y-78644454D01*
X59712476Y-78728524D01*
X59796546Y-78830965D01*
X59834441Y-78877140D01*
X59877006Y-78956775D01*
X59925068Y-79046691D01*
X59925069Y-79046694D01*
X59980878Y-79230671D01*
X59999722Y-79422000D01*
X59980878Y-79613329D01*
X59925069Y-79797306D01*
X59925068Y-79797309D01*
X59877006Y-79887225D01*
X59834441Y-79966860D01*
X59796546Y-80013035D01*
X59712476Y-80115476D01*
X59610035Y-80199546D01*
X59563860Y-80237441D01*
X59484225Y-80280006D01*
X59394309Y-80328068D01*
X59394306Y-80328069D01*
X59210329Y-80383878D01*
X59114739Y-80393293D01*
X59066945Y-80398000D01*
X57773055Y-80398000D01*
X57725261Y-80393293D01*
X57629671Y-80383878D01*
X57445694Y-80328069D01*
X57445691Y-80328068D01*
X57355775Y-80280006D01*
X57276140Y-80237441D01*
X57229965Y-80199546D01*
X57127524Y-80115476D01*
X57043454Y-80013035D01*
X57005559Y-79966860D01*
X56962994Y-79887225D01*
X56914932Y-79797309D01*
X56914931Y-79797306D01*
X56859122Y-79613329D01*
X56840278Y-79422000D01*
X56859122Y-79230671D01*
X56914931Y-79046694D01*
X56914932Y-79046691D01*
X56962994Y-78956775D01*
X57005559Y-78877140D01*
X57043454Y-78830965D01*
X57127524Y-78728524D01*
X57229965Y-78644454D01*
X57276140Y-78606559D01*
X57355775Y-78563994D01*
X57445691Y-78515932D01*
X57445694Y-78515931D01*
X57629671Y-78460122D01*
X57725261Y-78450707D01*
X57773055Y-78446000D01*
X59066945Y-78446000D01*
X59114739Y-78450707D01*
G37*
G36*
X152894739Y-78450707D02*
G01*
X152990329Y-78460122D01*
X153174306Y-78515931D01*
X153174309Y-78515932D01*
X153264225Y-78563994D01*
X153343860Y-78606559D01*
X153390035Y-78644454D01*
X153492476Y-78728524D01*
X153576546Y-78830965D01*
X153614441Y-78877140D01*
X153657006Y-78956775D01*
X153705068Y-79046691D01*
X153705069Y-79046694D01*
X153760878Y-79230671D01*
X153779722Y-79422000D01*
X153760878Y-79613329D01*
X153705069Y-79797306D01*
X153705068Y-79797309D01*
X153657006Y-79887225D01*
X153614441Y-79966860D01*
X153576546Y-80013035D01*
X153492476Y-80115476D01*
X153390035Y-80199546D01*
X153343860Y-80237441D01*
X153264225Y-80280006D01*
X153174309Y-80328068D01*
X153174306Y-80328069D01*
X152990329Y-80383878D01*
X152894739Y-80393293D01*
X152846945Y-80398000D01*
X151553055Y-80398000D01*
X151505261Y-80393293D01*
X151409671Y-80383878D01*
X151225694Y-80328069D01*
X151225691Y-80328068D01*
X151135775Y-80280006D01*
X151056140Y-80237441D01*
X151009965Y-80199546D01*
X150907524Y-80115476D01*
X150823454Y-80013035D01*
X150785559Y-79966860D01*
X150742994Y-79887225D01*
X150694932Y-79797309D01*
X150694931Y-79797306D01*
X150639122Y-79613329D01*
X150620278Y-79422000D01*
X150639122Y-79230671D01*
X150694931Y-79046694D01*
X150694932Y-79046691D01*
X150742994Y-78956775D01*
X150785559Y-78877140D01*
X150823454Y-78830965D01*
X150907524Y-78728524D01*
X151009965Y-78644454D01*
X151056140Y-78606559D01*
X151135775Y-78563994D01*
X151225691Y-78515932D01*
X151225694Y-78515931D01*
X151409671Y-78460122D01*
X151505261Y-78450707D01*
X151553055Y-78446000D01*
X152846945Y-78446000D01*
X152894739Y-78450707D01*
G37*
G36*
X228278739Y-73450707D02*
G01*
X228374329Y-73460122D01*
X228558306Y-73515931D01*
X228558309Y-73515932D01*
X228648225Y-73563994D01*
X228727860Y-73606559D01*
X228774035Y-73644454D01*
X228876476Y-73728524D01*
X228960546Y-73830965D01*
X228998441Y-73877140D01*
X229041006Y-73956775D01*
X229089068Y-74046691D01*
X229089069Y-74046694D01*
X229144878Y-74230671D01*
X229163722Y-74422000D01*
X229144878Y-74613329D01*
X229089069Y-74797306D01*
X229089068Y-74797309D01*
X229041006Y-74887225D01*
X228998441Y-74966860D01*
X228960546Y-75013035D01*
X228876476Y-75115476D01*
X228774035Y-75199546D01*
X228727860Y-75237441D01*
X228648225Y-75280006D01*
X228558309Y-75328068D01*
X228558306Y-75328069D01*
X228374329Y-75383878D01*
X228278739Y-75393293D01*
X228230945Y-75398000D01*
X226937055Y-75398000D01*
X226889261Y-75393293D01*
X226793671Y-75383878D01*
X226609694Y-75328069D01*
X226609691Y-75328068D01*
X226519775Y-75280006D01*
X226440140Y-75237441D01*
X226393965Y-75199546D01*
X226291524Y-75115476D01*
X226207454Y-75013035D01*
X226169559Y-74966860D01*
X226126994Y-74887225D01*
X226078932Y-74797309D01*
X226078931Y-74797306D01*
X226023122Y-74613329D01*
X226004278Y-74422000D01*
X226023122Y-74230671D01*
X226078931Y-74046694D01*
X226078932Y-74046691D01*
X226126994Y-73956775D01*
X226169559Y-73877140D01*
X226207454Y-73830965D01*
X226291524Y-73728524D01*
X226393965Y-73644454D01*
X226440140Y-73606559D01*
X226519775Y-73563994D01*
X226609691Y-73515932D01*
X226609694Y-73515931D01*
X226793671Y-73460122D01*
X226889261Y-73450707D01*
X226937055Y-73446000D01*
X228230945Y-73446000D01*
X228278739Y-73450707D01*
G37*
G36*
X263130739Y-73450707D02*
G01*
X263226329Y-73460122D01*
X263410306Y-73515931D01*
X263410309Y-73515932D01*
X263500225Y-73563994D01*
X263579860Y-73606559D01*
X263626035Y-73644454D01*
X263728476Y-73728524D01*
X263812546Y-73830965D01*
X263850441Y-73877140D01*
X263893006Y-73956775D01*
X263941068Y-74046691D01*
X263941069Y-74046694D01*
X263996878Y-74230671D01*
X264015722Y-74422000D01*
X263996878Y-74613329D01*
X263941069Y-74797306D01*
X263941068Y-74797309D01*
X263893006Y-74887225D01*
X263850441Y-74966860D01*
X263812546Y-75013035D01*
X263728476Y-75115476D01*
X263626035Y-75199546D01*
X263579860Y-75237441D01*
X263500225Y-75280006D01*
X263410309Y-75328068D01*
X263410306Y-75328069D01*
X263226329Y-75383878D01*
X263130739Y-75393293D01*
X263082945Y-75398000D01*
X261789055Y-75398000D01*
X261741261Y-75393293D01*
X261645671Y-75383878D01*
X261461694Y-75328069D01*
X261461691Y-75328068D01*
X261371775Y-75280006D01*
X261292140Y-75237441D01*
X261245965Y-75199546D01*
X261143524Y-75115476D01*
X261059454Y-75013035D01*
X261021559Y-74966860D01*
X260978994Y-74887225D01*
X260930932Y-74797309D01*
X260930931Y-74797306D01*
X260875122Y-74613329D01*
X260856278Y-74422000D01*
X260875122Y-74230671D01*
X260930931Y-74046694D01*
X260930932Y-74046691D01*
X260978994Y-73956775D01*
X261021559Y-73877140D01*
X261059454Y-73830965D01*
X261143524Y-73728524D01*
X261245965Y-73644454D01*
X261292140Y-73606559D01*
X261371775Y-73563994D01*
X261461691Y-73515932D01*
X261461694Y-73515931D01*
X261645671Y-73460122D01*
X261741261Y-73450707D01*
X261789055Y-73446000D01*
X263082945Y-73446000D01*
X263130739Y-73450707D01*
G37*
G36*
X38794739Y-73450707D02*
G01*
X38890329Y-73460122D01*
X39074306Y-73515931D01*
X39074309Y-73515932D01*
X39164225Y-73563994D01*
X39243860Y-73606559D01*
X39290035Y-73644454D01*
X39392476Y-73728524D01*
X39476546Y-73830965D01*
X39514441Y-73877140D01*
X39557006Y-73956775D01*
X39605068Y-74046691D01*
X39605069Y-74046694D01*
X39660878Y-74230671D01*
X39679722Y-74422000D01*
X39660878Y-74613329D01*
X39605069Y-74797306D01*
X39605068Y-74797309D01*
X39557006Y-74887225D01*
X39514441Y-74966860D01*
X39476546Y-75013035D01*
X39392476Y-75115476D01*
X39290035Y-75199546D01*
X39243860Y-75237441D01*
X39164225Y-75280006D01*
X39074309Y-75328068D01*
X39074306Y-75328069D01*
X38890329Y-75383878D01*
X38794739Y-75393293D01*
X38746945Y-75398000D01*
X37453055Y-75398000D01*
X37405261Y-75393293D01*
X37309671Y-75383878D01*
X37125694Y-75328069D01*
X37125691Y-75328068D01*
X37035775Y-75280006D01*
X36956140Y-75237441D01*
X36909965Y-75199546D01*
X36807524Y-75115476D01*
X36723454Y-75013035D01*
X36685559Y-74966860D01*
X36642994Y-74887225D01*
X36594932Y-74797309D01*
X36594931Y-74797306D01*
X36539122Y-74613329D01*
X36520278Y-74422000D01*
X36539122Y-74230671D01*
X36594931Y-74046694D01*
X36594932Y-74046691D01*
X36642994Y-73956775D01*
X36685559Y-73877140D01*
X36723454Y-73830965D01*
X36807524Y-73728524D01*
X36909965Y-73644454D01*
X36956140Y-73606559D01*
X37035775Y-73563994D01*
X37125691Y-73515932D01*
X37125694Y-73515931D01*
X37309671Y-73460122D01*
X37405261Y-73450707D01*
X37453055Y-73446000D01*
X38746945Y-73446000D01*
X38794739Y-73450707D01*
G37*
G36*
X51294739Y-73450707D02*
G01*
X51390329Y-73460122D01*
X51574306Y-73515931D01*
X51574309Y-73515932D01*
X51664225Y-73563994D01*
X51743860Y-73606559D01*
X51790035Y-73644454D01*
X51892476Y-73728524D01*
X51976546Y-73830965D01*
X52014441Y-73877140D01*
X52057006Y-73956775D01*
X52105068Y-74046691D01*
X52105069Y-74046694D01*
X52160878Y-74230671D01*
X52179722Y-74422000D01*
X52160878Y-74613329D01*
X52105069Y-74797306D01*
X52105068Y-74797309D01*
X52057006Y-74887225D01*
X52014441Y-74966860D01*
X51976546Y-75013035D01*
X51892476Y-75115476D01*
X51790035Y-75199546D01*
X51743860Y-75237441D01*
X51664225Y-75280006D01*
X51574309Y-75328068D01*
X51574306Y-75328069D01*
X51390329Y-75383878D01*
X51294739Y-75393293D01*
X51246945Y-75398000D01*
X49953055Y-75398000D01*
X49905261Y-75393293D01*
X49809671Y-75383878D01*
X49625694Y-75328069D01*
X49625691Y-75328068D01*
X49535775Y-75280006D01*
X49456140Y-75237441D01*
X49409965Y-75199546D01*
X49307524Y-75115476D01*
X49223454Y-75013035D01*
X49185559Y-74966860D01*
X49142994Y-74887225D01*
X49094932Y-74797309D01*
X49094931Y-74797306D01*
X49039122Y-74613329D01*
X49020278Y-74422000D01*
X49039122Y-74230671D01*
X49094931Y-74046694D01*
X49094932Y-74046691D01*
X49142994Y-73956775D01*
X49185559Y-73877140D01*
X49223454Y-73830965D01*
X49307524Y-73728524D01*
X49409965Y-73644454D01*
X49456140Y-73606559D01*
X49535775Y-73563994D01*
X49625691Y-73515932D01*
X49625694Y-73515931D01*
X49809671Y-73460122D01*
X49905261Y-73450707D01*
X49953055Y-73446000D01*
X51246945Y-73446000D01*
X51294739Y-73450707D01*
G37*
G36*
X250630739Y-73450707D02*
G01*
X250726329Y-73460122D01*
X250910306Y-73515931D01*
X250910309Y-73515932D01*
X251000225Y-73563994D01*
X251079860Y-73606559D01*
X251126035Y-73644454D01*
X251228476Y-73728524D01*
X251312546Y-73830965D01*
X251350441Y-73877140D01*
X251393006Y-73956775D01*
X251441068Y-74046691D01*
X251441069Y-74046694D01*
X251496878Y-74230671D01*
X251515722Y-74422000D01*
X251496878Y-74613329D01*
X251441069Y-74797306D01*
X251441068Y-74797309D01*
X251393006Y-74887225D01*
X251350441Y-74966860D01*
X251312546Y-75013035D01*
X251228476Y-75115476D01*
X251126035Y-75199546D01*
X251079860Y-75237441D01*
X251000225Y-75280006D01*
X250910309Y-75328068D01*
X250910306Y-75328069D01*
X250726329Y-75383878D01*
X250630739Y-75393293D01*
X250582945Y-75398000D01*
X249289055Y-75398000D01*
X249241261Y-75393293D01*
X249145671Y-75383878D01*
X248961694Y-75328069D01*
X248961691Y-75328068D01*
X248871775Y-75280006D01*
X248792140Y-75237441D01*
X248745965Y-75199546D01*
X248643524Y-75115476D01*
X248559454Y-75013035D01*
X248521559Y-74966860D01*
X248478994Y-74887225D01*
X248430932Y-74797309D01*
X248430931Y-74797306D01*
X248375122Y-74613329D01*
X248356278Y-74422000D01*
X248375122Y-74230671D01*
X248430931Y-74046694D01*
X248430932Y-74046691D01*
X248478994Y-73956775D01*
X248521559Y-73877140D01*
X248559454Y-73830965D01*
X248643524Y-73728524D01*
X248745965Y-73644454D01*
X248792140Y-73606559D01*
X248871775Y-73563994D01*
X248961691Y-73515932D01*
X248961694Y-73515931D01*
X249145671Y-73460122D01*
X249241261Y-73450707D01*
X249289055Y-73446000D01*
X250582945Y-73446000D01*
X250630739Y-73450707D01*
G37*
G36*
X120074739Y-73450707D02*
G01*
X120170329Y-73460122D01*
X120354306Y-73515931D01*
X120354309Y-73515932D01*
X120444225Y-73563994D01*
X120523860Y-73606559D01*
X120570035Y-73644454D01*
X120672476Y-73728524D01*
X120756546Y-73830965D01*
X120794441Y-73877140D01*
X120837006Y-73956775D01*
X120885068Y-74046691D01*
X120885069Y-74046694D01*
X120940878Y-74230671D01*
X120959722Y-74422000D01*
X120940878Y-74613329D01*
X120885069Y-74797306D01*
X120885068Y-74797309D01*
X120837006Y-74887225D01*
X120794441Y-74966860D01*
X120756546Y-75013035D01*
X120672476Y-75115476D01*
X120570035Y-75199546D01*
X120523860Y-75237441D01*
X120444225Y-75280006D01*
X120354309Y-75328068D01*
X120354306Y-75328069D01*
X120170329Y-75383878D01*
X120074739Y-75393293D01*
X120026945Y-75398000D01*
X118733055Y-75398000D01*
X118685261Y-75393293D01*
X118589671Y-75383878D01*
X118405694Y-75328069D01*
X118405691Y-75328068D01*
X118315775Y-75280006D01*
X118236140Y-75237441D01*
X118189965Y-75199546D01*
X118087524Y-75115476D01*
X118003454Y-75013035D01*
X117965559Y-74966860D01*
X117922994Y-74887225D01*
X117874932Y-74797309D01*
X117874931Y-74797306D01*
X117819122Y-74613329D01*
X117800278Y-74422000D01*
X117819122Y-74230671D01*
X117874931Y-74046694D01*
X117874932Y-74046691D01*
X117922994Y-73956775D01*
X117965559Y-73877140D01*
X118003454Y-73830965D01*
X118087524Y-73728524D01*
X118189965Y-73644454D01*
X118236140Y-73606559D01*
X118315775Y-73563994D01*
X118405691Y-73515932D01*
X118405694Y-73515931D01*
X118589671Y-73460122D01*
X118685261Y-73450707D01*
X118733055Y-73446000D01*
X120026945Y-73446000D01*
X120074739Y-73450707D01*
G37*
G36*
X132574739Y-73450707D02*
G01*
X132670329Y-73460122D01*
X132854306Y-73515931D01*
X132854309Y-73515932D01*
X132944225Y-73563994D01*
X133023860Y-73606559D01*
X133070035Y-73644454D01*
X133172476Y-73728524D01*
X133256546Y-73830965D01*
X133294441Y-73877140D01*
X133337006Y-73956775D01*
X133385068Y-74046691D01*
X133385069Y-74046694D01*
X133440878Y-74230671D01*
X133459722Y-74422000D01*
X133440878Y-74613329D01*
X133385069Y-74797306D01*
X133385068Y-74797309D01*
X133337006Y-74887225D01*
X133294441Y-74966860D01*
X133256546Y-75013035D01*
X133172476Y-75115476D01*
X133070035Y-75199546D01*
X133023860Y-75237441D01*
X132944225Y-75280006D01*
X132854309Y-75328068D01*
X132854306Y-75328069D01*
X132670329Y-75383878D01*
X132574739Y-75393293D01*
X132526945Y-75398000D01*
X131233055Y-75398000D01*
X131185261Y-75393293D01*
X131089671Y-75383878D01*
X130905694Y-75328069D01*
X130905691Y-75328068D01*
X130815775Y-75280006D01*
X130736140Y-75237441D01*
X130689965Y-75199546D01*
X130587524Y-75115476D01*
X130503454Y-75013035D01*
X130465559Y-74966860D01*
X130422994Y-74887225D01*
X130374932Y-74797309D01*
X130374931Y-74797306D01*
X130319122Y-74613329D01*
X130300278Y-74422000D01*
X130319122Y-74230671D01*
X130374931Y-74046694D01*
X130374932Y-74046691D01*
X130422994Y-73956775D01*
X130465559Y-73877140D01*
X130503454Y-73830965D01*
X130587524Y-73728524D01*
X130689965Y-73644454D01*
X130736140Y-73606559D01*
X130815775Y-73563994D01*
X130905691Y-73515932D01*
X130905694Y-73515931D01*
X131089671Y-73460122D01*
X131185261Y-73450707D01*
X131233055Y-73446000D01*
X132526945Y-73446000D01*
X132574739Y-73450707D01*
G37*
G36*
X240778739Y-73450707D02*
G01*
X240874329Y-73460122D01*
X241058306Y-73515931D01*
X241058309Y-73515932D01*
X241148225Y-73563994D01*
X241227860Y-73606559D01*
X241274035Y-73644454D01*
X241376476Y-73728524D01*
X241460546Y-73830965D01*
X241498441Y-73877140D01*
X241541006Y-73956775D01*
X241589068Y-74046691D01*
X241589069Y-74046694D01*
X241644878Y-74230671D01*
X241663722Y-74422000D01*
X241644878Y-74613329D01*
X241589069Y-74797306D01*
X241589068Y-74797309D01*
X241541006Y-74887225D01*
X241498441Y-74966860D01*
X241460546Y-75013035D01*
X241376476Y-75115476D01*
X241274035Y-75199546D01*
X241227860Y-75237441D01*
X241148225Y-75280006D01*
X241058309Y-75328068D01*
X241058306Y-75328069D01*
X240874329Y-75383878D01*
X240778739Y-75393293D01*
X240730945Y-75398000D01*
X239437055Y-75398000D01*
X239389261Y-75393293D01*
X239293671Y-75383878D01*
X239109694Y-75328069D01*
X239109691Y-75328068D01*
X239019775Y-75280006D01*
X238940140Y-75237441D01*
X238893965Y-75199546D01*
X238791524Y-75115476D01*
X238707454Y-75013035D01*
X238669559Y-74966860D01*
X238626994Y-74887225D01*
X238578932Y-74797309D01*
X238578931Y-74797306D01*
X238523122Y-74613329D01*
X238504278Y-74422000D01*
X238523122Y-74230671D01*
X238578931Y-74046694D01*
X238578932Y-74046691D01*
X238626994Y-73956775D01*
X238669559Y-73877140D01*
X238707454Y-73830965D01*
X238791524Y-73728524D01*
X238893965Y-73644454D01*
X238940140Y-73606559D01*
X239019775Y-73563994D01*
X239109691Y-73515932D01*
X239109694Y-73515931D01*
X239293671Y-73460122D01*
X239389261Y-73450707D01*
X239437055Y-73446000D01*
X240730945Y-73446000D01*
X240778739Y-73450707D01*
G37*
G36*
X59114739Y-73450707D02*
G01*
X59210329Y-73460122D01*
X59394306Y-73515931D01*
X59394309Y-73515932D01*
X59484225Y-73563994D01*
X59563860Y-73606559D01*
X59610035Y-73644454D01*
X59712476Y-73728524D01*
X59796546Y-73830965D01*
X59834441Y-73877140D01*
X59877006Y-73956775D01*
X59925068Y-74046691D01*
X59925069Y-74046694D01*
X59980878Y-74230671D01*
X59999722Y-74422000D01*
X59980878Y-74613329D01*
X59925069Y-74797306D01*
X59925068Y-74797309D01*
X59877006Y-74887225D01*
X59834441Y-74966860D01*
X59796546Y-75013035D01*
X59712476Y-75115476D01*
X59610035Y-75199546D01*
X59563860Y-75237441D01*
X59484225Y-75280006D01*
X59394309Y-75328068D01*
X59394306Y-75328069D01*
X59210329Y-75383878D01*
X59114739Y-75393293D01*
X59066945Y-75398000D01*
X57773055Y-75398000D01*
X57725261Y-75393293D01*
X57629671Y-75383878D01*
X57445694Y-75328069D01*
X57445691Y-75328068D01*
X57355775Y-75280006D01*
X57276140Y-75237441D01*
X57229965Y-75199546D01*
X57127524Y-75115476D01*
X57043454Y-75013035D01*
X57005559Y-74966860D01*
X56962994Y-74887225D01*
X56914932Y-74797309D01*
X56914931Y-74797306D01*
X56859122Y-74613329D01*
X56840278Y-74422000D01*
X56859122Y-74230671D01*
X56914931Y-74046694D01*
X56914932Y-74046691D01*
X56962994Y-73956775D01*
X57005559Y-73877140D01*
X57043454Y-73830965D01*
X57127524Y-73728524D01*
X57229965Y-73644454D01*
X57276140Y-73606559D01*
X57355775Y-73563994D01*
X57445691Y-73515932D01*
X57445694Y-73515931D01*
X57629671Y-73460122D01*
X57725261Y-73450707D01*
X57773055Y-73446000D01*
X59066945Y-73446000D01*
X59114739Y-73450707D01*
G37*
G36*
X182558739Y-73450707D02*
G01*
X182654329Y-73460122D01*
X182838306Y-73515931D01*
X182838309Y-73515932D01*
X182928225Y-73563994D01*
X183007860Y-73606559D01*
X183054035Y-73644454D01*
X183156476Y-73728524D01*
X183240546Y-73830965D01*
X183278441Y-73877140D01*
X183321006Y-73956775D01*
X183369068Y-74046691D01*
X183369069Y-74046694D01*
X183424878Y-74230671D01*
X183443722Y-74422000D01*
X183424878Y-74613329D01*
X183369069Y-74797306D01*
X183369068Y-74797309D01*
X183321006Y-74887225D01*
X183278441Y-74966860D01*
X183240546Y-75013035D01*
X183156476Y-75115476D01*
X183054035Y-75199546D01*
X183007860Y-75237441D01*
X182928225Y-75280006D01*
X182838309Y-75328068D01*
X182838306Y-75328069D01*
X182654329Y-75383878D01*
X182558739Y-75393293D01*
X182510945Y-75398000D01*
X181217055Y-75398000D01*
X181169261Y-75393293D01*
X181073671Y-75383878D01*
X180889694Y-75328069D01*
X180889691Y-75328068D01*
X180799775Y-75280006D01*
X180720140Y-75237441D01*
X180673965Y-75199546D01*
X180571524Y-75115476D01*
X180487454Y-75013035D01*
X180449559Y-74966860D01*
X180406994Y-74887225D01*
X180358932Y-74797309D01*
X180358931Y-74797306D01*
X180303122Y-74613329D01*
X180284278Y-74422000D01*
X180303122Y-74230671D01*
X180358931Y-74046694D01*
X180358932Y-74046691D01*
X180406994Y-73956775D01*
X180449559Y-73877140D01*
X180487454Y-73830965D01*
X180571524Y-73728524D01*
X180673965Y-73644454D01*
X180720140Y-73606559D01*
X180799775Y-73563994D01*
X180889691Y-73515932D01*
X180889694Y-73515931D01*
X181073671Y-73460122D01*
X181169261Y-73450707D01*
X181217055Y-73446000D01*
X182510945Y-73446000D01*
X182558739Y-73450707D01*
G37*
G36*
X79434739Y-73450707D02*
G01*
X79530329Y-73460122D01*
X79714306Y-73515931D01*
X79714309Y-73515932D01*
X79804225Y-73563994D01*
X79883860Y-73606559D01*
X79930035Y-73644454D01*
X80032476Y-73728524D01*
X80116546Y-73830965D01*
X80154441Y-73877140D01*
X80197006Y-73956775D01*
X80245068Y-74046691D01*
X80245069Y-74046694D01*
X80300878Y-74230671D01*
X80319722Y-74422000D01*
X80300878Y-74613329D01*
X80245069Y-74797306D01*
X80245068Y-74797309D01*
X80197006Y-74887225D01*
X80154441Y-74966860D01*
X80116546Y-75013035D01*
X80032476Y-75115476D01*
X79930035Y-75199546D01*
X79883860Y-75237441D01*
X79804225Y-75280006D01*
X79714309Y-75328068D01*
X79714306Y-75328069D01*
X79530329Y-75383878D01*
X79434739Y-75393293D01*
X79386945Y-75398000D01*
X78093055Y-75398000D01*
X78045261Y-75393293D01*
X77949671Y-75383878D01*
X77765694Y-75328069D01*
X77765691Y-75328068D01*
X77675775Y-75280006D01*
X77596140Y-75237441D01*
X77549965Y-75199546D01*
X77447524Y-75115476D01*
X77363454Y-75013035D01*
X77325559Y-74966860D01*
X77282994Y-74887225D01*
X77234932Y-74797309D01*
X77234931Y-74797306D01*
X77179122Y-74613329D01*
X77160278Y-74422000D01*
X77179122Y-74230671D01*
X77234931Y-74046694D01*
X77234932Y-74046691D01*
X77282994Y-73956775D01*
X77325559Y-73877140D01*
X77363454Y-73830965D01*
X77447524Y-73728524D01*
X77549965Y-73644454D01*
X77596140Y-73606559D01*
X77675775Y-73563994D01*
X77765691Y-73515932D01*
X77765694Y-73515931D01*
X77949671Y-73460122D01*
X78045261Y-73450707D01*
X78093055Y-73446000D01*
X79386945Y-73446000D01*
X79434739Y-73450707D01*
G37*
G36*
X205418739Y-73450707D02*
G01*
X205514329Y-73460122D01*
X205698306Y-73515931D01*
X205698309Y-73515932D01*
X205788225Y-73563994D01*
X205867860Y-73606559D01*
X205914035Y-73644454D01*
X206016476Y-73728524D01*
X206100546Y-73830965D01*
X206138441Y-73877140D01*
X206181006Y-73956775D01*
X206229068Y-74046691D01*
X206229069Y-74046694D01*
X206284878Y-74230671D01*
X206303722Y-74422000D01*
X206284878Y-74613329D01*
X206229069Y-74797306D01*
X206229068Y-74797309D01*
X206181006Y-74887225D01*
X206138441Y-74966860D01*
X206100546Y-75013035D01*
X206016476Y-75115476D01*
X205914035Y-75199546D01*
X205867860Y-75237441D01*
X205788225Y-75280006D01*
X205698309Y-75328068D01*
X205698306Y-75328069D01*
X205514329Y-75383878D01*
X205418739Y-75393293D01*
X205370945Y-75398000D01*
X204077055Y-75398000D01*
X204029261Y-75393293D01*
X203933671Y-75383878D01*
X203749694Y-75328069D01*
X203749691Y-75328068D01*
X203659775Y-75280006D01*
X203580140Y-75237441D01*
X203533965Y-75199546D01*
X203431524Y-75115476D01*
X203347454Y-75013035D01*
X203309559Y-74966860D01*
X203266994Y-74887225D01*
X203218932Y-74797309D01*
X203218931Y-74797306D01*
X203163122Y-74613329D01*
X203144278Y-74422000D01*
X203163122Y-74230671D01*
X203218931Y-74046694D01*
X203218932Y-74046691D01*
X203266994Y-73956775D01*
X203309559Y-73877140D01*
X203347454Y-73830965D01*
X203431524Y-73728524D01*
X203533965Y-73644454D01*
X203580140Y-73606559D01*
X203659775Y-73563994D01*
X203749691Y-73515932D01*
X203749694Y-73515931D01*
X203933671Y-73460122D01*
X204029261Y-73450707D01*
X204077055Y-73446000D01*
X205370945Y-73446000D01*
X205418739Y-73450707D01*
G37*
G36*
X112254739Y-73450707D02*
G01*
X112350329Y-73460122D01*
X112534306Y-73515931D01*
X112534309Y-73515932D01*
X112624225Y-73563994D01*
X112703860Y-73606559D01*
X112750035Y-73644454D01*
X112852476Y-73728524D01*
X112936546Y-73830965D01*
X112974441Y-73877140D01*
X113017006Y-73956775D01*
X113065068Y-74046691D01*
X113065069Y-74046694D01*
X113120878Y-74230671D01*
X113139722Y-74422000D01*
X113120878Y-74613329D01*
X113065069Y-74797306D01*
X113065068Y-74797309D01*
X113017006Y-74887225D01*
X112974441Y-74966860D01*
X112936546Y-75013035D01*
X112852476Y-75115476D01*
X112750035Y-75199546D01*
X112703860Y-75237441D01*
X112624225Y-75280006D01*
X112534309Y-75328068D01*
X112534306Y-75328069D01*
X112350329Y-75383878D01*
X112254739Y-75393293D01*
X112206945Y-75398000D01*
X110913055Y-75398000D01*
X110865261Y-75393293D01*
X110769671Y-75383878D01*
X110585694Y-75328069D01*
X110585691Y-75328068D01*
X110495775Y-75280006D01*
X110416140Y-75237441D01*
X110369965Y-75199546D01*
X110267524Y-75115476D01*
X110183454Y-75013035D01*
X110145559Y-74966860D01*
X110102994Y-74887225D01*
X110054932Y-74797309D01*
X110054931Y-74797306D01*
X109999122Y-74613329D01*
X109980278Y-74422000D01*
X109999122Y-74230671D01*
X110054931Y-74046694D01*
X110054932Y-74046691D01*
X110102994Y-73956775D01*
X110145559Y-73877140D01*
X110183454Y-73830965D01*
X110267524Y-73728524D01*
X110369965Y-73644454D01*
X110416140Y-73606559D01*
X110495775Y-73563994D01*
X110585691Y-73515932D01*
X110585694Y-73515931D01*
X110769671Y-73460122D01*
X110865261Y-73450707D01*
X110913055Y-73446000D01*
X112206945Y-73446000D01*
X112254739Y-73450707D01*
G37*
G36*
X217918739Y-73450707D02*
G01*
X218014329Y-73460122D01*
X218198306Y-73515931D01*
X218198309Y-73515932D01*
X218288225Y-73563994D01*
X218367860Y-73606559D01*
X218414035Y-73644454D01*
X218516476Y-73728524D01*
X218600546Y-73830965D01*
X218638441Y-73877140D01*
X218681006Y-73956775D01*
X218729068Y-74046691D01*
X218729069Y-74046694D01*
X218784878Y-74230671D01*
X218803722Y-74422000D01*
X218784878Y-74613329D01*
X218729069Y-74797306D01*
X218729068Y-74797309D01*
X218681006Y-74887225D01*
X218638441Y-74966860D01*
X218600546Y-75013035D01*
X218516476Y-75115476D01*
X218414035Y-75199546D01*
X218367860Y-75237441D01*
X218288225Y-75280006D01*
X218198309Y-75328068D01*
X218198306Y-75328069D01*
X218014329Y-75383878D01*
X217918739Y-75393293D01*
X217870945Y-75398000D01*
X216577055Y-75398000D01*
X216529261Y-75393293D01*
X216433671Y-75383878D01*
X216249694Y-75328069D01*
X216249691Y-75328068D01*
X216159775Y-75280006D01*
X216080140Y-75237441D01*
X216033965Y-75199546D01*
X215931524Y-75115476D01*
X215847454Y-75013035D01*
X215809559Y-74966860D01*
X215766994Y-74887225D01*
X215718932Y-74797309D01*
X215718931Y-74797306D01*
X215663122Y-74613329D01*
X215644278Y-74422000D01*
X215663122Y-74230671D01*
X215718931Y-74046694D01*
X215718932Y-74046691D01*
X215766994Y-73956775D01*
X215809559Y-73877140D01*
X215847454Y-73830965D01*
X215931524Y-73728524D01*
X216033965Y-73644454D01*
X216080140Y-73606559D01*
X216159775Y-73563994D01*
X216249691Y-73515932D01*
X216249694Y-73515931D01*
X216433671Y-73460122D01*
X216529261Y-73450707D01*
X216577055Y-73446000D01*
X217870945Y-73446000D01*
X217918739Y-73450707D01*
G37*
G36*
X91934739Y-73450707D02*
G01*
X92030329Y-73460122D01*
X92214306Y-73515931D01*
X92214309Y-73515932D01*
X92304225Y-73563994D01*
X92383860Y-73606559D01*
X92430035Y-73644454D01*
X92532476Y-73728524D01*
X92616546Y-73830965D01*
X92654441Y-73877140D01*
X92697006Y-73956775D01*
X92745068Y-74046691D01*
X92745069Y-74046694D01*
X92800878Y-74230671D01*
X92819722Y-74422000D01*
X92800878Y-74613329D01*
X92745069Y-74797306D01*
X92745068Y-74797309D01*
X92697006Y-74887225D01*
X92654441Y-74966860D01*
X92616546Y-75013035D01*
X92532476Y-75115476D01*
X92430035Y-75199546D01*
X92383860Y-75237441D01*
X92304225Y-75280006D01*
X92214309Y-75328068D01*
X92214306Y-75328069D01*
X92030329Y-75383878D01*
X91934739Y-75393293D01*
X91886945Y-75398000D01*
X90593055Y-75398000D01*
X90545261Y-75393293D01*
X90449671Y-75383878D01*
X90265694Y-75328069D01*
X90265691Y-75328068D01*
X90175775Y-75280006D01*
X90096140Y-75237441D01*
X90049965Y-75199546D01*
X89947524Y-75115476D01*
X89863454Y-75013035D01*
X89825559Y-74966860D01*
X89782994Y-74887225D01*
X89734932Y-74797309D01*
X89734931Y-74797306D01*
X89679122Y-74613329D01*
X89660278Y-74422000D01*
X89679122Y-74230671D01*
X89734931Y-74046694D01*
X89734932Y-74046691D01*
X89782994Y-73956775D01*
X89825559Y-73877140D01*
X89863454Y-73830965D01*
X89947524Y-73728524D01*
X90049965Y-73644454D01*
X90096140Y-73606559D01*
X90175775Y-73563994D01*
X90265691Y-73515932D01*
X90265694Y-73515931D01*
X90449671Y-73460122D01*
X90545261Y-73450707D01*
X90593055Y-73446000D01*
X91886945Y-73446000D01*
X91934739Y-73450707D01*
G37*
G36*
X140394739Y-73450707D02*
G01*
X140490329Y-73460122D01*
X140674306Y-73515931D01*
X140674309Y-73515932D01*
X140764225Y-73563994D01*
X140843860Y-73606559D01*
X140890035Y-73644454D01*
X140992476Y-73728524D01*
X141076546Y-73830965D01*
X141114441Y-73877140D01*
X141157006Y-73956775D01*
X141205068Y-74046691D01*
X141205069Y-74046694D01*
X141260878Y-74230671D01*
X141279722Y-74422000D01*
X141260878Y-74613329D01*
X141205069Y-74797306D01*
X141205068Y-74797309D01*
X141157006Y-74887225D01*
X141114441Y-74966860D01*
X141076546Y-75013035D01*
X140992476Y-75115476D01*
X140890035Y-75199546D01*
X140843860Y-75237441D01*
X140764225Y-75280006D01*
X140674309Y-75328068D01*
X140674306Y-75328069D01*
X140490329Y-75383878D01*
X140394739Y-75393293D01*
X140346945Y-75398000D01*
X139053055Y-75398000D01*
X139005261Y-75393293D01*
X138909671Y-75383878D01*
X138725694Y-75328069D01*
X138725691Y-75328068D01*
X138635775Y-75280006D01*
X138556140Y-75237441D01*
X138509965Y-75199546D01*
X138407524Y-75115476D01*
X138323454Y-75013035D01*
X138285559Y-74966860D01*
X138242994Y-74887225D01*
X138194932Y-74797309D01*
X138194931Y-74797306D01*
X138139122Y-74613329D01*
X138120278Y-74422000D01*
X138139122Y-74230671D01*
X138194931Y-74046694D01*
X138194932Y-74046691D01*
X138242994Y-73956775D01*
X138285559Y-73877140D01*
X138323454Y-73830965D01*
X138407524Y-73728524D01*
X138509965Y-73644454D01*
X138556140Y-73606559D01*
X138635775Y-73563994D01*
X138725691Y-73515932D01*
X138725694Y-73515931D01*
X138909671Y-73460122D01*
X139005261Y-73450707D01*
X139053055Y-73446000D01*
X140346945Y-73446000D01*
X140394739Y-73450707D01*
G37*
G36*
X99754739Y-73450707D02*
G01*
X99850329Y-73460122D01*
X100034306Y-73515931D01*
X100034309Y-73515932D01*
X100124225Y-73563994D01*
X100203860Y-73606559D01*
X100250035Y-73644454D01*
X100352476Y-73728524D01*
X100436546Y-73830965D01*
X100474441Y-73877140D01*
X100517006Y-73956775D01*
X100565068Y-74046691D01*
X100565069Y-74046694D01*
X100620878Y-74230671D01*
X100639722Y-74422000D01*
X100620878Y-74613329D01*
X100565069Y-74797306D01*
X100565068Y-74797309D01*
X100517006Y-74887225D01*
X100474441Y-74966860D01*
X100436546Y-75013035D01*
X100352476Y-75115476D01*
X100250035Y-75199546D01*
X100203860Y-75237441D01*
X100124225Y-75280006D01*
X100034309Y-75328068D01*
X100034306Y-75328069D01*
X99850329Y-75383878D01*
X99754739Y-75393293D01*
X99706945Y-75398000D01*
X98413055Y-75398000D01*
X98365261Y-75393293D01*
X98269671Y-75383878D01*
X98085694Y-75328069D01*
X98085691Y-75328068D01*
X97995775Y-75280006D01*
X97916140Y-75237441D01*
X97869965Y-75199546D01*
X97767524Y-75115476D01*
X97683454Y-75013035D01*
X97645559Y-74966860D01*
X97602994Y-74887225D01*
X97554932Y-74797309D01*
X97554931Y-74797306D01*
X97499122Y-74613329D01*
X97480278Y-74422000D01*
X97499122Y-74230671D01*
X97554931Y-74046694D01*
X97554932Y-74046691D01*
X97602994Y-73956775D01*
X97645559Y-73877140D01*
X97683454Y-73830965D01*
X97767524Y-73728524D01*
X97869965Y-73644454D01*
X97916140Y-73606559D01*
X97995775Y-73563994D01*
X98085691Y-73515932D01*
X98085694Y-73515931D01*
X98269671Y-73460122D01*
X98365261Y-73450707D01*
X98413055Y-73446000D01*
X99706945Y-73446000D01*
X99754739Y-73450707D01*
G37*
G36*
X71614739Y-73450707D02*
G01*
X71710329Y-73460122D01*
X71894306Y-73515931D01*
X71894309Y-73515932D01*
X71984225Y-73563994D01*
X72063860Y-73606559D01*
X72110035Y-73644454D01*
X72212476Y-73728524D01*
X72296546Y-73830965D01*
X72334441Y-73877140D01*
X72377006Y-73956775D01*
X72425068Y-74046691D01*
X72425069Y-74046694D01*
X72480878Y-74230671D01*
X72499722Y-74422000D01*
X72480878Y-74613329D01*
X72425069Y-74797306D01*
X72425068Y-74797309D01*
X72377006Y-74887225D01*
X72334441Y-74966860D01*
X72296546Y-75013035D01*
X72212476Y-75115476D01*
X72110035Y-75199546D01*
X72063860Y-75237441D01*
X71984225Y-75280006D01*
X71894309Y-75328068D01*
X71894306Y-75328069D01*
X71710329Y-75383878D01*
X71614739Y-75393293D01*
X71566945Y-75398000D01*
X70273055Y-75398000D01*
X70225261Y-75393293D01*
X70129671Y-75383878D01*
X69945694Y-75328069D01*
X69945691Y-75328068D01*
X69855775Y-75280006D01*
X69776140Y-75237441D01*
X69729965Y-75199546D01*
X69627524Y-75115476D01*
X69543454Y-75013035D01*
X69505559Y-74966860D01*
X69462994Y-74887225D01*
X69414932Y-74797309D01*
X69414931Y-74797306D01*
X69359122Y-74613329D01*
X69340278Y-74422000D01*
X69359122Y-74230671D01*
X69414931Y-74046694D01*
X69414932Y-74046691D01*
X69462994Y-73956775D01*
X69505559Y-73877140D01*
X69543454Y-73830965D01*
X69627524Y-73728524D01*
X69729965Y-73644454D01*
X69776140Y-73606559D01*
X69855775Y-73563994D01*
X69945691Y-73515932D01*
X69945694Y-73515931D01*
X70129671Y-73460122D01*
X70225261Y-73450707D01*
X70273055Y-73446000D01*
X71566945Y-73446000D01*
X71614739Y-73450707D01*
G37*
G36*
X195058739Y-73450707D02*
G01*
X195154329Y-73460122D01*
X195338306Y-73515931D01*
X195338309Y-73515932D01*
X195428225Y-73563994D01*
X195507860Y-73606559D01*
X195554035Y-73644454D01*
X195656476Y-73728524D01*
X195740546Y-73830965D01*
X195778441Y-73877140D01*
X195821006Y-73956775D01*
X195869068Y-74046691D01*
X195869069Y-74046694D01*
X195924878Y-74230671D01*
X195943722Y-74422000D01*
X195924878Y-74613329D01*
X195869069Y-74797306D01*
X195869068Y-74797309D01*
X195821006Y-74887225D01*
X195778441Y-74966860D01*
X195740546Y-75013035D01*
X195656476Y-75115476D01*
X195554035Y-75199546D01*
X195507860Y-75237441D01*
X195428225Y-75280006D01*
X195338309Y-75328068D01*
X195338306Y-75328069D01*
X195154329Y-75383878D01*
X195058739Y-75393293D01*
X195010945Y-75398000D01*
X193717055Y-75398000D01*
X193669261Y-75393293D01*
X193573671Y-75383878D01*
X193389694Y-75328069D01*
X193389691Y-75328068D01*
X193299775Y-75280006D01*
X193220140Y-75237441D01*
X193173965Y-75199546D01*
X193071524Y-75115476D01*
X192987454Y-75013035D01*
X192949559Y-74966860D01*
X192906994Y-74887225D01*
X192858932Y-74797309D01*
X192858931Y-74797306D01*
X192803122Y-74613329D01*
X192784278Y-74422000D01*
X192803122Y-74230671D01*
X192858931Y-74046694D01*
X192858932Y-74046691D01*
X192906994Y-73956775D01*
X192949559Y-73877140D01*
X192987454Y-73830965D01*
X193071524Y-73728524D01*
X193173965Y-73644454D01*
X193220140Y-73606559D01*
X193299775Y-73563994D01*
X193389691Y-73515932D01*
X193389694Y-73515931D01*
X193573671Y-73460122D01*
X193669261Y-73450707D01*
X193717055Y-73446000D01*
X195010945Y-73446000D01*
X195058739Y-73450707D01*
G37*
G36*
X152894739Y-73450707D02*
G01*
X152990329Y-73460122D01*
X153174306Y-73515931D01*
X153174309Y-73515932D01*
X153264225Y-73563994D01*
X153343860Y-73606559D01*
X153390035Y-73644454D01*
X153492476Y-73728524D01*
X153576546Y-73830965D01*
X153614441Y-73877140D01*
X153657006Y-73956775D01*
X153705068Y-74046691D01*
X153705069Y-74046694D01*
X153760878Y-74230671D01*
X153779722Y-74422000D01*
X153760878Y-74613329D01*
X153705069Y-74797306D01*
X153705068Y-74797309D01*
X153657006Y-74887225D01*
X153614441Y-74966860D01*
X153576546Y-75013035D01*
X153492476Y-75115476D01*
X153390035Y-75199546D01*
X153343860Y-75237441D01*
X153264225Y-75280006D01*
X153174309Y-75328068D01*
X153174306Y-75328069D01*
X152990329Y-75383878D01*
X152894739Y-75393293D01*
X152846945Y-75398000D01*
X151553055Y-75398000D01*
X151505261Y-75393293D01*
X151409671Y-75383878D01*
X151225694Y-75328069D01*
X151225691Y-75328068D01*
X151135775Y-75280006D01*
X151056140Y-75237441D01*
X151009965Y-75199546D01*
X150907524Y-75115476D01*
X150823454Y-75013035D01*
X150785559Y-74966860D01*
X150742994Y-74887225D01*
X150694932Y-74797309D01*
X150694931Y-74797306D01*
X150639122Y-74613329D01*
X150620278Y-74422000D01*
X150639122Y-74230671D01*
X150694931Y-74046694D01*
X150694932Y-74046691D01*
X150742994Y-73956775D01*
X150785559Y-73877140D01*
X150823454Y-73830965D01*
X150907524Y-73728524D01*
X151009965Y-73644454D01*
X151056140Y-73606559D01*
X151135775Y-73563994D01*
X151225691Y-73515932D01*
X151225694Y-73515931D01*
X151409671Y-73460122D01*
X151505261Y-73450707D01*
X151553055Y-73446000D01*
X152846945Y-73446000D01*
X152894739Y-73450707D01*
G37*
G36*
X58025512Y-65143927D02*
G01*
X58174812Y-65173624D01*
X58338784Y-65241544D01*
X58486354Y-65340147D01*
X58611853Y-65465646D01*
X58710456Y-65613216D01*
X58778376Y-65777188D01*
X58813000Y-65951259D01*
X58813000Y-66128741D01*
X58778376Y-66302812D01*
X58710456Y-66466784D01*
X58611853Y-66614354D01*
X58486354Y-66739853D01*
X58338784Y-66838456D01*
X58174812Y-66906376D01*
X58025512Y-66936073D01*
X58000742Y-66941000D01*
X57823258Y-66941000D01*
X57798488Y-66936073D01*
X57649188Y-66906376D01*
X57485216Y-66838456D01*
X57337646Y-66739853D01*
X57212147Y-66614354D01*
X57113544Y-66466784D01*
X57045624Y-66302812D01*
X57011000Y-66128741D01*
X57011000Y-65951259D01*
X57045624Y-65777188D01*
X57113544Y-65613216D01*
X57212147Y-65465646D01*
X57337646Y-65340147D01*
X57485216Y-65241544D01*
X57649188Y-65173624D01*
X57798488Y-65143927D01*
X57823258Y-65139000D01*
X58000742Y-65139000D01*
X58025512Y-65143927D01*
G37*
G36*
X53733000Y-66941000D02*
G01*
X51931000Y-66941000D01*
X51931000Y-65139000D01*
X53733000Y-65139000D01*
X53733000Y-66941000D01*
G37*
G36*
X55485512Y-65143927D02*
G01*
X55634812Y-65173624D01*
X55798784Y-65241544D01*
X55946354Y-65340147D01*
X56071853Y-65465646D01*
X56170456Y-65613216D01*
X56238376Y-65777188D01*
X56273000Y-65951259D01*
X56273000Y-66128741D01*
X56238376Y-66302812D01*
X56170456Y-66466784D01*
X56071853Y-66614354D01*
X55946354Y-66739853D01*
X55798784Y-66838456D01*
X55634812Y-66906376D01*
X55485512Y-66936073D01*
X55460742Y-66941000D01*
X55283258Y-66941000D01*
X55258488Y-66936073D01*
X55109188Y-66906376D01*
X54945216Y-66838456D01*
X54797646Y-66739853D01*
X54672147Y-66614354D01*
X54573544Y-66466784D01*
X54505624Y-66302812D01*
X54471000Y-66128741D01*
X54471000Y-65951259D01*
X54505624Y-65777188D01*
X54573544Y-65613216D01*
X54672147Y-65465646D01*
X54797646Y-65340147D01*
X54945216Y-65241544D01*
X55109188Y-65173624D01*
X55258488Y-65143927D01*
X55283258Y-65139000D01*
X55460742Y-65139000D01*
X55485512Y-65143927D01*
G37*
G36*
X45396282Y-64159847D02*
G01*
X45469707Y-64174452D01*
X45630494Y-64241052D01*
X45630496Y-64241053D01*
X45775196Y-64337738D01*
X45898262Y-64460804D01*
X45994947Y-64605504D01*
X46061548Y-64766294D01*
X46095500Y-64936981D01*
X46095500Y-65111019D01*
X46061548Y-65281706D01*
X45994947Y-65442496D01*
X45898262Y-65587196D01*
X45775196Y-65710262D01*
X45630496Y-65806947D01*
X45630495Y-65806948D01*
X45630494Y-65806948D01*
X45469707Y-65873548D01*
X45412810Y-65884865D01*
X45299019Y-65907500D01*
X45124981Y-65907500D01*
X45011190Y-65884865D01*
X44954293Y-65873548D01*
X44793506Y-65806948D01*
X44793505Y-65806948D01*
X44793504Y-65806947D01*
X44648804Y-65710262D01*
X44525738Y-65587196D01*
X44429053Y-65442496D01*
X44362452Y-65281706D01*
X44328500Y-65111019D01*
X44328500Y-64936981D01*
X44362452Y-64766294D01*
X44429053Y-64605504D01*
X44525738Y-64460804D01*
X44648804Y-64337738D01*
X44793504Y-64241053D01*
X44793506Y-64241052D01*
X44954293Y-64174452D01*
X45027718Y-64159847D01*
X45124981Y-64140500D01*
X45299019Y-64140500D01*
X45396282Y-64159847D01*
G37*
G36*
X30156282Y-64159847D02*
G01*
X30229707Y-64174452D01*
X30390494Y-64241052D01*
X30390496Y-64241053D01*
X30535196Y-64337738D01*
X30658262Y-64460804D01*
X30754947Y-64605504D01*
X30821548Y-64766294D01*
X30855500Y-64936981D01*
X30855500Y-65111019D01*
X30821548Y-65281706D01*
X30754947Y-65442496D01*
X30658262Y-65587196D01*
X30535196Y-65710262D01*
X30390496Y-65806947D01*
X30390495Y-65806948D01*
X30390494Y-65806948D01*
X30229707Y-65873548D01*
X30172810Y-65884865D01*
X30059019Y-65907500D01*
X29884981Y-65907500D01*
X29771190Y-65884865D01*
X29714293Y-65873548D01*
X29553506Y-65806948D01*
X29553505Y-65806948D01*
X29553504Y-65806947D01*
X29408804Y-65710262D01*
X29285738Y-65587196D01*
X29189053Y-65442496D01*
X29122452Y-65281706D01*
X29088500Y-65111019D01*
X29088500Y-64936981D01*
X29122452Y-64766294D01*
X29189053Y-64605504D01*
X29285738Y-64460804D01*
X29408804Y-64337738D01*
X29553504Y-64241053D01*
X29553506Y-64241052D01*
X29714293Y-64174452D01*
X29787718Y-64159847D01*
X29884981Y-64140500D01*
X30059019Y-64140500D01*
X30156282Y-64159847D01*
G37*
G36*
X233998205Y-63318461D02*
G01*
X234116153Y-63341922D01*
X234177903Y-63367500D01*
X234338359Y-63433963D01*
X234538342Y-63567587D01*
X234708413Y-63737658D01*
X234842037Y-63937641D01*
X234895953Y-64067806D01*
X234934078Y-64159847D01*
X234950231Y-64241053D01*
X234981000Y-64395741D01*
X234981000Y-64636259D01*
X234934078Y-64872152D01*
X234842037Y-65094359D01*
X234708413Y-65294342D01*
X234538342Y-65464413D01*
X234338359Y-65598037D01*
X234208194Y-65651953D01*
X234116153Y-65690078D01*
X234014695Y-65710259D01*
X233880259Y-65737000D01*
X233639741Y-65737000D01*
X233505305Y-65710259D01*
X233403847Y-65690078D01*
X233311806Y-65651953D01*
X233181641Y-65598037D01*
X232981658Y-65464413D01*
X232811587Y-65294342D01*
X232677963Y-65094359D01*
X232585922Y-64872152D01*
X232539000Y-64636259D01*
X232539000Y-64395741D01*
X232569769Y-64241053D01*
X232585922Y-64159847D01*
X232624047Y-64067806D01*
X232677963Y-63937641D01*
X232811587Y-63737658D01*
X232981658Y-63567587D01*
X233181641Y-63433963D01*
X233342097Y-63367500D01*
X233403847Y-63341922D01*
X233521795Y-63318461D01*
X233639741Y-63295000D01*
X233880259Y-63295000D01*
X233998205Y-63318461D01*
G37*
G36*
X238998205Y-63318461D02*
G01*
X239116153Y-63341922D01*
X239177903Y-63367500D01*
X239338359Y-63433963D01*
X239538342Y-63567587D01*
X239708413Y-63737658D01*
X239842037Y-63937641D01*
X239895953Y-64067806D01*
X239934078Y-64159847D01*
X239950231Y-64241053D01*
X239981000Y-64395741D01*
X239981000Y-64636259D01*
X239934078Y-64872152D01*
X239842037Y-65094359D01*
X239708413Y-65294342D01*
X239538342Y-65464413D01*
X239338359Y-65598037D01*
X239208194Y-65651953D01*
X239116153Y-65690078D01*
X239014695Y-65710259D01*
X238880259Y-65737000D01*
X238639741Y-65737000D01*
X238505305Y-65710259D01*
X238403847Y-65690078D01*
X238311806Y-65651953D01*
X238181641Y-65598037D01*
X237981658Y-65464413D01*
X237811587Y-65294342D01*
X237677963Y-65094359D01*
X237585922Y-64872152D01*
X237539000Y-64636259D01*
X237539000Y-64395741D01*
X237569769Y-64241053D01*
X237585922Y-64159847D01*
X237624047Y-64067806D01*
X237677963Y-63937641D01*
X237811587Y-63737658D01*
X237981658Y-63567587D01*
X238181641Y-63433963D01*
X238342097Y-63367500D01*
X238403847Y-63341922D01*
X238521795Y-63318461D01*
X238639741Y-63295000D01*
X238880259Y-63295000D01*
X238998205Y-63318461D01*
G37*
G36*
X251858205Y-63318461D02*
G01*
X251976153Y-63341922D01*
X252037903Y-63367500D01*
X252198359Y-63433963D01*
X252398342Y-63567587D01*
X252568413Y-63737658D01*
X252702037Y-63937641D01*
X252755953Y-64067806D01*
X252794078Y-64159847D01*
X252810231Y-64241053D01*
X252841000Y-64395741D01*
X252841000Y-64636259D01*
X252794078Y-64872152D01*
X252702037Y-65094359D01*
X252568413Y-65294342D01*
X252398342Y-65464413D01*
X252198359Y-65598037D01*
X252068194Y-65651953D01*
X251976153Y-65690078D01*
X251874695Y-65710259D01*
X251740259Y-65737000D01*
X251499741Y-65737000D01*
X251365305Y-65710259D01*
X251263847Y-65690078D01*
X251171806Y-65651953D01*
X251041641Y-65598037D01*
X250841658Y-65464413D01*
X250671587Y-65294342D01*
X250537963Y-65094359D01*
X250445922Y-64872152D01*
X250399000Y-64636259D01*
X250399000Y-64395741D01*
X250429769Y-64241053D01*
X250445922Y-64159847D01*
X250484047Y-64067806D01*
X250537963Y-63937641D01*
X250671587Y-63737658D01*
X250841658Y-63567587D01*
X251041641Y-63433963D01*
X251202097Y-63367500D01*
X251263847Y-63341922D01*
X251381795Y-63318461D01*
X251499741Y-63295000D01*
X251740259Y-63295000D01*
X251858205Y-63318461D01*
G37*
G36*
X256858205Y-63318461D02*
G01*
X256976153Y-63341922D01*
X257037903Y-63367500D01*
X257198359Y-63433963D01*
X257398342Y-63567587D01*
X257568413Y-63737658D01*
X257702037Y-63937641D01*
X257755953Y-64067806D01*
X257794078Y-64159847D01*
X257810231Y-64241053D01*
X257841000Y-64395741D01*
X257841000Y-64636259D01*
X257794078Y-64872152D01*
X257702037Y-65094359D01*
X257568413Y-65294342D01*
X257398342Y-65464413D01*
X257198359Y-65598037D01*
X257068194Y-65651953D01*
X256976153Y-65690078D01*
X256874695Y-65710259D01*
X256740259Y-65737000D01*
X256499741Y-65737000D01*
X256365305Y-65710259D01*
X256263847Y-65690078D01*
X256171806Y-65651953D01*
X256041641Y-65598037D01*
X255841658Y-65464413D01*
X255671587Y-65294342D01*
X255537963Y-65094359D01*
X255445922Y-64872152D01*
X255399000Y-64636259D01*
X255399000Y-64395741D01*
X255429769Y-64241053D01*
X255445922Y-64159847D01*
X255484047Y-64067806D01*
X255537963Y-63937641D01*
X255671587Y-63737658D01*
X255841658Y-63567587D01*
X256041641Y-63433963D01*
X256202097Y-63367500D01*
X256263847Y-63341922D01*
X256381795Y-63318461D01*
X256499741Y-63295000D01*
X256740259Y-63295000D01*
X256858205Y-63318461D01*
G37*
G36*
X261858205Y-63318461D02*
G01*
X261976153Y-63341922D01*
X262037903Y-63367500D01*
X262198359Y-63433963D01*
X262398342Y-63567587D01*
X262568413Y-63737658D01*
X262702037Y-63937641D01*
X262755953Y-64067806D01*
X262794078Y-64159847D01*
X262810231Y-64241053D01*
X262841000Y-64395741D01*
X262841000Y-64636259D01*
X262794078Y-64872152D01*
X262702037Y-65094359D01*
X262568413Y-65294342D01*
X262398342Y-65464413D01*
X262198359Y-65598037D01*
X262068194Y-65651953D01*
X261976153Y-65690078D01*
X261874695Y-65710259D01*
X261740259Y-65737000D01*
X261499741Y-65737000D01*
X261365305Y-65710259D01*
X261263847Y-65690078D01*
X261171806Y-65651953D01*
X261041641Y-65598037D01*
X260841658Y-65464413D01*
X260671587Y-65294342D01*
X260537963Y-65094359D01*
X260445922Y-64872152D01*
X260399000Y-64636259D01*
X260399000Y-64395741D01*
X260429769Y-64241053D01*
X260445922Y-64159847D01*
X260484047Y-64067806D01*
X260537963Y-63937641D01*
X260671587Y-63737658D01*
X260841658Y-63567587D01*
X261041641Y-63433963D01*
X261202097Y-63367500D01*
X261263847Y-63341922D01*
X261381795Y-63318461D01*
X261499741Y-63295000D01*
X261740259Y-63295000D01*
X261858205Y-63318461D01*
G37*
G36*
X206138205Y-63318461D02*
G01*
X206256153Y-63341922D01*
X206317903Y-63367500D01*
X206478359Y-63433963D01*
X206678342Y-63567587D01*
X206848413Y-63737658D01*
X206982037Y-63937641D01*
X207035953Y-64067806D01*
X207074078Y-64159847D01*
X207090231Y-64241053D01*
X207121000Y-64395741D01*
X207121000Y-64636259D01*
X207074078Y-64872152D01*
X206982037Y-65094359D01*
X206848413Y-65294342D01*
X206678342Y-65464413D01*
X206478359Y-65598037D01*
X206348194Y-65651953D01*
X206256153Y-65690078D01*
X206154695Y-65710259D01*
X206020259Y-65737000D01*
X205779741Y-65737000D01*
X205645305Y-65710259D01*
X205543847Y-65690078D01*
X205451806Y-65651953D01*
X205321641Y-65598037D01*
X205121658Y-65464413D01*
X204951587Y-65294342D01*
X204817963Y-65094359D01*
X204725922Y-64872152D01*
X204679000Y-64636259D01*
X204679000Y-64395741D01*
X204709769Y-64241053D01*
X204725922Y-64159847D01*
X204764047Y-64067806D01*
X204817963Y-63937641D01*
X204951587Y-63737658D01*
X205121658Y-63567587D01*
X205321641Y-63433963D01*
X205482097Y-63367500D01*
X205543847Y-63341922D01*
X205661795Y-63318461D01*
X205779741Y-63295000D01*
X206020259Y-63295000D01*
X206138205Y-63318461D01*
G37*
G36*
X216138205Y-63318461D02*
G01*
X216256153Y-63341922D01*
X216317903Y-63367500D01*
X216478359Y-63433963D01*
X216678342Y-63567587D01*
X216848413Y-63737658D01*
X216982037Y-63937641D01*
X217035953Y-64067806D01*
X217074078Y-64159847D01*
X217090231Y-64241053D01*
X217121000Y-64395741D01*
X217121000Y-64636259D01*
X217074078Y-64872152D01*
X216982037Y-65094359D01*
X216848413Y-65294342D01*
X216678342Y-65464413D01*
X216478359Y-65598037D01*
X216348194Y-65651953D01*
X216256153Y-65690078D01*
X216154695Y-65710259D01*
X216020259Y-65737000D01*
X215779741Y-65737000D01*
X215645305Y-65710259D01*
X215543847Y-65690078D01*
X215451806Y-65651953D01*
X215321641Y-65598037D01*
X215121658Y-65464413D01*
X214951587Y-65294342D01*
X214817963Y-65094359D01*
X214725922Y-64872152D01*
X214679000Y-64636259D01*
X214679000Y-64395741D01*
X214709769Y-64241053D01*
X214725922Y-64159847D01*
X214764047Y-64067806D01*
X214817963Y-63937641D01*
X214951587Y-63737658D01*
X215121658Y-63567587D01*
X215321641Y-63433963D01*
X215482097Y-63367500D01*
X215543847Y-63341922D01*
X215661795Y-63318461D01*
X215779741Y-63295000D01*
X216020259Y-63295000D01*
X216138205Y-63318461D01*
G37*
G36*
X211138205Y-63318461D02*
G01*
X211256153Y-63341922D01*
X211317903Y-63367500D01*
X211478359Y-63433963D01*
X211678342Y-63567587D01*
X211848413Y-63737658D01*
X211982037Y-63937641D01*
X212035953Y-64067806D01*
X212074078Y-64159847D01*
X212090231Y-64241053D01*
X212121000Y-64395741D01*
X212121000Y-64636259D01*
X212074078Y-64872152D01*
X211982037Y-65094359D01*
X211848413Y-65294342D01*
X211678342Y-65464413D01*
X211478359Y-65598037D01*
X211348194Y-65651953D01*
X211256153Y-65690078D01*
X211154695Y-65710259D01*
X211020259Y-65737000D01*
X210779741Y-65737000D01*
X210645305Y-65710259D01*
X210543847Y-65690078D01*
X210451806Y-65651953D01*
X210321641Y-65598037D01*
X210121658Y-65464413D01*
X209951587Y-65294342D01*
X209817963Y-65094359D01*
X209725922Y-64872152D01*
X209679000Y-64636259D01*
X209679000Y-64395741D01*
X209709769Y-64241053D01*
X209725922Y-64159847D01*
X209764047Y-64067806D01*
X209817963Y-63937641D01*
X209951587Y-63737658D01*
X210121658Y-63567587D01*
X210321641Y-63433963D01*
X210482097Y-63367500D01*
X210543847Y-63341922D01*
X210661795Y-63318461D01*
X210779741Y-63295000D01*
X211020259Y-63295000D01*
X211138205Y-63318461D01*
G37*
G36*
X193278205Y-63318461D02*
G01*
X193396153Y-63341922D01*
X193457903Y-63367500D01*
X193618359Y-63433963D01*
X193818342Y-63567587D01*
X193988413Y-63737658D01*
X194122037Y-63937641D01*
X194175953Y-64067806D01*
X194214078Y-64159847D01*
X194230231Y-64241053D01*
X194261000Y-64395741D01*
X194261000Y-64636259D01*
X194214078Y-64872152D01*
X194122037Y-65094359D01*
X193988413Y-65294342D01*
X193818342Y-65464413D01*
X193618359Y-65598037D01*
X193488194Y-65651953D01*
X193396153Y-65690078D01*
X193294695Y-65710259D01*
X193160259Y-65737000D01*
X192919741Y-65737000D01*
X192785305Y-65710259D01*
X192683847Y-65690078D01*
X192591806Y-65651953D01*
X192461641Y-65598037D01*
X192261658Y-65464413D01*
X192091587Y-65294342D01*
X191957963Y-65094359D01*
X191865922Y-64872152D01*
X191819000Y-64636259D01*
X191819000Y-64395741D01*
X191849769Y-64241053D01*
X191865922Y-64159847D01*
X191904047Y-64067806D01*
X191957963Y-63937641D01*
X192091587Y-63737658D01*
X192261658Y-63567587D01*
X192461641Y-63433963D01*
X192622097Y-63367500D01*
X192683847Y-63341922D01*
X192801795Y-63318461D01*
X192919741Y-63295000D01*
X193160259Y-63295000D01*
X193278205Y-63318461D01*
G37*
G36*
X188278205Y-63318461D02*
G01*
X188396153Y-63341922D01*
X188457903Y-63367500D01*
X188618359Y-63433963D01*
X188818342Y-63567587D01*
X188988413Y-63737658D01*
X189122037Y-63937641D01*
X189175953Y-64067806D01*
X189214078Y-64159847D01*
X189230231Y-64241053D01*
X189261000Y-64395741D01*
X189261000Y-64636259D01*
X189214078Y-64872152D01*
X189122037Y-65094359D01*
X188988413Y-65294342D01*
X188818342Y-65464413D01*
X188618359Y-65598037D01*
X188488194Y-65651953D01*
X188396153Y-65690078D01*
X188294695Y-65710259D01*
X188160259Y-65737000D01*
X187919741Y-65737000D01*
X187785305Y-65710259D01*
X187683847Y-65690078D01*
X187591806Y-65651953D01*
X187461641Y-65598037D01*
X187261658Y-65464413D01*
X187091587Y-65294342D01*
X186957963Y-65094359D01*
X186865922Y-64872152D01*
X186819000Y-64636259D01*
X186819000Y-64395741D01*
X186849769Y-64241053D01*
X186865922Y-64159847D01*
X186904047Y-64067806D01*
X186957963Y-63937641D01*
X187091587Y-63737658D01*
X187261658Y-63567587D01*
X187461641Y-63433963D01*
X187622097Y-63367500D01*
X187683847Y-63341922D01*
X187801795Y-63318461D01*
X187919741Y-63295000D01*
X188160259Y-63295000D01*
X188278205Y-63318461D01*
G37*
G36*
X183278205Y-63318461D02*
G01*
X183396153Y-63341922D01*
X183457903Y-63367500D01*
X183618359Y-63433963D01*
X183818342Y-63567587D01*
X183988413Y-63737658D01*
X184122037Y-63937641D01*
X184175953Y-64067806D01*
X184214078Y-64159847D01*
X184230231Y-64241053D01*
X184261000Y-64395741D01*
X184261000Y-64636259D01*
X184214078Y-64872152D01*
X184122037Y-65094359D01*
X183988413Y-65294342D01*
X183818342Y-65464413D01*
X183618359Y-65598037D01*
X183488194Y-65651953D01*
X183396153Y-65690078D01*
X183294695Y-65710259D01*
X183160259Y-65737000D01*
X182919741Y-65737000D01*
X182785305Y-65710259D01*
X182683847Y-65690078D01*
X182591806Y-65651953D01*
X182461641Y-65598037D01*
X182261658Y-65464413D01*
X182091587Y-65294342D01*
X181957963Y-65094359D01*
X181865922Y-64872152D01*
X181819000Y-64636259D01*
X181819000Y-64395741D01*
X181849769Y-64241053D01*
X181865922Y-64159847D01*
X181904047Y-64067806D01*
X181957963Y-63937641D01*
X182091587Y-63737658D01*
X182261658Y-63567587D01*
X182461641Y-63433963D01*
X182622097Y-63367500D01*
X182683847Y-63341922D01*
X182801795Y-63318461D01*
X182919741Y-63295000D01*
X183160259Y-63295000D01*
X183278205Y-63318461D01*
G37*
G36*
X228998205Y-63318461D02*
G01*
X229116153Y-63341922D01*
X229177903Y-63367500D01*
X229338359Y-63433963D01*
X229538342Y-63567587D01*
X229708413Y-63737658D01*
X229842037Y-63937641D01*
X229895953Y-64067806D01*
X229934078Y-64159847D01*
X229950231Y-64241053D01*
X229981000Y-64395741D01*
X229981000Y-64636259D01*
X229934078Y-64872152D01*
X229842037Y-65094359D01*
X229708413Y-65294342D01*
X229538342Y-65464413D01*
X229338359Y-65598037D01*
X229208194Y-65651953D01*
X229116153Y-65690078D01*
X229014695Y-65710259D01*
X228880259Y-65737000D01*
X228639741Y-65737000D01*
X228505305Y-65710259D01*
X228403847Y-65690078D01*
X228311806Y-65651953D01*
X228181641Y-65598037D01*
X227981658Y-65464413D01*
X227811587Y-65294342D01*
X227677963Y-65094359D01*
X227585922Y-64872152D01*
X227539000Y-64636259D01*
X227539000Y-64395741D01*
X227569769Y-64241053D01*
X227585922Y-64159847D01*
X227624047Y-64067806D01*
X227677963Y-63937641D01*
X227811587Y-63737658D01*
X227981658Y-63567587D01*
X228181641Y-63433963D01*
X228342097Y-63367500D01*
X228403847Y-63341922D01*
X228521795Y-63318461D01*
X228639741Y-63295000D01*
X228880259Y-63295000D01*
X228998205Y-63318461D01*
G37*
G36*
X30172810Y-61623135D02*
G01*
X30229707Y-61634452D01*
X30280876Y-61655647D01*
X30390496Y-61701053D01*
X30535196Y-61797738D01*
X30658262Y-61920804D01*
X30754947Y-62065504D01*
X30821548Y-62226294D01*
X30855500Y-62396981D01*
X30855500Y-62571019D01*
X30821548Y-62741706D01*
X30754947Y-62902496D01*
X30658262Y-63047196D01*
X30535196Y-63170262D01*
X30390496Y-63266947D01*
X30390495Y-63266948D01*
X30390494Y-63266948D01*
X30229707Y-63333548D01*
X30172810Y-63344865D01*
X30059019Y-63367500D01*
X29884981Y-63367500D01*
X29771190Y-63344865D01*
X29714293Y-63333548D01*
X29553506Y-63266948D01*
X29553505Y-63266948D01*
X29553504Y-63266947D01*
X29408804Y-63170262D01*
X29285738Y-63047196D01*
X29189053Y-62902496D01*
X29122452Y-62741706D01*
X29088500Y-62571019D01*
X29088500Y-62396981D01*
X29122452Y-62226294D01*
X29189053Y-62065504D01*
X29285738Y-61920804D01*
X29408804Y-61797738D01*
X29553504Y-61701053D01*
X29663124Y-61655647D01*
X29714293Y-61634452D01*
X29771190Y-61623135D01*
X29884981Y-61600500D01*
X30059019Y-61600500D01*
X30172810Y-61623135D01*
G37*
G36*
X45412810Y-61623135D02*
G01*
X45469707Y-61634452D01*
X45520876Y-61655647D01*
X45630496Y-61701053D01*
X45775196Y-61797738D01*
X45898262Y-61920804D01*
X45994947Y-62065504D01*
X46061548Y-62226294D01*
X46095500Y-62396981D01*
X46095500Y-62571019D01*
X46061548Y-62741706D01*
X45994947Y-62902496D01*
X45898262Y-63047196D01*
X45775196Y-63170262D01*
X45630496Y-63266947D01*
X45630495Y-63266948D01*
X45630494Y-63266948D01*
X45469707Y-63333548D01*
X45412810Y-63344865D01*
X45299019Y-63367500D01*
X45124981Y-63367500D01*
X45011190Y-63344865D01*
X44954293Y-63333548D01*
X44793506Y-63266948D01*
X44793505Y-63266948D01*
X44793504Y-63266947D01*
X44648804Y-63170262D01*
X44525738Y-63047196D01*
X44429053Y-62902496D01*
X44362452Y-62741706D01*
X44328500Y-62571019D01*
X44328500Y-62396981D01*
X44362452Y-62226294D01*
X44429053Y-62065504D01*
X44525738Y-61920804D01*
X44648804Y-61797738D01*
X44793504Y-61701053D01*
X44903124Y-61655647D01*
X44954293Y-61634452D01*
X45011190Y-61623135D01*
X45124981Y-61600500D01*
X45299019Y-61600500D01*
X45412810Y-61623135D01*
G37*
G36*
X128129512Y-61333927D02*
G01*
X128278812Y-61363624D01*
X128442784Y-61431544D01*
X128590354Y-61530147D01*
X128715853Y-61655646D01*
X128814456Y-61803216D01*
X128882376Y-61967188D01*
X128917000Y-62141259D01*
X128917000Y-62318741D01*
X128882376Y-62492812D01*
X128814456Y-62656784D01*
X128715853Y-62804354D01*
X128590354Y-62929853D01*
X128442784Y-63028456D01*
X128278812Y-63096376D01*
X128129512Y-63126073D01*
X128104742Y-63131000D01*
X127927258Y-63131000D01*
X127902488Y-63126073D01*
X127753188Y-63096376D01*
X127589216Y-63028456D01*
X127441646Y-62929853D01*
X127316147Y-62804354D01*
X127217544Y-62656784D01*
X127149624Y-62492812D01*
X127115000Y-62318741D01*
X127115000Y-62141259D01*
X127149624Y-61967188D01*
X127217544Y-61803216D01*
X127316147Y-61655646D01*
X127441646Y-61530147D01*
X127589216Y-61431544D01*
X127753188Y-61363624D01*
X127902488Y-61333927D01*
X127927258Y-61329000D01*
X128104742Y-61329000D01*
X128129512Y-61333927D01*
G37*
G36*
X83171512Y-61333927D02*
G01*
X83320812Y-61363624D01*
X83484784Y-61431544D01*
X83632354Y-61530147D01*
X83757853Y-61655646D01*
X83856456Y-61803216D01*
X83924376Y-61967188D01*
X83959000Y-62141259D01*
X83959000Y-62318741D01*
X83924376Y-62492812D01*
X83856456Y-62656784D01*
X83757853Y-62804354D01*
X83632354Y-62929853D01*
X83484784Y-63028456D01*
X83320812Y-63096376D01*
X83171512Y-63126073D01*
X83146742Y-63131000D01*
X82969258Y-63131000D01*
X82944488Y-63126073D01*
X82795188Y-63096376D01*
X82631216Y-63028456D01*
X82483646Y-62929853D01*
X82358147Y-62804354D01*
X82259544Y-62656784D01*
X82191624Y-62492812D01*
X82157000Y-62318741D01*
X82157000Y-62141259D01*
X82191624Y-61967188D01*
X82259544Y-61803216D01*
X82358147Y-61655646D01*
X82483646Y-61530147D01*
X82631216Y-61431544D01*
X82795188Y-61363624D01*
X82944488Y-61333927D01*
X82969258Y-61329000D01*
X83146742Y-61329000D01*
X83171512Y-61333927D01*
G37*
G36*
X105523512Y-61333927D02*
G01*
X105672812Y-61363624D01*
X105836784Y-61431544D01*
X105984354Y-61530147D01*
X106109853Y-61655646D01*
X106208456Y-61803216D01*
X106276376Y-61967188D01*
X106311000Y-62141259D01*
X106311000Y-62318741D01*
X106276376Y-62492812D01*
X106208456Y-62656784D01*
X106109853Y-62804354D01*
X105984354Y-62929853D01*
X105836784Y-63028456D01*
X105672812Y-63096376D01*
X105523512Y-63126073D01*
X105498742Y-63131000D01*
X105321258Y-63131000D01*
X105296488Y-63126073D01*
X105147188Y-63096376D01*
X104983216Y-63028456D01*
X104835646Y-62929853D01*
X104710147Y-62804354D01*
X104611544Y-62656784D01*
X104543624Y-62492812D01*
X104509000Y-62318741D01*
X104509000Y-62141259D01*
X104543624Y-61967188D01*
X104611544Y-61803216D01*
X104710147Y-61655646D01*
X104835646Y-61530147D01*
X104983216Y-61431544D01*
X105147188Y-61363624D01*
X105296488Y-61333927D01*
X105321258Y-61329000D01*
X105498742Y-61329000D01*
X105523512Y-61333927D01*
G37*
G36*
X30172810Y-59083135D02*
G01*
X30229707Y-59094452D01*
X30280876Y-59115647D01*
X30390496Y-59161053D01*
X30535196Y-59257738D01*
X30658262Y-59380804D01*
X30754947Y-59525504D01*
X30821548Y-59686294D01*
X30855500Y-59856981D01*
X30855500Y-60031019D01*
X30821548Y-60201706D01*
X30754947Y-60362496D01*
X30658262Y-60507196D01*
X30535196Y-60630262D01*
X30390496Y-60726947D01*
X30390495Y-60726948D01*
X30390494Y-60726948D01*
X30229707Y-60793548D01*
X30172810Y-60804865D01*
X30059019Y-60827500D01*
X29884981Y-60827500D01*
X29771190Y-60804865D01*
X29714293Y-60793548D01*
X29553506Y-60726948D01*
X29553505Y-60726948D01*
X29553504Y-60726947D01*
X29408804Y-60630262D01*
X29285738Y-60507196D01*
X29189053Y-60362496D01*
X29122452Y-60201706D01*
X29088500Y-60031019D01*
X29088500Y-59856981D01*
X29122452Y-59686294D01*
X29189053Y-59525504D01*
X29285738Y-59380804D01*
X29408804Y-59257738D01*
X29553504Y-59161053D01*
X29663124Y-59115647D01*
X29714293Y-59094452D01*
X29771190Y-59083135D01*
X29884981Y-59060500D01*
X30059019Y-59060500D01*
X30172810Y-59083135D01*
G37*
G36*
X45412810Y-59083135D02*
G01*
X45469707Y-59094452D01*
X45520876Y-59115647D01*
X45630496Y-59161053D01*
X45775196Y-59257738D01*
X45898262Y-59380804D01*
X45994947Y-59525504D01*
X46061548Y-59686294D01*
X46095500Y-59856981D01*
X46095500Y-60031019D01*
X46061548Y-60201706D01*
X45994947Y-60362496D01*
X45898262Y-60507196D01*
X45775196Y-60630262D01*
X45630496Y-60726947D01*
X45630495Y-60726948D01*
X45630494Y-60726948D01*
X45469707Y-60793548D01*
X45412810Y-60804865D01*
X45299019Y-60827500D01*
X45124981Y-60827500D01*
X45011190Y-60804865D01*
X44954293Y-60793548D01*
X44793506Y-60726948D01*
X44793505Y-60726948D01*
X44793504Y-60726947D01*
X44648804Y-60630262D01*
X44525738Y-60507196D01*
X44429053Y-60362496D01*
X44362452Y-60201706D01*
X44328500Y-60031019D01*
X44328500Y-59856981D01*
X44362452Y-59686294D01*
X44429053Y-59525504D01*
X44525738Y-59380804D01*
X44648804Y-59257738D01*
X44793504Y-59161053D01*
X44903124Y-59115647D01*
X44954293Y-59094452D01*
X45011190Y-59083135D01*
X45124981Y-59060500D01*
X45299019Y-59060500D01*
X45412810Y-59083135D01*
G37*
G36*
X83171512Y-58793927D02*
G01*
X83320812Y-58823624D01*
X83484784Y-58891544D01*
X83632354Y-58990147D01*
X83757853Y-59115646D01*
X83856456Y-59263216D01*
X83924376Y-59427188D01*
X83959000Y-59601259D01*
X83959000Y-59778741D01*
X83924376Y-59952812D01*
X83856456Y-60116784D01*
X83757853Y-60264354D01*
X83632354Y-60389853D01*
X83484784Y-60488456D01*
X83320812Y-60556376D01*
X83171512Y-60586073D01*
X83146742Y-60591000D01*
X82969258Y-60591000D01*
X82944488Y-60586073D01*
X82795188Y-60556376D01*
X82631216Y-60488456D01*
X82483646Y-60389853D01*
X82358147Y-60264354D01*
X82259544Y-60116784D01*
X82191624Y-59952812D01*
X82157000Y-59778741D01*
X82157000Y-59601259D01*
X82191624Y-59427188D01*
X82259544Y-59263216D01*
X82358147Y-59115646D01*
X82483646Y-58990147D01*
X82631216Y-58891544D01*
X82795188Y-58823624D01*
X82944488Y-58793927D01*
X82969258Y-58789000D01*
X83146742Y-58789000D01*
X83171512Y-58793927D01*
G37*
G36*
X105523512Y-58793927D02*
G01*
X105672812Y-58823624D01*
X105836784Y-58891544D01*
X105984354Y-58990147D01*
X106109853Y-59115646D01*
X106208456Y-59263216D01*
X106276376Y-59427188D01*
X106311000Y-59601259D01*
X106311000Y-59778741D01*
X106276376Y-59952812D01*
X106208456Y-60116784D01*
X106109853Y-60264354D01*
X105984354Y-60389853D01*
X105836784Y-60488456D01*
X105672812Y-60556376D01*
X105523512Y-60586073D01*
X105498742Y-60591000D01*
X105321258Y-60591000D01*
X105296488Y-60586073D01*
X105147188Y-60556376D01*
X104983216Y-60488456D01*
X104835646Y-60389853D01*
X104710147Y-60264354D01*
X104611544Y-60116784D01*
X104543624Y-59952812D01*
X104509000Y-59778741D01*
X104509000Y-59601259D01*
X104543624Y-59427188D01*
X104611544Y-59263216D01*
X104710147Y-59115646D01*
X104835646Y-58990147D01*
X104983216Y-58891544D01*
X105147188Y-58823624D01*
X105296488Y-58793927D01*
X105321258Y-58789000D01*
X105498742Y-58789000D01*
X105523512Y-58793927D01*
G37*
G36*
X128129512Y-58793927D02*
G01*
X128278812Y-58823624D01*
X128442784Y-58891544D01*
X128590354Y-58990147D01*
X128715853Y-59115646D01*
X128814456Y-59263216D01*
X128882376Y-59427188D01*
X128917000Y-59601259D01*
X128917000Y-59778741D01*
X128882376Y-59952812D01*
X128814456Y-60116784D01*
X128715853Y-60264354D01*
X128590354Y-60389853D01*
X128442784Y-60488456D01*
X128278812Y-60556376D01*
X128129512Y-60586073D01*
X128104742Y-60591000D01*
X127927258Y-60591000D01*
X127902488Y-60586073D01*
X127753188Y-60556376D01*
X127589216Y-60488456D01*
X127441646Y-60389853D01*
X127316147Y-60264354D01*
X127217544Y-60116784D01*
X127149624Y-59952812D01*
X127115000Y-59778741D01*
X127115000Y-59601259D01*
X127149624Y-59427188D01*
X127217544Y-59263216D01*
X127316147Y-59115646D01*
X127441646Y-58990147D01*
X127589216Y-58891544D01*
X127753188Y-58823624D01*
X127902488Y-58793927D01*
X127927258Y-58789000D01*
X128104742Y-58789000D01*
X128129512Y-58793927D01*
G37*
G36*
X30172810Y-56543135D02*
G01*
X30229707Y-56554452D01*
X30280876Y-56575647D01*
X30390496Y-56621053D01*
X30535196Y-56717738D01*
X30658262Y-56840804D01*
X30754947Y-56985504D01*
X30821548Y-57146294D01*
X30855500Y-57316981D01*
X30855500Y-57491019D01*
X30838440Y-57576784D01*
X30821548Y-57661707D01*
X30771928Y-57781501D01*
X30754947Y-57822496D01*
X30658262Y-57967196D01*
X30535196Y-58090262D01*
X30390496Y-58186947D01*
X30390495Y-58186948D01*
X30390494Y-58186948D01*
X30229707Y-58253548D01*
X30172810Y-58264865D01*
X30059019Y-58287500D01*
X29884981Y-58287500D01*
X29771190Y-58264865D01*
X29714293Y-58253548D01*
X29553506Y-58186948D01*
X29553505Y-58186948D01*
X29553504Y-58186947D01*
X29408804Y-58090262D01*
X29285738Y-57967196D01*
X29189053Y-57822496D01*
X29172072Y-57781501D01*
X29122452Y-57661707D01*
X29105560Y-57576784D01*
X29088500Y-57491019D01*
X29088500Y-57316981D01*
X29122452Y-57146294D01*
X29189053Y-56985504D01*
X29285738Y-56840804D01*
X29408804Y-56717738D01*
X29553504Y-56621053D01*
X29663124Y-56575647D01*
X29714293Y-56554452D01*
X29771190Y-56543135D01*
X29884981Y-56520500D01*
X30059019Y-56520500D01*
X30172810Y-56543135D01*
G37*
G36*
X45412810Y-56543135D02*
G01*
X45469707Y-56554452D01*
X45520876Y-56575647D01*
X45630496Y-56621053D01*
X45775196Y-56717738D01*
X45898262Y-56840804D01*
X45994947Y-56985504D01*
X46061548Y-57146294D01*
X46095500Y-57316981D01*
X46095500Y-57491019D01*
X46078440Y-57576784D01*
X46061548Y-57661707D01*
X46011928Y-57781501D01*
X45994947Y-57822496D01*
X45898262Y-57967196D01*
X45775196Y-58090262D01*
X45630496Y-58186947D01*
X45630495Y-58186948D01*
X45630494Y-58186948D01*
X45469707Y-58253548D01*
X45412810Y-58264865D01*
X45299019Y-58287500D01*
X45124981Y-58287500D01*
X45011190Y-58264865D01*
X44954293Y-58253548D01*
X44793506Y-58186948D01*
X44793505Y-58186948D01*
X44793504Y-58186947D01*
X44648804Y-58090262D01*
X44525738Y-57967196D01*
X44429053Y-57822496D01*
X44412072Y-57781501D01*
X44362452Y-57661707D01*
X44345560Y-57576784D01*
X44328500Y-57491019D01*
X44328500Y-57316981D01*
X44362452Y-57146294D01*
X44429053Y-56985504D01*
X44525738Y-56840804D01*
X44648804Y-56717738D01*
X44793504Y-56621053D01*
X44903124Y-56575647D01*
X44954293Y-56554452D01*
X45011190Y-56543135D01*
X45124981Y-56520500D01*
X45299019Y-56520500D01*
X45412810Y-56543135D01*
G37*
G36*
X105523512Y-56253927D02*
G01*
X105672812Y-56283624D01*
X105836784Y-56351544D01*
X105984354Y-56450147D01*
X106109853Y-56575646D01*
X106208456Y-56723216D01*
X106276376Y-56887188D01*
X106311000Y-57061259D01*
X106311000Y-57238741D01*
X106276376Y-57412812D01*
X106208456Y-57576784D01*
X106109853Y-57724354D01*
X105984354Y-57849853D01*
X105836784Y-57948456D01*
X105672812Y-58016376D01*
X105523512Y-58046073D01*
X105498742Y-58051000D01*
X105321258Y-58051000D01*
X105296488Y-58046073D01*
X105147188Y-58016376D01*
X104983216Y-57948456D01*
X104835646Y-57849853D01*
X104710147Y-57724354D01*
X104611544Y-57576784D01*
X104543624Y-57412812D01*
X104509000Y-57238741D01*
X104509000Y-57061259D01*
X104543624Y-56887188D01*
X104611544Y-56723216D01*
X104710147Y-56575646D01*
X104835646Y-56450147D01*
X104983216Y-56351544D01*
X105147188Y-56283624D01*
X105296488Y-56253927D01*
X105321258Y-56249000D01*
X105498742Y-56249000D01*
X105523512Y-56253927D01*
G37*
G36*
X128129512Y-56253927D02*
G01*
X128278812Y-56283624D01*
X128442784Y-56351544D01*
X128590354Y-56450147D01*
X128715853Y-56575646D01*
X128814456Y-56723216D01*
X128882376Y-56887188D01*
X128917000Y-57061259D01*
X128917000Y-57238741D01*
X128882376Y-57412812D01*
X128814456Y-57576784D01*
X128715853Y-57724354D01*
X128590354Y-57849853D01*
X128442784Y-57948456D01*
X128278812Y-58016376D01*
X128129512Y-58046073D01*
X128104742Y-58051000D01*
X127927258Y-58051000D01*
X127902488Y-58046073D01*
X127753188Y-58016376D01*
X127589216Y-57948456D01*
X127441646Y-57849853D01*
X127316147Y-57724354D01*
X127217544Y-57576784D01*
X127149624Y-57412812D01*
X127115000Y-57238741D01*
X127115000Y-57061259D01*
X127149624Y-56887188D01*
X127217544Y-56723216D01*
X127316147Y-56575646D01*
X127441646Y-56450147D01*
X127589216Y-56351544D01*
X127753188Y-56283624D01*
X127902488Y-56253927D01*
X127927258Y-56249000D01*
X128104742Y-56249000D01*
X128129512Y-56253927D01*
G37*
G36*
X83171512Y-56253927D02*
G01*
X83320812Y-56283624D01*
X83484784Y-56351544D01*
X83632354Y-56450147D01*
X83757853Y-56575646D01*
X83856456Y-56723216D01*
X83924376Y-56887188D01*
X83959000Y-57061259D01*
X83959000Y-57238741D01*
X83924376Y-57412812D01*
X83856456Y-57576784D01*
X83757853Y-57724354D01*
X83632354Y-57849853D01*
X83484784Y-57948456D01*
X83320812Y-58016376D01*
X83171512Y-58046073D01*
X83146742Y-58051000D01*
X82969258Y-58051000D01*
X82944488Y-58046073D01*
X82795188Y-58016376D01*
X82631216Y-57948456D01*
X82483646Y-57849853D01*
X82358147Y-57724354D01*
X82259544Y-57576784D01*
X82191624Y-57412812D01*
X82157000Y-57238741D01*
X82157000Y-57061259D01*
X82191624Y-56887188D01*
X82259544Y-56723216D01*
X82358147Y-56575646D01*
X82483646Y-56450147D01*
X82631216Y-56351544D01*
X82795188Y-56283624D01*
X82944488Y-56253927D01*
X82969258Y-56249000D01*
X83146742Y-56249000D01*
X83171512Y-56253927D01*
G37*
G36*
X163559142Y-56368242D02*
G01*
X163707101Y-56429529D01*
X163840255Y-56518499D01*
X163953501Y-56631745D01*
X164042471Y-56764899D01*
X164103758Y-56912858D01*
X164135000Y-57069925D01*
X164135000Y-57230075D01*
X164103758Y-57387142D01*
X164042471Y-57535101D01*
X163953501Y-57668255D01*
X163840255Y-57781501D01*
X163707101Y-57870471D01*
X163559142Y-57931758D01*
X163402075Y-57963000D01*
X163241925Y-57963000D01*
X163084858Y-57931758D01*
X162936899Y-57870471D01*
X162803745Y-57781501D01*
X162690499Y-57668255D01*
X162601529Y-57535101D01*
X162540242Y-57387142D01*
X162509000Y-57230075D01*
X162509000Y-57069925D01*
X162540242Y-56912858D01*
X162601529Y-56764899D01*
X162690499Y-56631745D01*
X162803745Y-56518499D01*
X162936899Y-56429529D01*
X163084858Y-56368242D01*
X163241925Y-56337000D01*
X163402075Y-56337000D01*
X163559142Y-56368242D01*
G37*
G36*
X173719142Y-56368242D02*
G01*
X173867101Y-56429529D01*
X174000255Y-56518499D01*
X174113501Y-56631745D01*
X174202471Y-56764899D01*
X174263758Y-56912858D01*
X174295000Y-57069925D01*
X174295000Y-57230075D01*
X174263758Y-57387142D01*
X174202471Y-57535101D01*
X174113501Y-57668255D01*
X174000255Y-57781501D01*
X173867101Y-57870471D01*
X173719142Y-57931758D01*
X173562075Y-57963000D01*
X173401925Y-57963000D01*
X173244858Y-57931758D01*
X173096899Y-57870471D01*
X172963745Y-57781501D01*
X172850499Y-57668255D01*
X172761529Y-57535101D01*
X172700242Y-57387142D01*
X172669000Y-57230075D01*
X172669000Y-57069925D01*
X172700242Y-56912858D01*
X172761529Y-56764899D01*
X172850499Y-56631745D01*
X172963745Y-56518499D01*
X173096899Y-56429529D01*
X173244858Y-56368242D01*
X173401925Y-56337000D01*
X173562075Y-56337000D01*
X173719142Y-56368242D01*
G37*
G36*
X30172810Y-54003135D02*
G01*
X30229707Y-54014452D01*
X30390494Y-54081052D01*
X30390496Y-54081053D01*
X30535196Y-54177738D01*
X30658262Y-54300804D01*
X30728291Y-54405611D01*
X30754948Y-54445506D01*
X30755153Y-54446000D01*
X30821548Y-54606294D01*
X30855500Y-54776981D01*
X30855500Y-54951019D01*
X30838440Y-55036784D01*
X30821548Y-55121707D01*
X30771928Y-55241501D01*
X30754947Y-55282496D01*
X30658262Y-55427196D01*
X30535196Y-55550262D01*
X30390496Y-55646947D01*
X30390495Y-55646948D01*
X30390494Y-55646948D01*
X30229707Y-55713548D01*
X30172810Y-55724865D01*
X30059019Y-55747500D01*
X29884981Y-55747500D01*
X29771190Y-55724865D01*
X29714293Y-55713548D01*
X29553506Y-55646948D01*
X29553505Y-55646948D01*
X29553504Y-55646947D01*
X29408804Y-55550262D01*
X29285738Y-55427196D01*
X29189053Y-55282496D01*
X29172072Y-55241501D01*
X29122452Y-55121707D01*
X29105560Y-55036784D01*
X29088500Y-54951019D01*
X29088500Y-54776981D01*
X29122452Y-54606294D01*
X29188848Y-54446000D01*
X29189052Y-54445506D01*
X29215709Y-54405611D01*
X29285738Y-54300804D01*
X29408804Y-54177738D01*
X29553504Y-54081053D01*
X29553506Y-54081052D01*
X29714293Y-54014452D01*
X29771190Y-54003135D01*
X29884981Y-53980500D01*
X30059019Y-53980500D01*
X30172810Y-54003135D01*
G37*
G36*
X45412810Y-54003135D02*
G01*
X45469707Y-54014452D01*
X45630494Y-54081052D01*
X45630496Y-54081053D01*
X45775196Y-54177738D01*
X45898262Y-54300804D01*
X45968291Y-54405611D01*
X45994948Y-54445506D01*
X45995153Y-54446000D01*
X46061548Y-54606294D01*
X46095500Y-54776981D01*
X46095500Y-54951019D01*
X46078440Y-55036784D01*
X46061548Y-55121707D01*
X46011928Y-55241501D01*
X45994947Y-55282496D01*
X45898262Y-55427196D01*
X45775196Y-55550262D01*
X45630496Y-55646947D01*
X45630495Y-55646948D01*
X45630494Y-55646948D01*
X45469707Y-55713548D01*
X45412810Y-55724865D01*
X45299019Y-55747500D01*
X45124981Y-55747500D01*
X45011190Y-55724865D01*
X44954293Y-55713548D01*
X44793506Y-55646948D01*
X44793505Y-55646948D01*
X44793504Y-55646947D01*
X44648804Y-55550262D01*
X44525738Y-55427196D01*
X44429053Y-55282496D01*
X44412072Y-55241501D01*
X44362452Y-55121707D01*
X44345560Y-55036784D01*
X44328500Y-54951019D01*
X44328500Y-54776981D01*
X44362452Y-54606294D01*
X44428848Y-54446000D01*
X44429052Y-54445506D01*
X44455709Y-54405611D01*
X44525738Y-54300804D01*
X44648804Y-54177738D01*
X44793504Y-54081053D01*
X44793506Y-54081052D01*
X44954293Y-54014452D01*
X45011190Y-54003135D01*
X45124981Y-53980500D01*
X45299019Y-53980500D01*
X45412810Y-54003135D01*
G37*
G36*
X65391512Y-53713927D02*
G01*
X65540812Y-53743624D01*
X65704784Y-53811544D01*
X65852354Y-53910147D01*
X65977853Y-54035646D01*
X66076456Y-54183216D01*
X66144376Y-54347188D01*
X66179000Y-54521259D01*
X66179000Y-54698741D01*
X66144376Y-54872812D01*
X66076456Y-55036784D01*
X65977853Y-55184354D01*
X65852354Y-55309853D01*
X65704784Y-55408456D01*
X65540812Y-55476376D01*
X65391512Y-55506073D01*
X65366742Y-55511000D01*
X65189258Y-55511000D01*
X65164488Y-55506073D01*
X65015188Y-55476376D01*
X64851216Y-55408456D01*
X64703646Y-55309853D01*
X64578147Y-55184354D01*
X64479544Y-55036784D01*
X64411624Y-54872812D01*
X64377000Y-54698741D01*
X64377000Y-54521259D01*
X64411624Y-54347188D01*
X64479544Y-54183216D01*
X64578147Y-54035646D01*
X64703646Y-53910147D01*
X64851216Y-53811544D01*
X65015188Y-53743624D01*
X65164488Y-53713927D01*
X65189258Y-53709000D01*
X65366742Y-53709000D01*
X65391512Y-53713927D01*
G37*
G36*
X105523512Y-53713927D02*
G01*
X105672812Y-53743624D01*
X105836784Y-53811544D01*
X105984354Y-53910147D01*
X106109853Y-54035646D01*
X106208456Y-54183216D01*
X106276376Y-54347188D01*
X106311000Y-54521259D01*
X106311000Y-54698741D01*
X106276376Y-54872812D01*
X106208456Y-55036784D01*
X106109853Y-55184354D01*
X105984354Y-55309853D01*
X105836784Y-55408456D01*
X105672812Y-55476376D01*
X105523512Y-55506073D01*
X105498742Y-55511000D01*
X105321258Y-55511000D01*
X105296488Y-55506073D01*
X105147188Y-55476376D01*
X104983216Y-55408456D01*
X104835646Y-55309853D01*
X104710147Y-55184354D01*
X104611544Y-55036784D01*
X104543624Y-54872812D01*
X104509000Y-54698741D01*
X104509000Y-54521259D01*
X104543624Y-54347188D01*
X104611544Y-54183216D01*
X104710147Y-54035646D01*
X104835646Y-53910147D01*
X104983216Y-53811544D01*
X105147188Y-53743624D01*
X105296488Y-53713927D01*
X105321258Y-53709000D01*
X105498742Y-53709000D01*
X105523512Y-53713927D01*
G37*
G36*
X87743512Y-53713927D02*
G01*
X87892812Y-53743624D01*
X88056784Y-53811544D01*
X88204354Y-53910147D01*
X88329853Y-54035646D01*
X88428456Y-54183216D01*
X88496376Y-54347188D01*
X88531000Y-54521259D01*
X88531000Y-54698741D01*
X88496376Y-54872812D01*
X88428456Y-55036784D01*
X88329853Y-55184354D01*
X88204354Y-55309853D01*
X88056784Y-55408456D01*
X87892812Y-55476376D01*
X87743512Y-55506073D01*
X87718742Y-55511000D01*
X87541258Y-55511000D01*
X87516488Y-55506073D01*
X87367188Y-55476376D01*
X87203216Y-55408456D01*
X87055646Y-55309853D01*
X86930147Y-55184354D01*
X86831544Y-55036784D01*
X86763624Y-54872812D01*
X86729000Y-54698741D01*
X86729000Y-54521259D01*
X86763624Y-54347188D01*
X86831544Y-54183216D01*
X86930147Y-54035646D01*
X87055646Y-53910147D01*
X87203216Y-53811544D01*
X87367188Y-53743624D01*
X87516488Y-53713927D01*
X87541258Y-53709000D01*
X87718742Y-53709000D01*
X87743512Y-53713927D01*
G37*
G36*
X83171512Y-53713927D02*
G01*
X83320812Y-53743624D01*
X83484784Y-53811544D01*
X83632354Y-53910147D01*
X83757853Y-54035646D01*
X83856456Y-54183216D01*
X83924376Y-54347188D01*
X83959000Y-54521259D01*
X83959000Y-54698741D01*
X83924376Y-54872812D01*
X83856456Y-55036784D01*
X83757853Y-55184354D01*
X83632354Y-55309853D01*
X83484784Y-55408456D01*
X83320812Y-55476376D01*
X83171512Y-55506073D01*
X83146742Y-55511000D01*
X82969258Y-55511000D01*
X82944488Y-55506073D01*
X82795188Y-55476376D01*
X82631216Y-55408456D01*
X82483646Y-55309853D01*
X82358147Y-55184354D01*
X82259544Y-55036784D01*
X82191624Y-54872812D01*
X82157000Y-54698741D01*
X82157000Y-54521259D01*
X82191624Y-54347188D01*
X82259544Y-54183216D01*
X82358147Y-54035646D01*
X82483646Y-53910147D01*
X82631216Y-53811544D01*
X82795188Y-53743624D01*
X82944488Y-53713927D01*
X82969258Y-53709000D01*
X83146742Y-53709000D01*
X83171512Y-53713927D01*
G37*
G36*
X110349512Y-53713927D02*
G01*
X110498812Y-53743624D01*
X110662784Y-53811544D01*
X110810354Y-53910147D01*
X110935853Y-54035646D01*
X111034456Y-54183216D01*
X111102376Y-54347188D01*
X111137000Y-54521259D01*
X111137000Y-54698741D01*
X111102376Y-54872812D01*
X111034456Y-55036784D01*
X110935853Y-55184354D01*
X110810354Y-55309853D01*
X110662784Y-55408456D01*
X110498812Y-55476376D01*
X110349512Y-55506073D01*
X110324742Y-55511000D01*
X110147258Y-55511000D01*
X110122488Y-55506073D01*
X109973188Y-55476376D01*
X109809216Y-55408456D01*
X109661646Y-55309853D01*
X109536147Y-55184354D01*
X109437544Y-55036784D01*
X109369624Y-54872812D01*
X109335000Y-54698741D01*
X109335000Y-54521259D01*
X109369624Y-54347188D01*
X109437544Y-54183216D01*
X109536147Y-54035646D01*
X109661646Y-53910147D01*
X109809216Y-53811544D01*
X109973188Y-53743624D01*
X110122488Y-53713927D01*
X110147258Y-53709000D01*
X110324742Y-53709000D01*
X110349512Y-53713927D01*
G37*
G36*
X128129512Y-53713927D02*
G01*
X128278812Y-53743624D01*
X128442784Y-53811544D01*
X128590354Y-53910147D01*
X128715853Y-54035646D01*
X128814456Y-54183216D01*
X128882376Y-54347188D01*
X128917000Y-54521259D01*
X128917000Y-54698741D01*
X128882376Y-54872812D01*
X128814456Y-55036784D01*
X128715853Y-55184354D01*
X128590354Y-55309853D01*
X128442784Y-55408456D01*
X128278812Y-55476376D01*
X128129512Y-55506073D01*
X128104742Y-55511000D01*
X127927258Y-55511000D01*
X127902488Y-55506073D01*
X127753188Y-55476376D01*
X127589216Y-55408456D01*
X127441646Y-55309853D01*
X127316147Y-55184354D01*
X127217544Y-55036784D01*
X127149624Y-54872812D01*
X127115000Y-54698741D01*
X127115000Y-54521259D01*
X127149624Y-54347188D01*
X127217544Y-54183216D01*
X127316147Y-54035646D01*
X127441646Y-53910147D01*
X127589216Y-53811544D01*
X127753188Y-53743624D01*
X127902488Y-53713927D01*
X127927258Y-53709000D01*
X128104742Y-53709000D01*
X128129512Y-53713927D01*
G37*
G36*
X173719142Y-53828242D02*
G01*
X173867101Y-53889529D01*
X174000255Y-53978499D01*
X174113501Y-54091745D01*
X174202471Y-54224899D01*
X174263758Y-54372858D01*
X174295000Y-54529925D01*
X174295000Y-54690075D01*
X174263758Y-54847142D01*
X174202471Y-54995101D01*
X174113501Y-55128255D01*
X174000255Y-55241501D01*
X173867101Y-55330471D01*
X173719142Y-55391758D01*
X173562075Y-55423000D01*
X173401925Y-55423000D01*
X173244858Y-55391758D01*
X173096899Y-55330471D01*
X172963745Y-55241501D01*
X172850499Y-55128255D01*
X172761529Y-54995101D01*
X172700242Y-54847142D01*
X172669000Y-54690075D01*
X172669000Y-54529925D01*
X172700242Y-54372858D01*
X172761529Y-54224899D01*
X172850499Y-54091745D01*
X172963745Y-53978499D01*
X173096899Y-53889529D01*
X173244858Y-53828242D01*
X173401925Y-53797000D01*
X173562075Y-53797000D01*
X173719142Y-53828242D01*
G37*
G36*
X163559142Y-53828242D02*
G01*
X163707101Y-53889529D01*
X163840255Y-53978499D01*
X163953501Y-54091745D01*
X164042471Y-54224899D01*
X164103758Y-54372858D01*
X164135000Y-54529925D01*
X164135000Y-54690075D01*
X164103758Y-54847142D01*
X164042471Y-54995101D01*
X163953501Y-55128255D01*
X163840255Y-55241501D01*
X163707101Y-55330471D01*
X163559142Y-55391758D01*
X163402075Y-55423000D01*
X163241925Y-55423000D01*
X163084858Y-55391758D01*
X162936899Y-55330471D01*
X162803745Y-55241501D01*
X162690499Y-55128255D01*
X162601529Y-54995101D01*
X162540242Y-54847142D01*
X162509000Y-54690075D01*
X162509000Y-54529925D01*
X162540242Y-54372858D01*
X162601529Y-54224899D01*
X162690499Y-54091745D01*
X162803745Y-53978499D01*
X162936899Y-53889529D01*
X163084858Y-53828242D01*
X163241925Y-53797000D01*
X163402075Y-53797000D01*
X163559142Y-53828242D01*
G37*
G36*
X59130564Y-52384389D02*
G01*
X59301278Y-52455101D01*
X59321835Y-52463616D01*
X59371471Y-52496782D01*
X59493973Y-52578635D01*
X59640365Y-52725027D01*
X59755385Y-52897167D01*
X59834611Y-53088436D01*
X59875000Y-53291484D01*
X59875000Y-53498516D01*
X59834611Y-53701564D01*
X59755385Y-53892833D01*
X59755384Y-53892835D01*
X59640365Y-54064973D01*
X59493973Y-54211365D01*
X59321835Y-54326384D01*
X59321834Y-54326385D01*
X59321833Y-54326385D01*
X59130564Y-54405611D01*
X58927516Y-54446000D01*
X58720484Y-54446000D01*
X58517436Y-54405611D01*
X58326167Y-54326385D01*
X58326166Y-54326385D01*
X58326165Y-54326384D01*
X58154027Y-54211365D01*
X58007635Y-54064973D01*
X57892616Y-53892835D01*
X57892615Y-53892833D01*
X57813389Y-53701564D01*
X57773000Y-53498516D01*
X57773000Y-53291484D01*
X57813389Y-53088436D01*
X57892615Y-52897167D01*
X58007635Y-52725027D01*
X58154027Y-52578635D01*
X58276529Y-52496782D01*
X58326165Y-52463616D01*
X58346722Y-52455101D01*
X58517436Y-52384389D01*
X58720484Y-52344000D01*
X58927516Y-52344000D01*
X59130564Y-52384389D01*
G37*
G36*
X52630564Y-52384389D02*
G01*
X52801278Y-52455101D01*
X52821835Y-52463616D01*
X52871471Y-52496782D01*
X52993973Y-52578635D01*
X53140365Y-52725027D01*
X53255385Y-52897167D01*
X53334611Y-53088436D01*
X53375000Y-53291484D01*
X53375000Y-53498516D01*
X53334611Y-53701564D01*
X53255385Y-53892833D01*
X53255384Y-53892835D01*
X53140365Y-54064973D01*
X52993973Y-54211365D01*
X52821835Y-54326384D01*
X52821834Y-54326385D01*
X52821833Y-54326385D01*
X52630564Y-54405611D01*
X52427516Y-54446000D01*
X52220484Y-54446000D01*
X52017436Y-54405611D01*
X51826167Y-54326385D01*
X51826166Y-54326385D01*
X51826165Y-54326384D01*
X51654027Y-54211365D01*
X51507635Y-54064973D01*
X51392616Y-53892835D01*
X51392615Y-53892833D01*
X51313389Y-53701564D01*
X51273000Y-53498516D01*
X51273000Y-53291484D01*
X51313389Y-53088436D01*
X51392615Y-52897167D01*
X51507635Y-52725027D01*
X51654027Y-52578635D01*
X51776529Y-52496782D01*
X51826165Y-52463616D01*
X51846722Y-52455101D01*
X52017436Y-52384389D01*
X52220484Y-52344000D01*
X52427516Y-52344000D01*
X52630564Y-52384389D01*
G37*
G36*
X30172810Y-51463135D02*
G01*
X30229707Y-51474452D01*
X30280876Y-51495647D01*
X30390496Y-51541053D01*
X30535196Y-51637738D01*
X30658262Y-51760804D01*
X30754947Y-51905504D01*
X30821548Y-52066294D01*
X30855500Y-52236981D01*
X30855500Y-52411019D01*
X30838440Y-52496784D01*
X30821548Y-52581707D01*
X30771928Y-52701501D01*
X30754947Y-52742496D01*
X30658262Y-52887196D01*
X30535196Y-53010262D01*
X30390496Y-53106947D01*
X30390495Y-53106948D01*
X30390494Y-53106948D01*
X30229707Y-53173548D01*
X30172810Y-53184865D01*
X30059019Y-53207500D01*
X29884981Y-53207500D01*
X29771190Y-53184865D01*
X29714293Y-53173548D01*
X29553506Y-53106948D01*
X29553505Y-53106948D01*
X29553504Y-53106947D01*
X29408804Y-53010262D01*
X29285738Y-52887196D01*
X29189053Y-52742496D01*
X29172072Y-52701501D01*
X29122452Y-52581707D01*
X29105560Y-52496784D01*
X29088500Y-52411019D01*
X29088500Y-52236981D01*
X29122452Y-52066294D01*
X29189053Y-51905504D01*
X29285738Y-51760804D01*
X29408804Y-51637738D01*
X29553504Y-51541053D01*
X29663124Y-51495647D01*
X29714293Y-51474452D01*
X29771190Y-51463135D01*
X29884981Y-51440500D01*
X30059019Y-51440500D01*
X30172810Y-51463135D01*
G37*
G36*
X45412810Y-51463135D02*
G01*
X45469707Y-51474452D01*
X45520876Y-51495647D01*
X45630496Y-51541053D01*
X45775196Y-51637738D01*
X45898262Y-51760804D01*
X45994947Y-51905504D01*
X46061548Y-52066294D01*
X46095500Y-52236981D01*
X46095500Y-52411019D01*
X46078440Y-52496784D01*
X46061548Y-52581707D01*
X46011928Y-52701501D01*
X45994947Y-52742496D01*
X45898262Y-52887196D01*
X45775196Y-53010262D01*
X45630496Y-53106947D01*
X45630495Y-53106948D01*
X45630494Y-53106948D01*
X45469707Y-53173548D01*
X45412810Y-53184865D01*
X45299019Y-53207500D01*
X45124981Y-53207500D01*
X45011190Y-53184865D01*
X44954293Y-53173548D01*
X44793506Y-53106948D01*
X44793505Y-53106948D01*
X44793504Y-53106947D01*
X44648804Y-53010262D01*
X44525738Y-52887196D01*
X44429053Y-52742496D01*
X44412072Y-52701501D01*
X44362452Y-52581707D01*
X44345560Y-52496784D01*
X44328500Y-52411019D01*
X44328500Y-52236981D01*
X44362452Y-52066294D01*
X44429053Y-51905504D01*
X44525738Y-51760804D01*
X44648804Y-51637738D01*
X44793504Y-51541053D01*
X44903124Y-51495647D01*
X44954293Y-51474452D01*
X45011190Y-51463135D01*
X45124981Y-51440500D01*
X45299019Y-51440500D01*
X45412810Y-51463135D01*
G37*
G36*
X65391512Y-51173927D02*
G01*
X65540812Y-51203624D01*
X65704784Y-51271544D01*
X65852354Y-51370147D01*
X65977853Y-51495646D01*
X66076456Y-51643216D01*
X66144376Y-51807188D01*
X66179000Y-51981259D01*
X66179000Y-52158741D01*
X66144376Y-52332812D01*
X66076456Y-52496784D01*
X65977853Y-52644354D01*
X65852354Y-52769853D01*
X65704784Y-52868456D01*
X65540812Y-52936376D01*
X65391512Y-52966073D01*
X65366742Y-52971000D01*
X65189258Y-52971000D01*
X65164488Y-52966073D01*
X65015188Y-52936376D01*
X64851216Y-52868456D01*
X64703646Y-52769853D01*
X64578147Y-52644354D01*
X64479544Y-52496784D01*
X64411624Y-52332812D01*
X64377000Y-52158741D01*
X64377000Y-51981259D01*
X64411624Y-51807188D01*
X64479544Y-51643216D01*
X64578147Y-51495646D01*
X64703646Y-51370147D01*
X64851216Y-51271544D01*
X65015188Y-51203624D01*
X65164488Y-51173927D01*
X65189258Y-51169000D01*
X65366742Y-51169000D01*
X65391512Y-51173927D01*
G37*
G36*
X128129512Y-51173927D02*
G01*
X128278812Y-51203624D01*
X128442784Y-51271544D01*
X128590354Y-51370147D01*
X128715853Y-51495646D01*
X128814456Y-51643216D01*
X128882376Y-51807188D01*
X128917000Y-51981259D01*
X128917000Y-52158741D01*
X128882376Y-52332812D01*
X128814456Y-52496784D01*
X128715853Y-52644354D01*
X128590354Y-52769853D01*
X128442784Y-52868456D01*
X128278812Y-52936376D01*
X128129512Y-52966073D01*
X128104742Y-52971000D01*
X127927258Y-52971000D01*
X127902488Y-52966073D01*
X127753188Y-52936376D01*
X127589216Y-52868456D01*
X127441646Y-52769853D01*
X127316147Y-52644354D01*
X127217544Y-52496784D01*
X127149624Y-52332812D01*
X127115000Y-52158741D01*
X127115000Y-51981259D01*
X127149624Y-51807188D01*
X127217544Y-51643216D01*
X127316147Y-51495646D01*
X127441646Y-51370147D01*
X127589216Y-51271544D01*
X127753188Y-51203624D01*
X127902488Y-51173927D01*
X127927258Y-51169000D01*
X128104742Y-51169000D01*
X128129512Y-51173927D01*
G37*
G36*
X83171512Y-51173927D02*
G01*
X83320812Y-51203624D01*
X83484784Y-51271544D01*
X83632354Y-51370147D01*
X83757853Y-51495646D01*
X83856456Y-51643216D01*
X83924376Y-51807188D01*
X83959000Y-51981259D01*
X83959000Y-52158741D01*
X83924376Y-52332812D01*
X83856456Y-52496784D01*
X83757853Y-52644354D01*
X83632354Y-52769853D01*
X83484784Y-52868456D01*
X83320812Y-52936376D01*
X83171512Y-52966073D01*
X83146742Y-52971000D01*
X82969258Y-52971000D01*
X82944488Y-52966073D01*
X82795188Y-52936376D01*
X82631216Y-52868456D01*
X82483646Y-52769853D01*
X82358147Y-52644354D01*
X82259544Y-52496784D01*
X82191624Y-52332812D01*
X82157000Y-52158741D01*
X82157000Y-51981259D01*
X82191624Y-51807188D01*
X82259544Y-51643216D01*
X82358147Y-51495646D01*
X82483646Y-51370147D01*
X82631216Y-51271544D01*
X82795188Y-51203624D01*
X82944488Y-51173927D01*
X82969258Y-51169000D01*
X83146742Y-51169000D01*
X83171512Y-51173927D01*
G37*
G36*
X87743512Y-51173927D02*
G01*
X87892812Y-51203624D01*
X88056784Y-51271544D01*
X88204354Y-51370147D01*
X88329853Y-51495646D01*
X88428456Y-51643216D01*
X88496376Y-51807188D01*
X88531000Y-51981259D01*
X88531000Y-52158741D01*
X88496376Y-52332812D01*
X88428456Y-52496784D01*
X88329853Y-52644354D01*
X88204354Y-52769853D01*
X88056784Y-52868456D01*
X87892812Y-52936376D01*
X87743512Y-52966073D01*
X87718742Y-52971000D01*
X87541258Y-52971000D01*
X87516488Y-52966073D01*
X87367188Y-52936376D01*
X87203216Y-52868456D01*
X87055646Y-52769853D01*
X86930147Y-52644354D01*
X86831544Y-52496784D01*
X86763624Y-52332812D01*
X86729000Y-52158741D01*
X86729000Y-51981259D01*
X86763624Y-51807188D01*
X86831544Y-51643216D01*
X86930147Y-51495646D01*
X87055646Y-51370147D01*
X87203216Y-51271544D01*
X87367188Y-51203624D01*
X87516488Y-51173927D01*
X87541258Y-51169000D01*
X87718742Y-51169000D01*
X87743512Y-51173927D01*
G37*
G36*
X105523512Y-51173927D02*
G01*
X105672812Y-51203624D01*
X105836784Y-51271544D01*
X105984354Y-51370147D01*
X106109853Y-51495646D01*
X106208456Y-51643216D01*
X106276376Y-51807188D01*
X106311000Y-51981259D01*
X106311000Y-52158741D01*
X106276376Y-52332812D01*
X106208456Y-52496784D01*
X106109853Y-52644354D01*
X105984354Y-52769853D01*
X105836784Y-52868456D01*
X105672812Y-52936376D01*
X105523512Y-52966073D01*
X105498742Y-52971000D01*
X105321258Y-52971000D01*
X105296488Y-52966073D01*
X105147188Y-52936376D01*
X104983216Y-52868456D01*
X104835646Y-52769853D01*
X104710147Y-52644354D01*
X104611544Y-52496784D01*
X104543624Y-52332812D01*
X104509000Y-52158741D01*
X104509000Y-51981259D01*
X104543624Y-51807188D01*
X104611544Y-51643216D01*
X104710147Y-51495646D01*
X104835646Y-51370147D01*
X104983216Y-51271544D01*
X105147188Y-51203624D01*
X105296488Y-51173927D01*
X105321258Y-51169000D01*
X105498742Y-51169000D01*
X105523512Y-51173927D01*
G37*
G36*
X110349512Y-51173927D02*
G01*
X110498812Y-51203624D01*
X110662784Y-51271544D01*
X110810354Y-51370147D01*
X110935853Y-51495646D01*
X111034456Y-51643216D01*
X111102376Y-51807188D01*
X111137000Y-51981259D01*
X111137000Y-52158741D01*
X111102376Y-52332812D01*
X111034456Y-52496784D01*
X110935853Y-52644354D01*
X110810354Y-52769853D01*
X110662784Y-52868456D01*
X110498812Y-52936376D01*
X110349512Y-52966073D01*
X110324742Y-52971000D01*
X110147258Y-52971000D01*
X110122488Y-52966073D01*
X109973188Y-52936376D01*
X109809216Y-52868456D01*
X109661646Y-52769853D01*
X109536147Y-52644354D01*
X109437544Y-52496784D01*
X109369624Y-52332812D01*
X109335000Y-52158741D01*
X109335000Y-51981259D01*
X109369624Y-51807188D01*
X109437544Y-51643216D01*
X109536147Y-51495646D01*
X109661646Y-51370147D01*
X109809216Y-51271544D01*
X109973188Y-51203624D01*
X110122488Y-51173927D01*
X110147258Y-51169000D01*
X110324742Y-51169000D01*
X110349512Y-51173927D01*
G37*
G36*
X173719142Y-51288242D02*
G01*
X173867101Y-51349529D01*
X174000255Y-51438499D01*
X174113501Y-51551745D01*
X174202471Y-51684899D01*
X174263758Y-51832858D01*
X174295000Y-51989925D01*
X174295000Y-52150075D01*
X174263758Y-52307142D01*
X174202471Y-52455101D01*
X174113501Y-52588255D01*
X174000255Y-52701501D01*
X173867101Y-52790471D01*
X173719142Y-52851758D01*
X173562075Y-52883000D01*
X173401925Y-52883000D01*
X173244858Y-52851758D01*
X173096899Y-52790471D01*
X172963745Y-52701501D01*
X172850499Y-52588255D01*
X172761529Y-52455101D01*
X172700242Y-52307142D01*
X172669000Y-52150075D01*
X172669000Y-51989925D01*
X172700242Y-51832858D01*
X172761529Y-51684899D01*
X172850499Y-51551745D01*
X172963745Y-51438499D01*
X173096899Y-51349529D01*
X173244858Y-51288242D01*
X173401925Y-51257000D01*
X173562075Y-51257000D01*
X173719142Y-51288242D01*
G37*
G36*
X163559142Y-51288242D02*
G01*
X163707101Y-51349529D01*
X163840255Y-51438499D01*
X163953501Y-51551745D01*
X164042471Y-51684899D01*
X164103758Y-51832858D01*
X164135000Y-51989925D01*
X164135000Y-52150075D01*
X164103758Y-52307142D01*
X164042471Y-52455101D01*
X163953501Y-52588255D01*
X163840255Y-52701501D01*
X163707101Y-52790471D01*
X163559142Y-52851758D01*
X163402075Y-52883000D01*
X163241925Y-52883000D01*
X163084858Y-52851758D01*
X162936899Y-52790471D01*
X162803745Y-52701501D01*
X162690499Y-52588255D01*
X162601529Y-52455101D01*
X162540242Y-52307142D01*
X162509000Y-52150075D01*
X162509000Y-51989925D01*
X162540242Y-51832858D01*
X162601529Y-51684899D01*
X162690499Y-51551745D01*
X162803745Y-51438499D01*
X162936899Y-51349529D01*
X163084858Y-51288242D01*
X163241925Y-51257000D01*
X163402075Y-51257000D01*
X163559142Y-51288242D01*
G37*
G36*
X45412810Y-48923135D02*
G01*
X45469707Y-48934452D01*
X45630494Y-49001052D01*
X45630496Y-49001053D01*
X45775196Y-49097738D01*
X45898262Y-49220804D01*
X45994947Y-49365504D01*
X46061548Y-49526294D01*
X46095500Y-49696981D01*
X46095500Y-49871019D01*
X46078440Y-49956784D01*
X46061548Y-50041707D01*
X46011928Y-50161501D01*
X45994947Y-50202496D01*
X45898262Y-50347196D01*
X45775196Y-50470262D01*
X45630496Y-50566947D01*
X45630495Y-50566948D01*
X45630494Y-50566948D01*
X45469707Y-50633548D01*
X45412810Y-50644865D01*
X45299019Y-50667500D01*
X45124981Y-50667500D01*
X45011190Y-50644865D01*
X44954293Y-50633548D01*
X44793506Y-50566948D01*
X44793505Y-50566948D01*
X44793504Y-50566947D01*
X44648804Y-50470262D01*
X44525738Y-50347196D01*
X44429053Y-50202496D01*
X44412072Y-50161501D01*
X44362452Y-50041707D01*
X44345560Y-49956784D01*
X44328500Y-49871019D01*
X44328500Y-49696981D01*
X44362452Y-49526294D01*
X44429053Y-49365504D01*
X44525738Y-49220804D01*
X44648804Y-49097738D01*
X44793504Y-49001053D01*
X44793506Y-49001052D01*
X44954293Y-48934452D01*
X45011190Y-48923135D01*
X45124981Y-48900500D01*
X45299019Y-48900500D01*
X45412810Y-48923135D01*
G37*
G36*
X30172810Y-48923135D02*
G01*
X30229707Y-48934452D01*
X30390494Y-49001052D01*
X30390496Y-49001053D01*
X30535196Y-49097738D01*
X30658262Y-49220804D01*
X30754947Y-49365504D01*
X30821548Y-49526294D01*
X30855500Y-49696981D01*
X30855500Y-49871019D01*
X30838440Y-49956784D01*
X30821548Y-50041707D01*
X30771928Y-50161501D01*
X30754947Y-50202496D01*
X30658262Y-50347196D01*
X30535196Y-50470262D01*
X30390496Y-50566947D01*
X30390495Y-50566948D01*
X30390494Y-50566948D01*
X30229707Y-50633548D01*
X30172810Y-50644865D01*
X30059019Y-50667500D01*
X29884981Y-50667500D01*
X29771190Y-50644865D01*
X29714293Y-50633548D01*
X29553506Y-50566948D01*
X29553505Y-50566948D01*
X29553504Y-50566947D01*
X29408804Y-50470262D01*
X29285738Y-50347196D01*
X29189053Y-50202496D01*
X29172072Y-50161501D01*
X29122452Y-50041707D01*
X29105560Y-49956784D01*
X29088500Y-49871019D01*
X29088500Y-49696981D01*
X29122452Y-49526294D01*
X29189053Y-49365504D01*
X29285738Y-49220804D01*
X29408804Y-49097738D01*
X29553504Y-49001053D01*
X29553506Y-49001052D01*
X29714293Y-48934452D01*
X29771190Y-48923135D01*
X29884981Y-48900500D01*
X30059019Y-48900500D01*
X30172810Y-48923135D01*
G37*
G36*
X128129512Y-48633927D02*
G01*
X128278812Y-48663624D01*
X128442784Y-48731544D01*
X128590354Y-48830147D01*
X128715853Y-48955646D01*
X128814456Y-49103216D01*
X128882376Y-49267188D01*
X128917000Y-49441259D01*
X128917000Y-49618741D01*
X128882376Y-49792812D01*
X128814456Y-49956784D01*
X128715853Y-50104354D01*
X128590354Y-50229853D01*
X128442784Y-50328456D01*
X128278812Y-50396376D01*
X128129512Y-50426073D01*
X128104742Y-50431000D01*
X127927258Y-50431000D01*
X127902488Y-50426073D01*
X127753188Y-50396376D01*
X127589216Y-50328456D01*
X127441646Y-50229853D01*
X127316147Y-50104354D01*
X127217544Y-49956784D01*
X127149624Y-49792812D01*
X127115000Y-49618741D01*
X127115000Y-49441259D01*
X127149624Y-49267188D01*
X127217544Y-49103216D01*
X127316147Y-48955646D01*
X127441646Y-48830147D01*
X127589216Y-48731544D01*
X127753188Y-48663624D01*
X127902488Y-48633927D01*
X127927258Y-48629000D01*
X128104742Y-48629000D01*
X128129512Y-48633927D01*
G37*
G36*
X65391512Y-48633927D02*
G01*
X65540812Y-48663624D01*
X65704784Y-48731544D01*
X65852354Y-48830147D01*
X65977853Y-48955646D01*
X66076456Y-49103216D01*
X66144376Y-49267188D01*
X66179000Y-49441259D01*
X66179000Y-49618741D01*
X66144376Y-49792812D01*
X66076456Y-49956784D01*
X65977853Y-50104354D01*
X65852354Y-50229853D01*
X65704784Y-50328456D01*
X65540812Y-50396376D01*
X65391512Y-50426073D01*
X65366742Y-50431000D01*
X65189258Y-50431000D01*
X65164488Y-50426073D01*
X65015188Y-50396376D01*
X64851216Y-50328456D01*
X64703646Y-50229853D01*
X64578147Y-50104354D01*
X64479544Y-49956784D01*
X64411624Y-49792812D01*
X64377000Y-49618741D01*
X64377000Y-49441259D01*
X64411624Y-49267188D01*
X64479544Y-49103216D01*
X64578147Y-48955646D01*
X64703646Y-48830147D01*
X64851216Y-48731544D01*
X65015188Y-48663624D01*
X65164488Y-48633927D01*
X65189258Y-48629000D01*
X65366742Y-48629000D01*
X65391512Y-48633927D01*
G37*
G36*
X110349512Y-48633927D02*
G01*
X110498812Y-48663624D01*
X110662784Y-48731544D01*
X110810354Y-48830147D01*
X110935853Y-48955646D01*
X111034456Y-49103216D01*
X111102376Y-49267188D01*
X111137000Y-49441259D01*
X111137000Y-49618741D01*
X111102376Y-49792812D01*
X111034456Y-49956784D01*
X110935853Y-50104354D01*
X110810354Y-50229853D01*
X110662784Y-50328456D01*
X110498812Y-50396376D01*
X110349512Y-50426073D01*
X110324742Y-50431000D01*
X110147258Y-50431000D01*
X110122488Y-50426073D01*
X109973188Y-50396376D01*
X109809216Y-50328456D01*
X109661646Y-50229853D01*
X109536147Y-50104354D01*
X109437544Y-49956784D01*
X109369624Y-49792812D01*
X109335000Y-49618741D01*
X109335000Y-49441259D01*
X109369624Y-49267188D01*
X109437544Y-49103216D01*
X109536147Y-48955646D01*
X109661646Y-48830147D01*
X109809216Y-48731544D01*
X109973188Y-48663624D01*
X110122488Y-48633927D01*
X110147258Y-48629000D01*
X110324742Y-48629000D01*
X110349512Y-48633927D01*
G37*
G36*
X87743512Y-48633927D02*
G01*
X87892812Y-48663624D01*
X88056784Y-48731544D01*
X88204354Y-48830147D01*
X88329853Y-48955646D01*
X88428456Y-49103216D01*
X88496376Y-49267188D01*
X88531000Y-49441259D01*
X88531000Y-49618741D01*
X88496376Y-49792812D01*
X88428456Y-49956784D01*
X88329853Y-50104354D01*
X88204354Y-50229853D01*
X88056784Y-50328456D01*
X87892812Y-50396376D01*
X87743512Y-50426073D01*
X87718742Y-50431000D01*
X87541258Y-50431000D01*
X87516488Y-50426073D01*
X87367188Y-50396376D01*
X87203216Y-50328456D01*
X87055646Y-50229853D01*
X86930147Y-50104354D01*
X86831544Y-49956784D01*
X86763624Y-49792812D01*
X86729000Y-49618741D01*
X86729000Y-49441259D01*
X86763624Y-49267188D01*
X86831544Y-49103216D01*
X86930147Y-48955646D01*
X87055646Y-48830147D01*
X87203216Y-48731544D01*
X87367188Y-48663624D01*
X87516488Y-48633927D01*
X87541258Y-48629000D01*
X87718742Y-48629000D01*
X87743512Y-48633927D01*
G37*
G36*
X105523512Y-48633927D02*
G01*
X105672812Y-48663624D01*
X105836784Y-48731544D01*
X105984354Y-48830147D01*
X106109853Y-48955646D01*
X106208456Y-49103216D01*
X106276376Y-49267188D01*
X106311000Y-49441259D01*
X106311000Y-49618741D01*
X106276376Y-49792812D01*
X106208456Y-49956784D01*
X106109853Y-50104354D01*
X105984354Y-50229853D01*
X105836784Y-50328456D01*
X105672812Y-50396376D01*
X105523512Y-50426073D01*
X105498742Y-50431000D01*
X105321258Y-50431000D01*
X105296488Y-50426073D01*
X105147188Y-50396376D01*
X104983216Y-50328456D01*
X104835646Y-50229853D01*
X104710147Y-50104354D01*
X104611544Y-49956784D01*
X104543624Y-49792812D01*
X104509000Y-49618741D01*
X104509000Y-49441259D01*
X104543624Y-49267188D01*
X104611544Y-49103216D01*
X104710147Y-48955646D01*
X104835646Y-48830147D01*
X104983216Y-48731544D01*
X105147188Y-48663624D01*
X105296488Y-48633927D01*
X105321258Y-48629000D01*
X105498742Y-48629000D01*
X105523512Y-48633927D01*
G37*
G36*
X83171512Y-48633927D02*
G01*
X83320812Y-48663624D01*
X83484784Y-48731544D01*
X83632354Y-48830147D01*
X83757853Y-48955646D01*
X83856456Y-49103216D01*
X83924376Y-49267188D01*
X83959000Y-49441259D01*
X83959000Y-49618741D01*
X83924376Y-49792812D01*
X83856456Y-49956784D01*
X83757853Y-50104354D01*
X83632354Y-50229853D01*
X83484784Y-50328456D01*
X83320812Y-50396376D01*
X83171512Y-50426073D01*
X83146742Y-50431000D01*
X82969258Y-50431000D01*
X82944488Y-50426073D01*
X82795188Y-50396376D01*
X82631216Y-50328456D01*
X82483646Y-50229853D01*
X82358147Y-50104354D01*
X82259544Y-49956784D01*
X82191624Y-49792812D01*
X82157000Y-49618741D01*
X82157000Y-49441259D01*
X82191624Y-49267188D01*
X82259544Y-49103216D01*
X82358147Y-48955646D01*
X82483646Y-48830147D01*
X82631216Y-48731544D01*
X82795188Y-48663624D01*
X82944488Y-48633927D01*
X82969258Y-48629000D01*
X83146742Y-48629000D01*
X83171512Y-48633927D01*
G37*
G36*
X173719142Y-48748242D02*
G01*
X173867101Y-48809529D01*
X174000255Y-48898499D01*
X174113501Y-49011745D01*
X174202471Y-49144899D01*
X174263758Y-49292858D01*
X174295000Y-49449925D01*
X174295000Y-49610075D01*
X174263758Y-49767142D01*
X174202471Y-49915101D01*
X174113501Y-50048255D01*
X174000255Y-50161501D01*
X173867101Y-50250471D01*
X173719142Y-50311758D01*
X173562075Y-50343000D01*
X173401925Y-50343000D01*
X173244858Y-50311758D01*
X173096899Y-50250471D01*
X172963745Y-50161501D01*
X172850499Y-50048255D01*
X172761529Y-49915101D01*
X172700242Y-49767142D01*
X172669000Y-49610075D01*
X172669000Y-49449925D01*
X172700242Y-49292858D01*
X172761529Y-49144899D01*
X172850499Y-49011745D01*
X172963745Y-48898499D01*
X173096899Y-48809529D01*
X173244858Y-48748242D01*
X173401925Y-48717000D01*
X173562075Y-48717000D01*
X173719142Y-48748242D01*
G37*
G36*
X163559142Y-48748242D02*
G01*
X163707101Y-48809529D01*
X163840255Y-48898499D01*
X163953501Y-49011745D01*
X164042471Y-49144899D01*
X164103758Y-49292858D01*
X164135000Y-49449925D01*
X164135000Y-49610075D01*
X164103758Y-49767142D01*
X164042471Y-49915101D01*
X163953501Y-50048255D01*
X163840255Y-50161501D01*
X163707101Y-50250471D01*
X163559142Y-50311758D01*
X163402075Y-50343000D01*
X163241925Y-50343000D01*
X163084858Y-50311758D01*
X162936899Y-50250471D01*
X162803745Y-50161501D01*
X162690499Y-50048255D01*
X162601529Y-49915101D01*
X162540242Y-49767142D01*
X162509000Y-49610075D01*
X162509000Y-49449925D01*
X162540242Y-49292858D01*
X162601529Y-49144899D01*
X162690499Y-49011745D01*
X162803745Y-48898499D01*
X162936899Y-48809529D01*
X163084858Y-48748242D01*
X163241925Y-48717000D01*
X163402075Y-48717000D01*
X163559142Y-48748242D01*
G37*
G36*
X59130564Y-47884389D02*
G01*
X59321833Y-47963615D01*
X59321835Y-47963616D01*
X59416616Y-48026947D01*
X59493973Y-48078635D01*
X59640365Y-48225027D01*
X59755385Y-48397167D01*
X59834611Y-48588436D01*
X59875000Y-48791484D01*
X59875000Y-48998516D01*
X59834611Y-49201564D01*
X59807428Y-49267189D01*
X59755384Y-49392835D01*
X59640365Y-49564973D01*
X59493973Y-49711365D01*
X59321835Y-49826384D01*
X59321834Y-49826385D01*
X59321833Y-49826385D01*
X59130564Y-49905611D01*
X58927516Y-49946000D01*
X58720484Y-49946000D01*
X58517436Y-49905611D01*
X58326167Y-49826385D01*
X58326166Y-49826385D01*
X58326165Y-49826384D01*
X58154027Y-49711365D01*
X58007635Y-49564973D01*
X57892616Y-49392835D01*
X57840572Y-49267189D01*
X57813389Y-49201564D01*
X57773000Y-48998516D01*
X57773000Y-48791484D01*
X57813389Y-48588436D01*
X57892615Y-48397167D01*
X58007635Y-48225027D01*
X58154027Y-48078635D01*
X58231384Y-48026947D01*
X58326165Y-47963616D01*
X58326167Y-47963615D01*
X58517436Y-47884389D01*
X58720484Y-47844000D01*
X58927516Y-47844000D01*
X59130564Y-47884389D01*
G37*
G36*
X52630564Y-47884389D02*
G01*
X52821833Y-47963615D01*
X52821835Y-47963616D01*
X52916616Y-48026947D01*
X52993973Y-48078635D01*
X53140365Y-48225027D01*
X53255385Y-48397167D01*
X53334611Y-48588436D01*
X53375000Y-48791484D01*
X53375000Y-48998516D01*
X53334611Y-49201564D01*
X53307428Y-49267189D01*
X53255384Y-49392835D01*
X53140365Y-49564973D01*
X52993973Y-49711365D01*
X52821835Y-49826384D01*
X52821834Y-49826385D01*
X52821833Y-49826385D01*
X52630564Y-49905611D01*
X52427516Y-49946000D01*
X52220484Y-49946000D01*
X52017436Y-49905611D01*
X51826167Y-49826385D01*
X51826166Y-49826385D01*
X51826165Y-49826384D01*
X51654027Y-49711365D01*
X51507635Y-49564973D01*
X51392616Y-49392835D01*
X51340572Y-49267189D01*
X51313389Y-49201564D01*
X51273000Y-48998516D01*
X51273000Y-48791484D01*
X51313389Y-48588436D01*
X51392615Y-48397167D01*
X51507635Y-48225027D01*
X51654027Y-48078635D01*
X51731384Y-48026947D01*
X51826165Y-47963616D01*
X51826167Y-47963615D01*
X52017436Y-47884389D01*
X52220484Y-47844000D01*
X52427516Y-47844000D01*
X52630564Y-47884389D01*
G37*
G36*
X30172810Y-46383135D02*
G01*
X30229707Y-46394452D01*
X30280876Y-46415647D01*
X30390496Y-46461053D01*
X30535196Y-46557738D01*
X30658262Y-46680804D01*
X30754947Y-46825504D01*
X30821548Y-46986294D01*
X30855500Y-47156981D01*
X30855500Y-47331019D01*
X30838440Y-47416784D01*
X30821548Y-47501707D01*
X30771928Y-47621501D01*
X30754947Y-47662496D01*
X30658262Y-47807196D01*
X30535196Y-47930262D01*
X30390496Y-48026947D01*
X30390495Y-48026948D01*
X30390494Y-48026948D01*
X30229707Y-48093548D01*
X30172810Y-48104865D01*
X30059019Y-48127500D01*
X29884981Y-48127500D01*
X29771190Y-48104865D01*
X29714293Y-48093548D01*
X29553506Y-48026948D01*
X29553505Y-48026948D01*
X29553504Y-48026947D01*
X29408804Y-47930262D01*
X29285738Y-47807196D01*
X29189053Y-47662496D01*
X29172072Y-47621501D01*
X29122452Y-47501707D01*
X29105560Y-47416784D01*
X29088500Y-47331019D01*
X29088500Y-47156981D01*
X29122452Y-46986294D01*
X29189053Y-46825504D01*
X29285738Y-46680804D01*
X29408804Y-46557738D01*
X29553504Y-46461053D01*
X29663124Y-46415647D01*
X29714293Y-46394452D01*
X29771190Y-46383135D01*
X29884981Y-46360500D01*
X30059019Y-46360500D01*
X30172810Y-46383135D01*
G37*
G36*
X45412810Y-46383135D02*
G01*
X45469707Y-46394452D01*
X45520876Y-46415647D01*
X45630496Y-46461053D01*
X45775196Y-46557738D01*
X45898262Y-46680804D01*
X45994947Y-46825504D01*
X46061548Y-46986294D01*
X46095500Y-47156981D01*
X46095500Y-47331019D01*
X46078440Y-47416784D01*
X46061548Y-47501707D01*
X46011928Y-47621501D01*
X45994947Y-47662496D01*
X45898262Y-47807196D01*
X45775196Y-47930262D01*
X45630496Y-48026947D01*
X45630495Y-48026948D01*
X45630494Y-48026948D01*
X45469707Y-48093548D01*
X45412810Y-48104865D01*
X45299019Y-48127500D01*
X45124981Y-48127500D01*
X45011190Y-48104865D01*
X44954293Y-48093548D01*
X44793506Y-48026948D01*
X44793505Y-48026948D01*
X44793504Y-48026947D01*
X44648804Y-47930262D01*
X44525738Y-47807196D01*
X44429053Y-47662496D01*
X44412072Y-47621501D01*
X44362452Y-47501707D01*
X44345560Y-47416784D01*
X44328500Y-47331019D01*
X44328500Y-47156981D01*
X44362452Y-46986294D01*
X44429053Y-46825504D01*
X44525738Y-46680804D01*
X44648804Y-46557738D01*
X44793504Y-46461053D01*
X44903124Y-46415647D01*
X44954293Y-46394452D01*
X45011190Y-46383135D01*
X45124981Y-46360500D01*
X45299019Y-46360500D01*
X45412810Y-46383135D01*
G37*
G36*
X128129512Y-46093927D02*
G01*
X128278812Y-46123624D01*
X128442784Y-46191544D01*
X128590354Y-46290147D01*
X128715853Y-46415646D01*
X128814456Y-46563216D01*
X128882376Y-46727188D01*
X128917000Y-46901259D01*
X128917000Y-47078741D01*
X128882376Y-47252812D01*
X128814456Y-47416784D01*
X128715853Y-47564354D01*
X128590354Y-47689853D01*
X128442784Y-47788456D01*
X128278812Y-47856376D01*
X128129512Y-47886073D01*
X128104742Y-47891000D01*
X127927258Y-47891000D01*
X127902488Y-47886073D01*
X127753188Y-47856376D01*
X127589216Y-47788456D01*
X127441646Y-47689853D01*
X127316147Y-47564354D01*
X127217544Y-47416784D01*
X127149624Y-47252812D01*
X127115000Y-47078741D01*
X127115000Y-46901259D01*
X127149624Y-46727188D01*
X127217544Y-46563216D01*
X127316147Y-46415646D01*
X127441646Y-46290147D01*
X127589216Y-46191544D01*
X127753188Y-46123624D01*
X127902488Y-46093927D01*
X127927258Y-46089000D01*
X128104742Y-46089000D01*
X128129512Y-46093927D01*
G37*
G36*
X65391512Y-46093927D02*
G01*
X65540812Y-46123624D01*
X65704784Y-46191544D01*
X65852354Y-46290147D01*
X65977853Y-46415646D01*
X66076456Y-46563216D01*
X66144376Y-46727188D01*
X66179000Y-46901259D01*
X66179000Y-47078741D01*
X66144376Y-47252812D01*
X66076456Y-47416784D01*
X65977853Y-47564354D01*
X65852354Y-47689853D01*
X65704784Y-47788456D01*
X65540812Y-47856376D01*
X65391512Y-47886073D01*
X65366742Y-47891000D01*
X65189258Y-47891000D01*
X65164488Y-47886073D01*
X65015188Y-47856376D01*
X64851216Y-47788456D01*
X64703646Y-47689853D01*
X64578147Y-47564354D01*
X64479544Y-47416784D01*
X64411624Y-47252812D01*
X64377000Y-47078741D01*
X64377000Y-46901259D01*
X64411624Y-46727188D01*
X64479544Y-46563216D01*
X64578147Y-46415646D01*
X64703646Y-46290147D01*
X64851216Y-46191544D01*
X65015188Y-46123624D01*
X65164488Y-46093927D01*
X65189258Y-46089000D01*
X65366742Y-46089000D01*
X65391512Y-46093927D01*
G37*
G36*
X83171512Y-46093927D02*
G01*
X83320812Y-46123624D01*
X83484784Y-46191544D01*
X83632354Y-46290147D01*
X83757853Y-46415646D01*
X83856456Y-46563216D01*
X83924376Y-46727188D01*
X83959000Y-46901259D01*
X83959000Y-47078741D01*
X83924376Y-47252812D01*
X83856456Y-47416784D01*
X83757853Y-47564354D01*
X83632354Y-47689853D01*
X83484784Y-47788456D01*
X83320812Y-47856376D01*
X83171512Y-47886073D01*
X83146742Y-47891000D01*
X82969258Y-47891000D01*
X82944488Y-47886073D01*
X82795188Y-47856376D01*
X82631216Y-47788456D01*
X82483646Y-47689853D01*
X82358147Y-47564354D01*
X82259544Y-47416784D01*
X82191624Y-47252812D01*
X82157000Y-47078741D01*
X82157000Y-46901259D01*
X82191624Y-46727188D01*
X82259544Y-46563216D01*
X82358147Y-46415646D01*
X82483646Y-46290147D01*
X82631216Y-46191544D01*
X82795188Y-46123624D01*
X82944488Y-46093927D01*
X82969258Y-46089000D01*
X83146742Y-46089000D01*
X83171512Y-46093927D01*
G37*
G36*
X87743512Y-46093927D02*
G01*
X87892812Y-46123624D01*
X88056784Y-46191544D01*
X88204354Y-46290147D01*
X88329853Y-46415646D01*
X88428456Y-46563216D01*
X88496376Y-46727188D01*
X88531000Y-46901259D01*
X88531000Y-47078741D01*
X88496376Y-47252812D01*
X88428456Y-47416784D01*
X88329853Y-47564354D01*
X88204354Y-47689853D01*
X88056784Y-47788456D01*
X87892812Y-47856376D01*
X87743512Y-47886073D01*
X87718742Y-47891000D01*
X87541258Y-47891000D01*
X87516488Y-47886073D01*
X87367188Y-47856376D01*
X87203216Y-47788456D01*
X87055646Y-47689853D01*
X86930147Y-47564354D01*
X86831544Y-47416784D01*
X86763624Y-47252812D01*
X86729000Y-47078741D01*
X86729000Y-46901259D01*
X86763624Y-46727188D01*
X86831544Y-46563216D01*
X86930147Y-46415646D01*
X87055646Y-46290147D01*
X87203216Y-46191544D01*
X87367188Y-46123624D01*
X87516488Y-46093927D01*
X87541258Y-46089000D01*
X87718742Y-46089000D01*
X87743512Y-46093927D01*
G37*
G36*
X105523512Y-46093927D02*
G01*
X105672812Y-46123624D01*
X105836784Y-46191544D01*
X105984354Y-46290147D01*
X106109853Y-46415646D01*
X106208456Y-46563216D01*
X106276376Y-46727188D01*
X106311000Y-46901259D01*
X106311000Y-47078741D01*
X106276376Y-47252812D01*
X106208456Y-47416784D01*
X106109853Y-47564354D01*
X105984354Y-47689853D01*
X105836784Y-47788456D01*
X105672812Y-47856376D01*
X105523512Y-47886073D01*
X105498742Y-47891000D01*
X105321258Y-47891000D01*
X105296488Y-47886073D01*
X105147188Y-47856376D01*
X104983216Y-47788456D01*
X104835646Y-47689853D01*
X104710147Y-47564354D01*
X104611544Y-47416784D01*
X104543624Y-47252812D01*
X104509000Y-47078741D01*
X104509000Y-46901259D01*
X104543624Y-46727188D01*
X104611544Y-46563216D01*
X104710147Y-46415646D01*
X104835646Y-46290147D01*
X104983216Y-46191544D01*
X105147188Y-46123624D01*
X105296488Y-46093927D01*
X105321258Y-46089000D01*
X105498742Y-46089000D01*
X105523512Y-46093927D01*
G37*
G36*
X110349512Y-46093927D02*
G01*
X110498812Y-46123624D01*
X110662784Y-46191544D01*
X110810354Y-46290147D01*
X110935853Y-46415646D01*
X111034456Y-46563216D01*
X111102376Y-46727188D01*
X111137000Y-46901259D01*
X111137000Y-47078741D01*
X111102376Y-47252812D01*
X111034456Y-47416784D01*
X110935853Y-47564354D01*
X110810354Y-47689853D01*
X110662784Y-47788456D01*
X110498812Y-47856376D01*
X110349512Y-47886073D01*
X110324742Y-47891000D01*
X110147258Y-47891000D01*
X110122488Y-47886073D01*
X109973188Y-47856376D01*
X109809216Y-47788456D01*
X109661646Y-47689853D01*
X109536147Y-47564354D01*
X109437544Y-47416784D01*
X109369624Y-47252812D01*
X109335000Y-47078741D01*
X109335000Y-46901259D01*
X109369624Y-46727188D01*
X109437544Y-46563216D01*
X109536147Y-46415646D01*
X109661646Y-46290147D01*
X109809216Y-46191544D01*
X109973188Y-46123624D01*
X110122488Y-46093927D01*
X110147258Y-46089000D01*
X110324742Y-46089000D01*
X110349512Y-46093927D01*
G37*
G36*
X163559142Y-46208242D02*
G01*
X163707101Y-46269529D01*
X163840255Y-46358499D01*
X163953501Y-46471745D01*
X164042471Y-46604899D01*
X164103758Y-46752858D01*
X164135000Y-46909925D01*
X164135000Y-47070075D01*
X164103758Y-47227142D01*
X164042471Y-47375101D01*
X163953501Y-47508255D01*
X163840255Y-47621501D01*
X163707101Y-47710471D01*
X163559142Y-47771758D01*
X163402075Y-47803000D01*
X163241925Y-47803000D01*
X163084858Y-47771758D01*
X162936899Y-47710471D01*
X162803745Y-47621501D01*
X162690499Y-47508255D01*
X162601529Y-47375101D01*
X162540242Y-47227142D01*
X162509000Y-47070075D01*
X162509000Y-46909925D01*
X162540242Y-46752858D01*
X162601529Y-46604899D01*
X162690499Y-46471745D01*
X162803745Y-46358499D01*
X162936899Y-46269529D01*
X163084858Y-46208242D01*
X163241925Y-46177000D01*
X163402075Y-46177000D01*
X163559142Y-46208242D01*
G37*
G36*
X173719142Y-46208242D02*
G01*
X173867101Y-46269529D01*
X174000255Y-46358499D01*
X174113501Y-46471745D01*
X174202471Y-46604899D01*
X174263758Y-46752858D01*
X174295000Y-46909925D01*
X174295000Y-47070075D01*
X174263758Y-47227142D01*
X174202471Y-47375101D01*
X174113501Y-47508255D01*
X174000255Y-47621501D01*
X173867101Y-47710471D01*
X173719142Y-47771758D01*
X173562075Y-47803000D01*
X173401925Y-47803000D01*
X173244858Y-47771758D01*
X173096899Y-47710471D01*
X172963745Y-47621501D01*
X172850499Y-47508255D01*
X172761529Y-47375101D01*
X172700242Y-47227142D01*
X172669000Y-47070075D01*
X172669000Y-46909925D01*
X172700242Y-46752858D01*
X172761529Y-46604899D01*
X172850499Y-46471745D01*
X172963745Y-46358499D01*
X173096899Y-46269529D01*
X173244858Y-46208242D01*
X173401925Y-46177000D01*
X173562075Y-46177000D01*
X173719142Y-46208242D01*
G37*
G36*
X45412810Y-43843135D02*
G01*
X45469707Y-43854452D01*
X45520876Y-43875647D01*
X45630496Y-43921053D01*
X45775196Y-44017738D01*
X45898262Y-44140804D01*
X45994947Y-44285504D01*
X46061548Y-44446294D01*
X46095500Y-44616981D01*
X46095500Y-44791019D01*
X46078440Y-44876784D01*
X46061548Y-44961707D01*
X46011928Y-45081501D01*
X45994947Y-45122496D01*
X45898262Y-45267196D01*
X45775196Y-45390262D01*
X45630496Y-45486947D01*
X45630495Y-45486948D01*
X45630494Y-45486948D01*
X45469707Y-45553548D01*
X45412810Y-45564865D01*
X45299019Y-45587500D01*
X45124981Y-45587500D01*
X45011190Y-45564865D01*
X44954293Y-45553548D01*
X44793506Y-45486948D01*
X44793505Y-45486948D01*
X44793504Y-45486947D01*
X44648804Y-45390262D01*
X44525738Y-45267196D01*
X44429053Y-45122496D01*
X44412072Y-45081501D01*
X44362452Y-44961707D01*
X44345560Y-44876784D01*
X44328500Y-44791019D01*
X44328500Y-44616981D01*
X44362452Y-44446294D01*
X44429053Y-44285504D01*
X44525738Y-44140804D01*
X44648804Y-44017738D01*
X44793504Y-43921053D01*
X44903124Y-43875647D01*
X44954293Y-43854452D01*
X45011190Y-43843135D01*
X45124981Y-43820500D01*
X45299019Y-43820500D01*
X45412810Y-43843135D01*
G37*
G36*
X30172810Y-43843135D02*
G01*
X30229707Y-43854452D01*
X30280876Y-43875647D01*
X30390496Y-43921053D01*
X30535196Y-44017738D01*
X30658262Y-44140804D01*
X30754947Y-44285504D01*
X30821548Y-44446294D01*
X30855500Y-44616981D01*
X30855500Y-44791019D01*
X30838440Y-44876784D01*
X30821548Y-44961707D01*
X30771928Y-45081501D01*
X30754947Y-45122496D01*
X30658262Y-45267196D01*
X30535196Y-45390262D01*
X30390496Y-45486947D01*
X30390495Y-45486948D01*
X30390494Y-45486948D01*
X30229707Y-45553548D01*
X30172810Y-45564865D01*
X30059019Y-45587500D01*
X29884981Y-45587500D01*
X29771190Y-45564865D01*
X29714293Y-45553548D01*
X29553506Y-45486948D01*
X29553505Y-45486948D01*
X29553504Y-45486947D01*
X29408804Y-45390262D01*
X29285738Y-45267196D01*
X29189053Y-45122496D01*
X29172072Y-45081501D01*
X29122452Y-44961707D01*
X29105560Y-44876784D01*
X29088500Y-44791019D01*
X29088500Y-44616981D01*
X29122452Y-44446294D01*
X29189053Y-44285504D01*
X29285738Y-44140804D01*
X29408804Y-44017738D01*
X29553504Y-43921053D01*
X29663124Y-43875647D01*
X29714293Y-43854452D01*
X29771190Y-43843135D01*
X29884981Y-43820500D01*
X30059019Y-43820500D01*
X30172810Y-43843135D01*
G37*
G36*
X87743512Y-43553927D02*
G01*
X87892812Y-43583624D01*
X88056784Y-43651544D01*
X88204354Y-43750147D01*
X88329853Y-43875646D01*
X88428456Y-44023216D01*
X88496376Y-44187188D01*
X88531000Y-44361259D01*
X88531000Y-44538741D01*
X88496376Y-44712812D01*
X88428456Y-44876784D01*
X88329853Y-45024354D01*
X88204354Y-45149853D01*
X88056784Y-45248456D01*
X87892812Y-45316376D01*
X87743512Y-45346073D01*
X87718742Y-45351000D01*
X87541258Y-45351000D01*
X87516488Y-45346073D01*
X87367188Y-45316376D01*
X87203216Y-45248456D01*
X87055646Y-45149853D01*
X86930147Y-45024354D01*
X86831544Y-44876784D01*
X86763624Y-44712812D01*
X86729000Y-44538741D01*
X86729000Y-44361259D01*
X86763624Y-44187188D01*
X86831544Y-44023216D01*
X86930147Y-43875646D01*
X87055646Y-43750147D01*
X87203216Y-43651544D01*
X87367188Y-43583624D01*
X87516488Y-43553927D01*
X87541258Y-43549000D01*
X87718742Y-43549000D01*
X87743512Y-43553927D01*
G37*
G36*
X83171512Y-43553927D02*
G01*
X83320812Y-43583624D01*
X83484784Y-43651544D01*
X83632354Y-43750147D01*
X83757853Y-43875646D01*
X83856456Y-44023216D01*
X83924376Y-44187188D01*
X83959000Y-44361259D01*
X83959000Y-44538741D01*
X83924376Y-44712812D01*
X83856456Y-44876784D01*
X83757853Y-45024354D01*
X83632354Y-45149853D01*
X83484784Y-45248456D01*
X83320812Y-45316376D01*
X83171512Y-45346073D01*
X83146742Y-45351000D01*
X82969258Y-45351000D01*
X82944488Y-45346073D01*
X82795188Y-45316376D01*
X82631216Y-45248456D01*
X82483646Y-45149853D01*
X82358147Y-45024354D01*
X82259544Y-44876784D01*
X82191624Y-44712812D01*
X82157000Y-44538741D01*
X82157000Y-44361259D01*
X82191624Y-44187188D01*
X82259544Y-44023216D01*
X82358147Y-43875646D01*
X82483646Y-43750147D01*
X82631216Y-43651544D01*
X82795188Y-43583624D01*
X82944488Y-43553927D01*
X82969258Y-43549000D01*
X83146742Y-43549000D01*
X83171512Y-43553927D01*
G37*
G36*
X105523512Y-43553927D02*
G01*
X105672812Y-43583624D01*
X105836784Y-43651544D01*
X105984354Y-43750147D01*
X106109853Y-43875646D01*
X106208456Y-44023216D01*
X106276376Y-44187188D01*
X106311000Y-44361259D01*
X106311000Y-44538741D01*
X106276376Y-44712812D01*
X106208456Y-44876784D01*
X106109853Y-45024354D01*
X105984354Y-45149853D01*
X105836784Y-45248456D01*
X105672812Y-45316376D01*
X105523512Y-45346073D01*
X105498742Y-45351000D01*
X105321258Y-45351000D01*
X105296488Y-45346073D01*
X105147188Y-45316376D01*
X104983216Y-45248456D01*
X104835646Y-45149853D01*
X104710147Y-45024354D01*
X104611544Y-44876784D01*
X104543624Y-44712812D01*
X104509000Y-44538741D01*
X104509000Y-44361259D01*
X104543624Y-44187188D01*
X104611544Y-44023216D01*
X104710147Y-43875646D01*
X104835646Y-43750147D01*
X104983216Y-43651544D01*
X105147188Y-43583624D01*
X105296488Y-43553927D01*
X105321258Y-43549000D01*
X105498742Y-43549000D01*
X105523512Y-43553927D01*
G37*
G36*
X65391512Y-43553927D02*
G01*
X65540812Y-43583624D01*
X65704784Y-43651544D01*
X65852354Y-43750147D01*
X65977853Y-43875646D01*
X66076456Y-44023216D01*
X66144376Y-44187188D01*
X66179000Y-44361259D01*
X66179000Y-44538741D01*
X66144376Y-44712812D01*
X66076456Y-44876784D01*
X65977853Y-45024354D01*
X65852354Y-45149853D01*
X65704784Y-45248456D01*
X65540812Y-45316376D01*
X65391512Y-45346073D01*
X65366742Y-45351000D01*
X65189258Y-45351000D01*
X65164488Y-45346073D01*
X65015188Y-45316376D01*
X64851216Y-45248456D01*
X64703646Y-45149853D01*
X64578147Y-45024354D01*
X64479544Y-44876784D01*
X64411624Y-44712812D01*
X64377000Y-44538741D01*
X64377000Y-44361259D01*
X64411624Y-44187188D01*
X64479544Y-44023216D01*
X64578147Y-43875646D01*
X64703646Y-43750147D01*
X64851216Y-43651544D01*
X65015188Y-43583624D01*
X65164488Y-43553927D01*
X65189258Y-43549000D01*
X65366742Y-43549000D01*
X65391512Y-43553927D01*
G37*
G36*
X128129512Y-43553927D02*
G01*
X128278812Y-43583624D01*
X128442784Y-43651544D01*
X128590354Y-43750147D01*
X128715853Y-43875646D01*
X128814456Y-44023216D01*
X128882376Y-44187188D01*
X128917000Y-44361259D01*
X128917000Y-44538741D01*
X128882376Y-44712812D01*
X128814456Y-44876784D01*
X128715853Y-45024354D01*
X128590354Y-45149853D01*
X128442784Y-45248456D01*
X128278812Y-45316376D01*
X128129512Y-45346073D01*
X128104742Y-45351000D01*
X127927258Y-45351000D01*
X127902488Y-45346073D01*
X127753188Y-45316376D01*
X127589216Y-45248456D01*
X127441646Y-45149853D01*
X127316147Y-45024354D01*
X127217544Y-44876784D01*
X127149624Y-44712812D01*
X127115000Y-44538741D01*
X127115000Y-44361259D01*
X127149624Y-44187188D01*
X127217544Y-44023216D01*
X127316147Y-43875646D01*
X127441646Y-43750147D01*
X127589216Y-43651544D01*
X127753188Y-43583624D01*
X127902488Y-43553927D01*
X127927258Y-43549000D01*
X128104742Y-43549000D01*
X128129512Y-43553927D01*
G37*
G36*
X110349512Y-43553927D02*
G01*
X110498812Y-43583624D01*
X110662784Y-43651544D01*
X110810354Y-43750147D01*
X110935853Y-43875646D01*
X111034456Y-44023216D01*
X111102376Y-44187188D01*
X111137000Y-44361259D01*
X111137000Y-44538741D01*
X111102376Y-44712812D01*
X111034456Y-44876784D01*
X110935853Y-45024354D01*
X110810354Y-45149853D01*
X110662784Y-45248456D01*
X110498812Y-45316376D01*
X110349512Y-45346073D01*
X110324742Y-45351000D01*
X110147258Y-45351000D01*
X110122488Y-45346073D01*
X109973188Y-45316376D01*
X109809216Y-45248456D01*
X109661646Y-45149853D01*
X109536147Y-45024354D01*
X109437544Y-44876784D01*
X109369624Y-44712812D01*
X109335000Y-44538741D01*
X109335000Y-44361259D01*
X109369624Y-44187188D01*
X109437544Y-44023216D01*
X109536147Y-43875646D01*
X109661646Y-43750147D01*
X109809216Y-43651544D01*
X109973188Y-43583624D01*
X110122488Y-43553927D01*
X110147258Y-43549000D01*
X110324742Y-43549000D01*
X110349512Y-43553927D01*
G37*
G36*
X173719142Y-43668242D02*
G01*
X173867101Y-43729529D01*
X174000255Y-43818499D01*
X174113501Y-43931745D01*
X174202471Y-44064899D01*
X174263758Y-44212858D01*
X174295000Y-44369925D01*
X174295000Y-44530075D01*
X174263758Y-44687142D01*
X174202471Y-44835101D01*
X174113501Y-44968255D01*
X174000255Y-45081501D01*
X173867101Y-45170471D01*
X173719142Y-45231758D01*
X173562075Y-45263000D01*
X173401925Y-45263000D01*
X173244858Y-45231758D01*
X173096899Y-45170471D01*
X172963745Y-45081501D01*
X172850499Y-44968255D01*
X172761529Y-44835101D01*
X172700242Y-44687142D01*
X172669000Y-44530075D01*
X172669000Y-44369925D01*
X172700242Y-44212858D01*
X172761529Y-44064899D01*
X172850499Y-43931745D01*
X172963745Y-43818499D01*
X173096899Y-43729529D01*
X173244858Y-43668242D01*
X173401925Y-43637000D01*
X173562075Y-43637000D01*
X173719142Y-43668242D01*
G37*
G36*
X163559142Y-43668242D02*
G01*
X163707101Y-43729529D01*
X163840255Y-43818499D01*
X163953501Y-43931745D01*
X164042471Y-44064899D01*
X164103758Y-44212858D01*
X164135000Y-44369925D01*
X164135000Y-44530075D01*
X164103758Y-44687142D01*
X164042471Y-44835101D01*
X163953501Y-44968255D01*
X163840255Y-45081501D01*
X163707101Y-45170471D01*
X163559142Y-45231758D01*
X163402075Y-45263000D01*
X163241925Y-45263000D01*
X163084858Y-45231758D01*
X162936899Y-45170471D01*
X162803745Y-45081501D01*
X162690499Y-44968255D01*
X162601529Y-44835101D01*
X162540242Y-44687142D01*
X162509000Y-44530075D01*
X162509000Y-44369925D01*
X162540242Y-44212858D01*
X162601529Y-44064899D01*
X162690499Y-43931745D01*
X162803745Y-43818499D01*
X162936899Y-43729529D01*
X163084858Y-43668242D01*
X163241925Y-43637000D01*
X163402075Y-43637000D01*
X163559142Y-43668242D01*
G37*
G36*
X52336000Y-43827000D02*
G01*
X50534000Y-43827000D01*
X50534000Y-42025000D01*
X52336000Y-42025000D01*
X52336000Y-43827000D01*
G37*
G36*
X59168512Y-42029927D02*
G01*
X59317812Y-42059624D01*
X59481784Y-42127544D01*
X59629354Y-42226147D01*
X59754853Y-42351646D01*
X59853456Y-42499216D01*
X59921376Y-42663188D01*
X59956000Y-42837259D01*
X59956000Y-43014741D01*
X59921376Y-43188812D01*
X59853456Y-43352784D01*
X59754853Y-43500354D01*
X59629354Y-43625853D01*
X59481784Y-43724456D01*
X59317812Y-43792376D01*
X59168512Y-43822073D01*
X59143742Y-43827000D01*
X58966258Y-43827000D01*
X58941488Y-43822073D01*
X58792188Y-43792376D01*
X58628216Y-43724456D01*
X58480646Y-43625853D01*
X58355147Y-43500354D01*
X58256544Y-43352784D01*
X58188624Y-43188812D01*
X58154000Y-43014741D01*
X58154000Y-42837259D01*
X58188624Y-42663188D01*
X58256544Y-42499216D01*
X58355147Y-42351646D01*
X58480646Y-42226147D01*
X58628216Y-42127544D01*
X58792188Y-42059624D01*
X58941488Y-42029927D01*
X58966258Y-42025000D01*
X59143742Y-42025000D01*
X59168512Y-42029927D01*
G37*
G36*
X56628512Y-42029927D02*
G01*
X56777812Y-42059624D01*
X56941784Y-42127544D01*
X57089354Y-42226147D01*
X57214853Y-42351646D01*
X57313456Y-42499216D01*
X57381376Y-42663188D01*
X57416000Y-42837259D01*
X57416000Y-43014741D01*
X57381376Y-43188812D01*
X57313456Y-43352784D01*
X57214853Y-43500354D01*
X57089354Y-43625853D01*
X56941784Y-43724456D01*
X56777812Y-43792376D01*
X56628512Y-43822073D01*
X56603742Y-43827000D01*
X56426258Y-43827000D01*
X56401488Y-43822073D01*
X56252188Y-43792376D01*
X56088216Y-43724456D01*
X55940646Y-43625853D01*
X55815147Y-43500354D01*
X55716544Y-43352784D01*
X55648624Y-43188812D01*
X55614000Y-43014741D01*
X55614000Y-42837259D01*
X55648624Y-42663188D01*
X55716544Y-42499216D01*
X55815147Y-42351646D01*
X55940646Y-42226147D01*
X56088216Y-42127544D01*
X56252188Y-42059624D01*
X56401488Y-42029927D01*
X56426258Y-42025000D01*
X56603742Y-42025000D01*
X56628512Y-42029927D01*
G37*
G36*
X54088512Y-42029927D02*
G01*
X54237812Y-42059624D01*
X54401784Y-42127544D01*
X54549354Y-42226147D01*
X54674853Y-42351646D01*
X54773456Y-42499216D01*
X54841376Y-42663188D01*
X54876000Y-42837259D01*
X54876000Y-43014741D01*
X54841376Y-43188812D01*
X54773456Y-43352784D01*
X54674853Y-43500354D01*
X54549354Y-43625853D01*
X54401784Y-43724456D01*
X54237812Y-43792376D01*
X54088512Y-43822073D01*
X54063742Y-43827000D01*
X53886258Y-43827000D01*
X53861488Y-43822073D01*
X53712188Y-43792376D01*
X53548216Y-43724456D01*
X53400646Y-43625853D01*
X53275147Y-43500354D01*
X53176544Y-43352784D01*
X53108624Y-43188812D01*
X53074000Y-43014741D01*
X53074000Y-42837259D01*
X53108624Y-42663188D01*
X53176544Y-42499216D01*
X53275147Y-42351646D01*
X53400646Y-42226147D01*
X53548216Y-42127544D01*
X53712188Y-42059624D01*
X53861488Y-42029927D01*
X53886258Y-42025000D01*
X54063742Y-42025000D01*
X54088512Y-42029927D01*
G37*
G36*
X45412810Y-41303135D02*
G01*
X45469707Y-41314452D01*
X45520876Y-41335647D01*
X45630496Y-41381053D01*
X45775196Y-41477738D01*
X45898262Y-41600804D01*
X45994947Y-41745504D01*
X46061548Y-41906294D01*
X46095500Y-42076981D01*
X46095500Y-42251019D01*
X46078440Y-42336784D01*
X46061548Y-42421707D01*
X46029442Y-42499218D01*
X45994947Y-42582496D01*
X45898262Y-42727196D01*
X45775196Y-42850262D01*
X45630496Y-42946947D01*
X45630495Y-42946948D01*
X45630494Y-42946948D01*
X45469707Y-43013548D01*
X45412810Y-43024865D01*
X45299019Y-43047500D01*
X45124981Y-43047500D01*
X45011190Y-43024865D01*
X44954293Y-43013548D01*
X44793506Y-42946948D01*
X44793505Y-42946948D01*
X44793504Y-42946947D01*
X44648804Y-42850262D01*
X44525738Y-42727196D01*
X44429053Y-42582496D01*
X44394558Y-42499218D01*
X44362452Y-42421707D01*
X44345560Y-42336784D01*
X44328500Y-42251019D01*
X44328500Y-42076981D01*
X44362452Y-41906294D01*
X44429053Y-41745504D01*
X44525738Y-41600804D01*
X44648804Y-41477738D01*
X44793504Y-41381053D01*
X44903124Y-41335647D01*
X44954293Y-41314452D01*
X45011190Y-41303135D01*
X45124981Y-41280500D01*
X45299019Y-41280500D01*
X45412810Y-41303135D01*
G37*
G36*
X30172810Y-41303135D02*
G01*
X30229707Y-41314452D01*
X30280876Y-41335647D01*
X30390496Y-41381053D01*
X30535196Y-41477738D01*
X30658262Y-41600804D01*
X30754947Y-41745504D01*
X30821548Y-41906294D01*
X30855500Y-42076981D01*
X30855500Y-42251019D01*
X30838440Y-42336784D01*
X30821548Y-42421707D01*
X30789442Y-42499218D01*
X30754947Y-42582496D01*
X30658262Y-42727196D01*
X30535196Y-42850262D01*
X30390496Y-42946947D01*
X30390495Y-42946948D01*
X30390494Y-42946948D01*
X30229707Y-43013548D01*
X30172810Y-43024865D01*
X30059019Y-43047500D01*
X29884981Y-43047500D01*
X29771190Y-43024865D01*
X29714293Y-43013548D01*
X29553506Y-42946948D01*
X29553505Y-42946948D01*
X29553504Y-42946947D01*
X29408804Y-42850262D01*
X29285738Y-42727196D01*
X29189053Y-42582496D01*
X29154558Y-42499218D01*
X29122452Y-42421707D01*
X29105560Y-42336784D01*
X29088500Y-42251019D01*
X29088500Y-42076981D01*
X29122452Y-41906294D01*
X29189053Y-41745504D01*
X29285738Y-41600804D01*
X29408804Y-41477738D01*
X29553504Y-41381053D01*
X29663124Y-41335647D01*
X29714293Y-41314452D01*
X29771190Y-41303135D01*
X29884981Y-41280500D01*
X30059019Y-41280500D01*
X30172810Y-41303135D01*
G37*
G36*
X110349512Y-41013927D02*
G01*
X110498812Y-41043624D01*
X110662784Y-41111544D01*
X110810354Y-41210147D01*
X110935853Y-41335646D01*
X111034456Y-41483216D01*
X111102376Y-41647188D01*
X111137000Y-41821259D01*
X111137000Y-41998741D01*
X111102376Y-42172812D01*
X111034456Y-42336784D01*
X110935853Y-42484354D01*
X110810354Y-42609853D01*
X110662784Y-42708456D01*
X110498812Y-42776376D01*
X110349512Y-42806073D01*
X110324742Y-42811000D01*
X110147258Y-42811000D01*
X110122488Y-42806073D01*
X109973188Y-42776376D01*
X109809216Y-42708456D01*
X109661646Y-42609853D01*
X109536147Y-42484354D01*
X109437544Y-42336784D01*
X109369624Y-42172812D01*
X109335000Y-41998741D01*
X109335000Y-41821259D01*
X109369624Y-41647188D01*
X109437544Y-41483216D01*
X109536147Y-41335646D01*
X109661646Y-41210147D01*
X109809216Y-41111544D01*
X109973188Y-41043624D01*
X110122488Y-41013927D01*
X110147258Y-41009000D01*
X110324742Y-41009000D01*
X110349512Y-41013927D01*
G37*
G36*
X105523512Y-41013927D02*
G01*
X105672812Y-41043624D01*
X105836784Y-41111544D01*
X105984354Y-41210147D01*
X106109853Y-41335646D01*
X106208456Y-41483216D01*
X106276376Y-41647188D01*
X106311000Y-41821259D01*
X106311000Y-41998741D01*
X106276376Y-42172812D01*
X106208456Y-42336784D01*
X106109853Y-42484354D01*
X105984354Y-42609853D01*
X105836784Y-42708456D01*
X105672812Y-42776376D01*
X105523512Y-42806073D01*
X105498742Y-42811000D01*
X105321258Y-42811000D01*
X105296488Y-42806073D01*
X105147188Y-42776376D01*
X104983216Y-42708456D01*
X104835646Y-42609853D01*
X104710147Y-42484354D01*
X104611544Y-42336784D01*
X104543624Y-42172812D01*
X104509000Y-41998741D01*
X104509000Y-41821259D01*
X104543624Y-41647188D01*
X104611544Y-41483216D01*
X104710147Y-41335646D01*
X104835646Y-41210147D01*
X104983216Y-41111544D01*
X105147188Y-41043624D01*
X105296488Y-41013927D01*
X105321258Y-41009000D01*
X105498742Y-41009000D01*
X105523512Y-41013927D01*
G37*
G36*
X128129512Y-41013927D02*
G01*
X128278812Y-41043624D01*
X128442784Y-41111544D01*
X128590354Y-41210147D01*
X128715853Y-41335646D01*
X128814456Y-41483216D01*
X128882376Y-41647188D01*
X128917000Y-41821259D01*
X128917000Y-41998741D01*
X128882376Y-42172812D01*
X128814456Y-42336784D01*
X128715853Y-42484354D01*
X128590354Y-42609853D01*
X128442784Y-42708456D01*
X128278812Y-42776376D01*
X128129512Y-42806073D01*
X128104742Y-42811000D01*
X127927258Y-42811000D01*
X127902488Y-42806073D01*
X127753188Y-42776376D01*
X127589216Y-42708456D01*
X127441646Y-42609853D01*
X127316147Y-42484354D01*
X127217544Y-42336784D01*
X127149624Y-42172812D01*
X127115000Y-41998741D01*
X127115000Y-41821259D01*
X127149624Y-41647188D01*
X127217544Y-41483216D01*
X127316147Y-41335646D01*
X127441646Y-41210147D01*
X127589216Y-41111544D01*
X127753188Y-41043624D01*
X127902488Y-41013927D01*
X127927258Y-41009000D01*
X128104742Y-41009000D01*
X128129512Y-41013927D01*
G37*
G36*
X65391512Y-41013927D02*
G01*
X65540812Y-41043624D01*
X65704784Y-41111544D01*
X65852354Y-41210147D01*
X65977853Y-41335646D01*
X66076456Y-41483216D01*
X66144376Y-41647188D01*
X66179000Y-41821259D01*
X66179000Y-41998741D01*
X66144376Y-42172812D01*
X66076456Y-42336784D01*
X65977853Y-42484354D01*
X65852354Y-42609853D01*
X65704784Y-42708456D01*
X65540812Y-42776376D01*
X65391512Y-42806073D01*
X65366742Y-42811000D01*
X65189258Y-42811000D01*
X65164488Y-42806073D01*
X65015188Y-42776376D01*
X64851216Y-42708456D01*
X64703646Y-42609853D01*
X64578147Y-42484354D01*
X64479544Y-42336784D01*
X64411624Y-42172812D01*
X64377000Y-41998741D01*
X64377000Y-41821259D01*
X64411624Y-41647188D01*
X64479544Y-41483216D01*
X64578147Y-41335646D01*
X64703646Y-41210147D01*
X64851216Y-41111544D01*
X65015188Y-41043624D01*
X65164488Y-41013927D01*
X65189258Y-41009000D01*
X65366742Y-41009000D01*
X65391512Y-41013927D01*
G37*
G36*
X87743512Y-41013927D02*
G01*
X87892812Y-41043624D01*
X88056784Y-41111544D01*
X88204354Y-41210147D01*
X88329853Y-41335646D01*
X88428456Y-41483216D01*
X88496376Y-41647188D01*
X88531000Y-41821259D01*
X88531000Y-41998741D01*
X88496376Y-42172812D01*
X88428456Y-42336784D01*
X88329853Y-42484354D01*
X88204354Y-42609853D01*
X88056784Y-42708456D01*
X87892812Y-42776376D01*
X87743512Y-42806073D01*
X87718742Y-42811000D01*
X87541258Y-42811000D01*
X87516488Y-42806073D01*
X87367188Y-42776376D01*
X87203216Y-42708456D01*
X87055646Y-42609853D01*
X86930147Y-42484354D01*
X86831544Y-42336784D01*
X86763624Y-42172812D01*
X86729000Y-41998741D01*
X86729000Y-41821259D01*
X86763624Y-41647188D01*
X86831544Y-41483216D01*
X86930147Y-41335646D01*
X87055646Y-41210147D01*
X87203216Y-41111544D01*
X87367188Y-41043624D01*
X87516488Y-41013927D01*
X87541258Y-41009000D01*
X87718742Y-41009000D01*
X87743512Y-41013927D01*
G37*
G36*
X83171512Y-41013927D02*
G01*
X83320812Y-41043624D01*
X83484784Y-41111544D01*
X83632354Y-41210147D01*
X83757853Y-41335646D01*
X83856456Y-41483216D01*
X83924376Y-41647188D01*
X83959000Y-41821259D01*
X83959000Y-41998741D01*
X83924376Y-42172812D01*
X83856456Y-42336784D01*
X83757853Y-42484354D01*
X83632354Y-42609853D01*
X83484784Y-42708456D01*
X83320812Y-42776376D01*
X83171512Y-42806073D01*
X83146742Y-42811000D01*
X82969258Y-42811000D01*
X82944488Y-42806073D01*
X82795188Y-42776376D01*
X82631216Y-42708456D01*
X82483646Y-42609853D01*
X82358147Y-42484354D01*
X82259544Y-42336784D01*
X82191624Y-42172812D01*
X82157000Y-41998741D01*
X82157000Y-41821259D01*
X82191624Y-41647188D01*
X82259544Y-41483216D01*
X82358147Y-41335646D01*
X82483646Y-41210147D01*
X82631216Y-41111544D01*
X82795188Y-41043624D01*
X82944488Y-41013927D01*
X82969258Y-41009000D01*
X83146742Y-41009000D01*
X83171512Y-41013927D01*
G37*
G36*
X45412810Y-38763135D02*
G01*
X45469707Y-38774452D01*
X45520876Y-38795647D01*
X45630496Y-38841053D01*
X45775196Y-38937738D01*
X45898262Y-39060804D01*
X45994947Y-39205504D01*
X46061548Y-39366294D01*
X46095500Y-39536981D01*
X46095500Y-39711019D01*
X46061548Y-39881706D01*
X45994947Y-40042496D01*
X45898262Y-40187196D01*
X45775196Y-40310262D01*
X45630496Y-40406947D01*
X45630495Y-40406948D01*
X45630494Y-40406948D01*
X45469707Y-40473548D01*
X45412810Y-40484865D01*
X45299019Y-40507500D01*
X45124981Y-40507500D01*
X45011190Y-40484865D01*
X44954293Y-40473548D01*
X44793506Y-40406948D01*
X44793505Y-40406948D01*
X44793504Y-40406947D01*
X44648804Y-40310262D01*
X44525738Y-40187196D01*
X44429053Y-40042496D01*
X44362452Y-39881706D01*
X44328500Y-39711019D01*
X44328500Y-39536981D01*
X44362452Y-39366294D01*
X44429053Y-39205504D01*
X44525738Y-39060804D01*
X44648804Y-38937738D01*
X44793504Y-38841053D01*
X44903124Y-38795647D01*
X44954293Y-38774452D01*
X45011190Y-38763135D01*
X45124981Y-38740500D01*
X45299019Y-38740500D01*
X45412810Y-38763135D01*
G37*
G36*
X30172810Y-38763135D02*
G01*
X30229707Y-38774452D01*
X30280876Y-38795647D01*
X30390496Y-38841053D01*
X30535196Y-38937738D01*
X30658262Y-39060804D01*
X30754947Y-39205504D01*
X30821548Y-39366294D01*
X30855500Y-39536981D01*
X30855500Y-39711019D01*
X30821548Y-39881706D01*
X30754947Y-40042496D01*
X30658262Y-40187196D01*
X30535196Y-40310262D01*
X30390496Y-40406947D01*
X30390495Y-40406948D01*
X30390494Y-40406948D01*
X30229707Y-40473548D01*
X30172810Y-40484865D01*
X30059019Y-40507500D01*
X29884981Y-40507500D01*
X29771190Y-40484865D01*
X29714293Y-40473548D01*
X29553506Y-40406948D01*
X29553505Y-40406948D01*
X29553504Y-40406947D01*
X29408804Y-40310262D01*
X29285738Y-40187196D01*
X29189053Y-40042496D01*
X29122452Y-39881706D01*
X29088500Y-39711019D01*
X29088500Y-39536981D01*
X29122452Y-39366294D01*
X29189053Y-39205504D01*
X29285738Y-39060804D01*
X29408804Y-38937738D01*
X29553504Y-38841053D01*
X29663124Y-38795647D01*
X29714293Y-38774452D01*
X29771190Y-38763135D01*
X29884981Y-38740500D01*
X30059019Y-38740500D01*
X30172810Y-38763135D01*
G37*
G36*
X105523512Y-38473927D02*
G01*
X105672812Y-38503624D01*
X105836784Y-38571544D01*
X105984354Y-38670147D01*
X106109853Y-38795646D01*
X106208456Y-38943216D01*
X106276376Y-39107188D01*
X106311000Y-39281259D01*
X106311000Y-39458741D01*
X106276376Y-39632812D01*
X106208456Y-39796784D01*
X106109853Y-39944354D01*
X105984354Y-40069853D01*
X105836784Y-40168456D01*
X105672812Y-40236376D01*
X105523512Y-40266073D01*
X105498742Y-40271000D01*
X105321258Y-40271000D01*
X105296488Y-40266073D01*
X105147188Y-40236376D01*
X104983216Y-40168456D01*
X104835646Y-40069853D01*
X104710147Y-39944354D01*
X104611544Y-39796784D01*
X104543624Y-39632812D01*
X104509000Y-39458741D01*
X104509000Y-39281259D01*
X104543624Y-39107188D01*
X104611544Y-38943216D01*
X104710147Y-38795646D01*
X104835646Y-38670147D01*
X104983216Y-38571544D01*
X105147188Y-38503624D01*
X105296488Y-38473927D01*
X105321258Y-38469000D01*
X105498742Y-38469000D01*
X105523512Y-38473927D01*
G37*
G36*
X128129512Y-38473927D02*
G01*
X128278812Y-38503624D01*
X128442784Y-38571544D01*
X128590354Y-38670147D01*
X128715853Y-38795646D01*
X128814456Y-38943216D01*
X128882376Y-39107188D01*
X128917000Y-39281259D01*
X128917000Y-39458741D01*
X128882376Y-39632812D01*
X128814456Y-39796784D01*
X128715853Y-39944354D01*
X128590354Y-40069853D01*
X128442784Y-40168456D01*
X128278812Y-40236376D01*
X128129512Y-40266073D01*
X128104742Y-40271000D01*
X127927258Y-40271000D01*
X127902488Y-40266073D01*
X127753188Y-40236376D01*
X127589216Y-40168456D01*
X127441646Y-40069853D01*
X127316147Y-39944354D01*
X127217544Y-39796784D01*
X127149624Y-39632812D01*
X127115000Y-39458741D01*
X127115000Y-39281259D01*
X127149624Y-39107188D01*
X127217544Y-38943216D01*
X127316147Y-38795646D01*
X127441646Y-38670147D01*
X127589216Y-38571544D01*
X127753188Y-38503624D01*
X127902488Y-38473927D01*
X127927258Y-38469000D01*
X128104742Y-38469000D01*
X128129512Y-38473927D01*
G37*
G36*
X83171512Y-38473927D02*
G01*
X83320812Y-38503624D01*
X83484784Y-38571544D01*
X83632354Y-38670147D01*
X83757853Y-38795646D01*
X83856456Y-38943216D01*
X83924376Y-39107188D01*
X83959000Y-39281259D01*
X83959000Y-39458741D01*
X83924376Y-39632812D01*
X83856456Y-39796784D01*
X83757853Y-39944354D01*
X83632354Y-40069853D01*
X83484784Y-40168456D01*
X83320812Y-40236376D01*
X83171512Y-40266073D01*
X83146742Y-40271000D01*
X82969258Y-40271000D01*
X82944488Y-40266073D01*
X82795188Y-40236376D01*
X82631216Y-40168456D01*
X82483646Y-40069853D01*
X82358147Y-39944354D01*
X82259544Y-39796784D01*
X82191624Y-39632812D01*
X82157000Y-39458741D01*
X82157000Y-39281259D01*
X82191624Y-39107188D01*
X82259544Y-38943216D01*
X82358147Y-38795646D01*
X82483646Y-38670147D01*
X82631216Y-38571544D01*
X82795188Y-38503624D01*
X82944488Y-38473927D01*
X82969258Y-38469000D01*
X83146742Y-38469000D01*
X83171512Y-38473927D01*
G37*
G36*
X146671512Y-36187927D02*
G01*
X146820812Y-36217624D01*
X146984784Y-36285544D01*
X147132354Y-36384147D01*
X147257853Y-36509646D01*
X147356456Y-36657216D01*
X147424376Y-36821188D01*
X147459000Y-36995259D01*
X147459000Y-37172741D01*
X147424376Y-37346812D01*
X147356456Y-37510784D01*
X147257853Y-37658354D01*
X147132354Y-37783853D01*
X146984784Y-37882456D01*
X146820812Y-37950376D01*
X146671512Y-37980073D01*
X146646742Y-37985000D01*
X146469258Y-37985000D01*
X146444488Y-37980073D01*
X146295188Y-37950376D01*
X146131216Y-37882456D01*
X145983646Y-37783853D01*
X145858147Y-37658354D01*
X145759544Y-37510784D01*
X145691624Y-37346812D01*
X145657000Y-37172741D01*
X145657000Y-36995259D01*
X145691624Y-36821188D01*
X145759544Y-36657216D01*
X145858147Y-36509646D01*
X145983646Y-36384147D01*
X146131216Y-36285544D01*
X146295188Y-36217624D01*
X146444488Y-36187927D01*
X146469258Y-36183000D01*
X146646742Y-36183000D01*
X146671512Y-36187927D01*
G37*
G36*
X144131512Y-36187927D02*
G01*
X144280812Y-36217624D01*
X144444784Y-36285544D01*
X144592354Y-36384147D01*
X144717853Y-36509646D01*
X144816456Y-36657216D01*
X144884376Y-36821188D01*
X144919000Y-36995259D01*
X144919000Y-37172741D01*
X144884376Y-37346812D01*
X144816456Y-37510784D01*
X144717853Y-37658354D01*
X144592354Y-37783853D01*
X144444784Y-37882456D01*
X144280812Y-37950376D01*
X144131512Y-37980073D01*
X144106742Y-37985000D01*
X143929258Y-37985000D01*
X143904488Y-37980073D01*
X143755188Y-37950376D01*
X143591216Y-37882456D01*
X143443646Y-37783853D01*
X143318147Y-37658354D01*
X143219544Y-37510784D01*
X143151624Y-37346812D01*
X143117000Y-37172741D01*
X143117000Y-36995259D01*
X143151624Y-36821188D01*
X143219544Y-36657216D01*
X143318147Y-36509646D01*
X143443646Y-36384147D01*
X143591216Y-36285544D01*
X143755188Y-36217624D01*
X143904488Y-36187927D01*
X143929258Y-36183000D01*
X144106742Y-36183000D01*
X144131512Y-36187927D01*
G37*
G36*
X149211512Y-36187927D02*
G01*
X149360812Y-36217624D01*
X149524784Y-36285544D01*
X149672354Y-36384147D01*
X149797853Y-36509646D01*
X149896456Y-36657216D01*
X149964376Y-36821188D01*
X149999000Y-36995259D01*
X149999000Y-37172741D01*
X149964376Y-37346812D01*
X149896456Y-37510784D01*
X149797853Y-37658354D01*
X149672354Y-37783853D01*
X149524784Y-37882456D01*
X149360812Y-37950376D01*
X149211512Y-37980073D01*
X149186742Y-37985000D01*
X149009258Y-37985000D01*
X148984488Y-37980073D01*
X148835188Y-37950376D01*
X148671216Y-37882456D01*
X148523646Y-37783853D01*
X148398147Y-37658354D01*
X148299544Y-37510784D01*
X148231624Y-37346812D01*
X148197000Y-37172741D01*
X148197000Y-36995259D01*
X148231624Y-36821188D01*
X148299544Y-36657216D01*
X148398147Y-36509646D01*
X148523646Y-36384147D01*
X148671216Y-36285544D01*
X148835188Y-36217624D01*
X148984488Y-36187927D01*
X149009258Y-36183000D01*
X149186742Y-36183000D01*
X149211512Y-36187927D01*
G37*
G36*
X142379000Y-37985000D02*
G01*
X140577000Y-37985000D01*
X140577000Y-36183000D01*
X142379000Y-36183000D01*
X142379000Y-37985000D01*
G37*
G36*
X45412810Y-36223135D02*
G01*
X45469707Y-36234452D01*
X45520876Y-36255647D01*
X45630496Y-36301053D01*
X45775196Y-36397738D01*
X45898262Y-36520804D01*
X45989409Y-36657216D01*
X45994948Y-36665506D01*
X46059434Y-36821189D01*
X46061548Y-36826294D01*
X46095500Y-36996981D01*
X46095500Y-37171019D01*
X46078440Y-37256784D01*
X46061548Y-37341707D01*
X46059433Y-37346812D01*
X45994947Y-37502496D01*
X45898262Y-37647196D01*
X45775196Y-37770262D01*
X45630496Y-37866947D01*
X45630495Y-37866948D01*
X45630494Y-37866948D01*
X45469707Y-37933548D01*
X45412810Y-37944865D01*
X45299019Y-37967500D01*
X45124981Y-37967500D01*
X45011190Y-37944865D01*
X44954293Y-37933548D01*
X44793506Y-37866948D01*
X44793505Y-37866948D01*
X44793504Y-37866947D01*
X44648804Y-37770262D01*
X44525738Y-37647196D01*
X44429053Y-37502496D01*
X44364567Y-37346812D01*
X44362452Y-37341707D01*
X44345560Y-37256784D01*
X44328500Y-37171019D01*
X44328500Y-36996981D01*
X44362452Y-36826294D01*
X44364567Y-36821189D01*
X44429052Y-36665506D01*
X44434591Y-36657216D01*
X44525738Y-36520804D01*
X44648804Y-36397738D01*
X44793504Y-36301053D01*
X44903124Y-36255647D01*
X44954293Y-36234452D01*
X45011190Y-36223135D01*
X45124981Y-36200500D01*
X45299019Y-36200500D01*
X45412810Y-36223135D01*
G37*
G36*
X30172810Y-36223135D02*
G01*
X30229707Y-36234452D01*
X30280876Y-36255647D01*
X30390496Y-36301053D01*
X30535196Y-36397738D01*
X30658262Y-36520804D01*
X30749409Y-36657216D01*
X30754948Y-36665506D01*
X30819434Y-36821189D01*
X30821548Y-36826294D01*
X30855500Y-36996981D01*
X30855500Y-37171019D01*
X30838440Y-37256784D01*
X30821548Y-37341707D01*
X30819433Y-37346812D01*
X30754947Y-37502496D01*
X30658262Y-37647196D01*
X30535196Y-37770262D01*
X30390496Y-37866947D01*
X30390495Y-37866948D01*
X30390494Y-37866948D01*
X30229707Y-37933548D01*
X30172810Y-37944865D01*
X30059019Y-37967500D01*
X29884981Y-37967500D01*
X29771190Y-37944865D01*
X29714293Y-37933548D01*
X29553506Y-37866948D01*
X29553505Y-37866948D01*
X29553504Y-37866947D01*
X29408804Y-37770262D01*
X29285738Y-37647196D01*
X29189053Y-37502496D01*
X29124567Y-37346812D01*
X29122452Y-37341707D01*
X29105560Y-37256784D01*
X29088500Y-37171019D01*
X29088500Y-36996981D01*
X29122452Y-36826294D01*
X29124567Y-36821189D01*
X29189052Y-36665506D01*
X29194591Y-36657216D01*
X29285738Y-36520804D01*
X29408804Y-36397738D01*
X29553504Y-36301053D01*
X29663124Y-36255647D01*
X29714293Y-36234452D01*
X29771190Y-36223135D01*
X29884981Y-36200500D01*
X30059019Y-36200500D01*
X30172810Y-36223135D01*
G37*
G36*
X105523512Y-35933927D02*
G01*
X105672812Y-35963624D01*
X105836784Y-36031544D01*
X105984354Y-36130147D01*
X106109853Y-36255646D01*
X106208456Y-36403216D01*
X106276376Y-36567188D01*
X106311000Y-36741259D01*
X106311000Y-36918741D01*
X106276376Y-37092812D01*
X106208456Y-37256784D01*
X106109853Y-37404354D01*
X105984354Y-37529853D01*
X105836784Y-37628456D01*
X105672812Y-37696376D01*
X105523512Y-37726073D01*
X105498742Y-37731000D01*
X105321258Y-37731000D01*
X105296488Y-37726073D01*
X105147188Y-37696376D01*
X104983216Y-37628456D01*
X104835646Y-37529853D01*
X104710147Y-37404354D01*
X104611544Y-37256784D01*
X104543624Y-37092812D01*
X104509000Y-36918741D01*
X104509000Y-36741259D01*
X104543624Y-36567188D01*
X104611544Y-36403216D01*
X104710147Y-36255646D01*
X104835646Y-36130147D01*
X104983216Y-36031544D01*
X105147188Y-35963624D01*
X105296488Y-35933927D01*
X105321258Y-35929000D01*
X105498742Y-35929000D01*
X105523512Y-35933927D01*
G37*
G36*
X83171512Y-35933927D02*
G01*
X83320812Y-35963624D01*
X83484784Y-36031544D01*
X83632354Y-36130147D01*
X83757853Y-36255646D01*
X83856456Y-36403216D01*
X83924376Y-36567188D01*
X83959000Y-36741259D01*
X83959000Y-36918741D01*
X83924376Y-37092812D01*
X83856456Y-37256784D01*
X83757853Y-37404354D01*
X83632354Y-37529853D01*
X83484784Y-37628456D01*
X83320812Y-37696376D01*
X83171512Y-37726073D01*
X83146742Y-37731000D01*
X82969258Y-37731000D01*
X82944488Y-37726073D01*
X82795188Y-37696376D01*
X82631216Y-37628456D01*
X82483646Y-37529853D01*
X82358147Y-37404354D01*
X82259544Y-37256784D01*
X82191624Y-37092812D01*
X82157000Y-36918741D01*
X82157000Y-36741259D01*
X82191624Y-36567188D01*
X82259544Y-36403216D01*
X82358147Y-36255646D01*
X82483646Y-36130147D01*
X82631216Y-36031544D01*
X82795188Y-35963624D01*
X82944488Y-35933927D01*
X82969258Y-35929000D01*
X83146742Y-35929000D01*
X83171512Y-35933927D01*
G37*
G36*
X128129512Y-35933927D02*
G01*
X128278812Y-35963624D01*
X128442784Y-36031544D01*
X128590354Y-36130147D01*
X128715853Y-36255646D01*
X128814456Y-36403216D01*
X128882376Y-36567188D01*
X128917000Y-36741259D01*
X128917000Y-36918741D01*
X128882376Y-37092812D01*
X128814456Y-37256784D01*
X128715853Y-37404354D01*
X128590354Y-37529853D01*
X128442784Y-37628456D01*
X128278812Y-37696376D01*
X128129512Y-37726073D01*
X128104742Y-37731000D01*
X127927258Y-37731000D01*
X127902488Y-37726073D01*
X127753188Y-37696376D01*
X127589216Y-37628456D01*
X127441646Y-37529853D01*
X127316147Y-37404354D01*
X127217544Y-37256784D01*
X127149624Y-37092812D01*
X127115000Y-36918741D01*
X127115000Y-36741259D01*
X127149624Y-36567188D01*
X127217544Y-36403216D01*
X127316147Y-36255646D01*
X127441646Y-36130147D01*
X127589216Y-36031544D01*
X127753188Y-35963624D01*
X127902488Y-35933927D01*
X127927258Y-35929000D01*
X128104742Y-35929000D01*
X128129512Y-35933927D01*
G37*
G36*
X105523512Y-33393927D02*
G01*
X105672812Y-33423624D01*
X105836784Y-33491544D01*
X105984354Y-33590147D01*
X106109853Y-33715646D01*
X106208456Y-33863216D01*
X106276376Y-34027188D01*
X106311000Y-34201259D01*
X106311000Y-34378741D01*
X106276376Y-34552812D01*
X106208456Y-34716784D01*
X106109853Y-34864354D01*
X105984354Y-34989853D01*
X105836784Y-35088456D01*
X105672812Y-35156376D01*
X105523512Y-35186073D01*
X105498742Y-35191000D01*
X105321258Y-35191000D01*
X105296488Y-35186073D01*
X105147188Y-35156376D01*
X104983216Y-35088456D01*
X104835646Y-34989853D01*
X104710147Y-34864354D01*
X104611544Y-34716784D01*
X104543624Y-34552812D01*
X104509000Y-34378741D01*
X104509000Y-34201259D01*
X104543624Y-34027188D01*
X104611544Y-33863216D01*
X104710147Y-33715646D01*
X104835646Y-33590147D01*
X104983216Y-33491544D01*
X105147188Y-33423624D01*
X105296488Y-33393927D01*
X105321258Y-33389000D01*
X105498742Y-33389000D01*
X105523512Y-33393927D01*
G37*
G36*
X83171512Y-33393927D02*
G01*
X83320812Y-33423624D01*
X83484784Y-33491544D01*
X83632354Y-33590147D01*
X83757853Y-33715646D01*
X83856456Y-33863216D01*
X83924376Y-34027188D01*
X83959000Y-34201259D01*
X83959000Y-34378741D01*
X83924376Y-34552812D01*
X83856456Y-34716784D01*
X83757853Y-34864354D01*
X83632354Y-34989853D01*
X83484784Y-35088456D01*
X83320812Y-35156376D01*
X83171512Y-35186073D01*
X83146742Y-35191000D01*
X82969258Y-35191000D01*
X82944488Y-35186073D01*
X82795188Y-35156376D01*
X82631216Y-35088456D01*
X82483646Y-34989853D01*
X82358147Y-34864354D01*
X82259544Y-34716784D01*
X82191624Y-34552812D01*
X82157000Y-34378741D01*
X82157000Y-34201259D01*
X82191624Y-34027188D01*
X82259544Y-33863216D01*
X82358147Y-33715646D01*
X82483646Y-33590147D01*
X82631216Y-33491544D01*
X82795188Y-33423624D01*
X82944488Y-33393927D01*
X82969258Y-33389000D01*
X83146742Y-33389000D01*
X83171512Y-33393927D01*
G37*
G36*
X128129512Y-33393927D02*
G01*
X128278812Y-33423624D01*
X128442784Y-33491544D01*
X128590354Y-33590147D01*
X128715853Y-33715646D01*
X128814456Y-33863216D01*
X128882376Y-34027188D01*
X128917000Y-34201259D01*
X128917000Y-34378741D01*
X128882376Y-34552812D01*
X128814456Y-34716784D01*
X128715853Y-34864354D01*
X128590354Y-34989853D01*
X128442784Y-35088456D01*
X128278812Y-35156376D01*
X128129512Y-35186073D01*
X128104742Y-35191000D01*
X127927258Y-35191000D01*
X127902488Y-35186073D01*
X127753188Y-35156376D01*
X127589216Y-35088456D01*
X127441646Y-34989853D01*
X127316147Y-34864354D01*
X127217544Y-34716784D01*
X127149624Y-34552812D01*
X127115000Y-34378741D01*
X127115000Y-34201259D01*
X127149624Y-34027188D01*
X127217544Y-33863216D01*
X127316147Y-33715646D01*
X127441646Y-33590147D01*
X127589216Y-33491544D01*
X127753188Y-33423624D01*
X127902488Y-33393927D01*
X127927258Y-33389000D01*
X128104742Y-33389000D01*
X128129512Y-33393927D01*
G37*
M02*
